<svg width="26" height="19" viewBox="0 0 26 19" fill="none" xmlns="http://www.w3.org/2000/svg">
<path d="M1 7.59184H8.03666H15.2635L8.5 1H11.6638H14.8949L19.4475 5.16327L24 9.32688L19.2573 13.6633L14.5142 18H11.3298H8.14507L11.7045 14.8928L15.2635 11.7856L8.13175 11.7704L1 11.7551V9.67347V7.59184Z" fill="#151515"/>
<path d="M8.03666 7.59184H1M1 7.59184V9.67347V11.7551L8.13175 11.7704L15.2635 11.7856L11.7045 14.8928L8.14507 18H11.3298H14.5142L19.2573 13.6633L24 9.32688L19.4475 5.16327L14.8949 1H11.6638H8.5M1 7.59184H15.2635L8.5 1M8.433 1H8.5" stroke="white" stroke-width="1.4"/>
</svg>
