<svg width="751" height="108" viewBox="0 0 751 108" fill="none" xmlns="http://www.w3.org/2000/svg">
<path d="M0.64 84V75H12.4V9H0.64V-5.72205e-06H33.4C44.44 -5.72205e-06 52.96 2.79999 58.96 8.39999C65.04 14 68.08 22.6 68.08 34.2V49.8C68.08 61.48 65.04 70.12 58.96 75.72C52.96 81.24 44.44 84 33.4 84H0.64ZM22.48 74.88H33.4C41.56 74.88 47.72 72.88 51.88 68.88C56.04 64.88 58.12 58.68 58.12 50.28V33.84C58.12 25.28 56.04 19.04 51.88 15.12C47.72 11.2 41.56 9.24 33.4 9.24H22.48V74.88ZM109.01 85.68C103.09 85.68 97.8903 84.44 93.4103 81.96C88.9303 79.4 85.4503 75.84 82.9703 71.28C80.4903 66.72 79.2503 61.44 79.2503 55.44V54C79.2503 47.92 80.4903 42.6 82.9703 38.04C85.4503 33.48 88.8903 29.96 93.2903 27.48C97.6903 24.92 102.73 23.64 108.41 23.64C113.93 23.64 118.81 24.84 123.05 27.24C127.29 29.56 130.61 32.92 133.01 37.32C135.41 41.72 136.61 46.88 136.61 52.8V57.12H88.7303C88.9703 63.44 91.0103 68.4 94.8503 72C98.6903 75.52 103.49 77.28 109.25 77.28C114.29 77.28 118.17 76.12 120.89 73.8C123.61 71.48 125.69 68.72 127.13 65.52L135.29 69.48C134.09 71.96 132.41 74.44 130.25 76.92C128.17 79.4 125.41 81.48 121.97 83.16C118.61 84.84 114.29 85.68 109.01 85.68ZM88.8503 49.32H127.01C126.69 43.88 124.81 39.64 121.37 36.6C118.01 33.56 113.69 32.04 108.41 32.04C103.05 32.04 98.6503 33.56 95.2103 36.6C91.7703 39.64 89.6503 43.88 88.8503 49.32ZM163.165 84L142.165 25.32H152.245L169.885 76.92H171.565L189.205 25.32H199.285L178.285 84H163.165ZM234.992 85.68C229.072 85.68 223.872 84.44 219.392 81.96C214.912 79.4 211.432 75.84 208.952 71.28C206.472 66.72 205.232 61.44 205.232 55.44V54C205.232 47.92 206.472 42.6 208.952 38.04C211.432 33.48 214.872 29.96 219.272 27.48C223.672 24.92 228.712 23.64 234.392 23.64C239.912 23.64 244.792 24.84 249.032 27.24C253.272 29.56 256.592 32.92 258.992 37.32C261.392 41.72 262.592 46.88 262.592 52.8V57.12H214.712C214.952 63.44 216.992 68.4 220.832 72C224.672 75.52 229.472 77.28 235.232 77.28C240.272 77.28 244.152 76.12 246.872 73.8C249.592 71.48 251.672 68.72 253.112 65.52L261.272 69.48C260.072 71.96 258.392 74.44 256.232 76.92C254.152 79.4 251.392 81.48 247.952 83.16C244.592 84.84 240.272 85.68 234.992 85.68ZM214.832 49.32H252.992C252.672 43.88 250.792 39.64 247.352 36.6C243.992 33.56 239.672 32.04 234.392 32.04C229.032 32.04 224.632 33.56 221.192 36.6C217.752 39.64 215.632 43.88 214.832 49.32ZM276.727 84V-5.72205e-06H286.207V84H276.727ZM330.861 85.68C324.941 85.68 319.701 84.44 315.141 81.96C310.661 79.48 307.141 76 304.581 71.52C302.101 66.96 300.861 61.6 300.861 55.44V53.88C300.861 47.8 302.101 42.48 304.581 37.92C307.141 33.36 310.661 29.84 315.141 27.36C319.701 24.88 324.941 23.64 330.861 23.64C336.781 23.64 341.981 24.88 346.461 27.36C351.021 29.84 354.541 33.36 357.021 37.92C359.581 42.48 360.861 47.8 360.861 53.88V55.44C360.861 61.6 359.581 66.96 357.021 71.52C354.541 76 351.021 79.48 346.461 81.96C341.981 84.44 336.781 85.68 330.861 85.68ZM330.861 77.16C337.101 77.16 342.061 75.2 345.741 71.28C349.501 67.28 351.381 61.92 351.381 55.2V54.12C351.381 47.4 349.501 42.08 345.741 38.16C342.061 34.16 337.101 32.16 330.861 32.16C324.701 32.16 319.741 34.16 315.981 38.16C312.221 42.08 310.341 47.4 310.341 54.12V55.2C310.341 61.92 312.221 67.28 315.981 71.28C319.741 75.2 324.701 77.16 330.861 77.16ZM375.521 108V25.32H384.761V35.04H386.441C387.961 32.08 390.401 29.44 393.761 27.12C397.201 24.8 401.961 23.64 408.041 23.64C413.081 23.64 417.681 24.88 421.841 27.36C426.081 29.76 429.441 33.2 431.921 37.68C434.481 42.16 435.761 47.56 435.761 53.88V55.44C435.761 61.68 434.521 67.08 432.041 71.64C429.561 76.2 426.201 79.68 421.961 82.08C417.801 84.48 413.161 85.68 408.041 85.68C403.961 85.68 400.481 85.12 397.601 84C394.801 82.96 392.521 81.6 390.761 79.92C389.001 78.24 387.641 76.52 386.681 74.76H385.001V108H375.521ZM405.521 77.28C411.601 77.28 416.521 75.36 420.281 71.52C424.121 67.6 426.041 62.16 426.041 55.2V54.12C426.041 47.16 424.121 41.76 420.281 37.92C416.521 34 411.601 32.04 405.521 32.04C399.521 32.04 394.561 34 390.641 37.92C386.801 41.76 384.881 47.16 384.881 54.12V55.2C384.881 62.16 386.801 67.6 390.641 71.52C394.561 75.36 399.521 77.28 405.521 77.28ZM477.228 85.68C471.308 85.68 466.108 84.44 461.628 81.96C457.148 79.4 453.668 75.84 451.188 71.28C448.708 66.72 447.468 61.44 447.468 55.44V54C447.468 47.92 448.708 42.6 451.188 38.04C453.668 33.48 457.108 29.96 461.508 27.48C465.908 24.92 470.948 23.64 476.628 23.64C482.148 23.64 487.028 24.84 491.268 27.24C495.508 29.56 498.828 32.92 501.228 37.32C503.628 41.72 504.828 46.88 504.828 52.8V57.12H456.948C457.188 63.44 459.228 68.4 463.068 72C466.908 75.52 471.708 77.28 477.468 77.28C482.508 77.28 486.388 76.12 489.108 73.8C491.828 71.48 493.908 68.72 495.348 65.52L503.508 69.48C502.308 71.96 500.628 74.44 498.468 76.92C496.388 79.4 493.628 81.48 490.188 83.16C486.828 84.84 482.508 85.68 477.228 85.68ZM457.068 49.32H495.228C494.908 43.88 493.028 39.64 489.588 36.6C486.228 33.56 481.908 32.04 476.628 32.04C471.268 32.04 466.868 33.56 463.428 36.6C459.988 39.64 457.868 43.88 457.068 49.32ZM543.803 85.68C538.763 85.68 534.123 84.48 529.883 82.08C525.643 79.68 522.283 76.2 519.803 71.64C517.323 67.08 516.083 61.68 516.083 55.44V53.88C516.083 47.64 517.323 42.28 519.803 37.8C522.283 33.24 525.603 29.76 529.763 27.36C534.003 24.88 538.683 23.64 543.803 23.64C547.883 23.64 551.323 24.2 554.123 25.32C557.003 26.36 559.323 27.72 561.083 29.4C562.843 31 564.203 32.72 565.163 34.56H566.843V-5.72205e-06H576.323V84H567.083V74.28H565.403C563.803 77.24 561.323 79.88 557.963 82.2C554.603 84.52 549.883 85.68 543.803 85.68ZM546.323 77.28C552.403 77.28 557.323 75.36 561.083 71.52C564.923 67.6 566.843 62.16 566.843 55.2V54.12C566.843 47.16 564.923 41.76 561.083 37.92C557.323 34 552.403 32.04 546.323 32.04C540.323 32.04 535.363 34 531.443 37.92C527.603 41.76 525.683 47.16 525.683 54.12V55.2C525.683 62.16 527.603 67.6 531.443 71.52C535.363 75.36 540.323 77.28 546.323 77.28ZM654.73 85.68C648.65 85.68 643.89 84.52 640.45 82.2C637.09 79.88 634.65 77.24 633.13 74.28H631.45V84H622.21V-5.72205e-06H631.69V34.56H633.37C634.33 32.72 635.69 31 637.45 29.4C639.21 27.72 641.49 26.36 644.29 25.32C647.17 24.2 650.65 23.64 654.73 23.64C659.85 23.64 664.49 24.88 668.65 27.36C672.89 29.76 676.25 33.24 678.73 37.8C681.21 42.28 682.45 47.64 682.45 53.88V55.44C682.45 61.68 681.17 67.08 678.61 71.64C676.13 76.2 672.77 79.68 668.53 82.08C664.37 84.48 659.77 85.68 654.73 85.68ZM652.21 77.28C658.29 77.28 663.21 75.36 666.97 71.52C670.81 67.6 672.73 62.16 672.73 55.2V54.12C672.73 47.16 670.81 41.76 666.97 37.92C663.21 34 658.29 32.04 652.21 32.04C646.21 32.04 641.25 34 637.33 37.92C633.49 41.76 631.57 47.16 631.57 54.12V55.2C631.57 62.16 633.49 67.6 637.33 71.52C641.25 75.36 646.21 77.28 652.21 77.28ZM704.117 108V99.6H737.717C740.037 99.6 741.197 98.4 741.197 96V74.64H739.517C738.717 76.32 737.477 78 735.797 79.68C734.197 81.28 732.077 82.6 729.437 83.64C726.797 84.6 723.477 85.08 719.477 85.08C715.237 85.08 711.317 84.16 707.717 82.32C704.197 80.48 701.397 77.76 699.317 74.16C697.317 70.56 696.317 66.16 696.317 60.96V25.32H705.797V60.24C705.797 66 707.237 70.2 710.117 72.84C713.077 75.48 717.037 76.8 721.997 76.8C727.597 76.8 732.197 74.96 735.797 71.28C739.397 67.6 741.197 62.12 741.197 54.84V25.32H750.677V97.68C750.677 100.88 749.757 103.4 747.917 105.24C746.157 107.08 743.557 108 740.117 108H704.117Z" fill="black"/>
</svg>
