<svg width="28" height="28" viewBox="0 0 28 28" fill="none" xmlns="http://www.w3.org/2000/svg">
<path fill-rule="evenodd" clip-rule="evenodd" d="M2.33301 13.9999C2.33301 7.55992 7.54801 2.33325 13.988 2.33325C20.4397 2.33325 25.6663 7.55992 25.6663 13.9999C25.6663 20.4399 20.4397 25.6666 13.988 25.6666C7.54801 25.6666 2.33301 20.4399 2.33301 13.9999ZM4.66634 13.9999C4.66634 19.1566 8.84301 23.3333 13.9997 23.3333C19.1563 23.3333 23.333 19.1566 23.333 13.9999C23.333 8.84325 19.1563 4.66659 13.9997 4.66659C8.84301 4.66659 4.66634 8.84325 4.66634 13.9999ZM12.833 8.1666H14.583V14.2916L19.833 17.4066L18.958 18.8416L12.833 15.1666V8.1666Z" fill="white"/>
</svg>
