<svg width="470" height="41" viewBox="0 0 626 54" fill="none" xmlns="http://www.w3.org/2000/svg">
<path d="M0.38 42V-2.86102e-06H6.86V17.46H7.82L23.48 -2.86102e-06H31.94L12.98 20.7L32.6 42H23.9L7.82 24.18H6.86V42H0.38ZM50.1552 42.84C47.1552 42.84 44.5352 42.22 42.2952 40.98C40.0552 39.7 38.2952 37.92 37.0152 35.64C35.7752 33.32 35.1552 30.64 35.1552 27.6V26.88C35.1552 23.8 35.7752 21.12 37.0152 18.84C38.2552 16.52 39.9752 14.74 42.1752 13.5C44.4152 12.22 46.9952 11.58 49.9152 11.58C52.7552 11.58 55.2352 12.22 57.3552 13.5C59.5152 14.74 61.1952 16.48 62.3952 18.72C63.5952 20.96 64.1952 23.58 64.1952 26.58V28.92H41.4552C41.5352 31.52 42.3952 33.6 44.0352 35.16C45.7152 36.68 47.7952 37.44 50.2752 37.44C52.5952 37.44 54.3352 36.92 55.4952 35.88C56.6952 34.84 57.6152 33.64 58.2552 32.28L63.3552 34.92C62.7952 36.04 61.9752 37.22 60.8952 38.46C59.8552 39.7 58.4752 40.74 56.7552 41.58C55.0352 42.42 52.8352 42.84 50.1552 42.84ZM41.5152 24.18H57.8952C57.7352 21.94 56.9352 20.2 55.4952 18.96C54.0552 17.68 52.1752 17.04 49.8552 17.04C47.5352 17.04 45.6352 17.68 44.1552 18.96C42.7152 20.2 41.8352 21.94 41.5152 24.18ZM75.0542 54V48.6H91.5542C92.6742 48.6 93.2342 48 93.2342 46.8V37.68H92.2742C91.9142 38.48 91.3542 39.26 90.5942 40.02C89.8742 40.74 88.8942 41.34 87.6542 41.82C86.4142 42.3 84.8542 42.54 82.9742 42.54C80.7342 42.54 78.7342 42.04 76.9742 41.04C75.2142 40.04 73.8342 38.62 72.8342 36.78C71.8342 34.94 71.3342 32.76 71.3342 30.24V12.42H77.5142V29.76C77.5142 32.32 78.1542 34.22 79.4342 35.46C80.7142 36.66 82.4942 37.26 84.7742 37.26C87.2942 37.26 89.3142 36.42 90.8342 34.74C92.3942 33.06 93.1742 30.62 93.1742 27.42V12.42H99.3542V48.06C99.3542 49.86 98.8142 51.3 97.7342 52.38C96.6942 53.46 95.2542 54 93.4142 54H75.0542ZM111.73 42L106.69 12.42H112.87L116.59 37.86H117.55L122.71 12.42H132.73L137.83 37.86H138.79L142.51 12.42H148.69L143.65 42H133.27L128.17 16.62H127.21L122.11 42H111.73ZM169.518 42.84C166.558 42.84 163.918 42.24 161.598 41.04C159.318 39.8 157.518 38.04 156.198 35.76C154.878 33.48 154.218 30.78 154.218 27.66V26.76C154.218 23.64 154.878 20.96 156.198 18.72C157.518 16.44 159.318 14.68 161.598 13.44C163.918 12.2 166.558 11.58 169.518 11.58C172.478 11.58 175.118 12.2 177.438 13.44C179.758 14.68 181.578 16.44 182.898 18.72C184.218 20.96 184.878 23.64 184.878 26.76V27.66C184.878 30.78 184.218 33.48 182.898 35.76C181.578 38.04 179.758 39.8 177.438 41.04C175.118 42.24 172.478 42.84 169.518 42.84ZM169.518 37.32C172.238 37.32 174.438 36.46 176.118 34.74C177.838 32.98 178.698 30.56 178.698 27.48V26.94C178.698 23.86 177.858 21.46 176.178 19.74C174.498 17.98 172.278 17.1 169.518 17.1C166.838 17.1 164.638 17.98 162.918 19.74C161.238 21.46 160.398 23.86 160.398 26.94V27.48C160.398 30.56 161.238 32.98 162.918 34.74C164.638 36.46 166.838 37.32 169.518 37.32ZM192.572 42V12.42H198.632V15.9H199.592C200.072 14.66 200.832 13.76 201.872 13.2C202.952 12.6 204.272 12.3 205.832 12.3H209.372V17.88H205.592C203.592 17.88 201.952 18.44 200.672 19.56C199.392 20.64 198.752 22.32 198.752 24.6V42H192.572ZM226.96 42.84C224.52 42.84 222.26 42.24 220.18 41.04C218.1 39.84 216.42 38.12 215.14 35.88C213.9 33.6 213.28 30.86 213.28 27.66V26.76C213.28 23.6 213.9 20.88 215.14 18.6C216.38 16.32 218.04 14.58 220.12 13.38C222.2 12.18 224.48 11.58 226.96 11.58C228.88 11.58 230.48 11.82 231.76 12.3C233.08 12.78 234.16 13.4 235 14.16C235.84 14.88 236.48 15.64 236.92 16.44H237.88V-2.86102e-06H244.06V42H238V37.8H237.04C236.28 39.08 235.12 40.24 233.56 41.28C232.04 42.32 229.84 42.84 226.96 42.84ZM228.7 37.44C231.38 37.44 233.58 36.58 235.3 34.86C237.06 33.14 237.94 30.68 237.94 27.48V26.94C237.94 23.78 237.08 21.34 235.36 19.62C233.64 17.9 231.42 17.04 228.7 17.04C226.06 17.04 223.86 17.9 222.1 19.62C220.38 21.34 219.52 23.78 219.52 26.94V27.48C219.52 30.68 220.38 33.14 222.1 34.86C223.86 36.58 226.06 37.44 228.7 37.44ZM265.278 42.84C261.518 42.84 258.398 42 255.918 40.32C253.438 38.64 251.918 36.1 251.358 32.7L257.118 31.32C257.438 32.96 257.978 34.26 258.738 35.22C259.498 36.18 260.438 36.86 261.558 37.26C262.718 37.66 263.958 37.86 265.278 37.86C267.238 37.86 268.738 37.48 269.778 36.72C270.858 35.96 271.398 34.98 271.398 33.78C271.398 32.58 270.898 31.7 269.898 31.14C268.898 30.58 267.418 30.12 265.458 29.76L263.418 29.4C261.418 29.04 259.598 28.52 257.958 27.84C256.318 27.16 255.018 26.22 254.058 25.02C253.098 23.82 252.618 22.28 252.618 20.4C252.618 17.6 253.658 15.44 255.738 13.92C257.818 12.36 260.578 11.58 264.018 11.58C267.338 11.58 270.058 12.34 272.178 13.86C274.338 15.34 275.738 17.36 276.378 19.92L270.618 21.54C270.258 19.74 269.498 18.48 268.338 17.76C267.178 17 265.738 16.62 264.018 16.62C262.338 16.62 261.018 16.94 260.058 17.58C259.098 18.18 258.618 19.04 258.618 20.16C258.618 21.36 259.078 22.24 259.998 22.8C260.958 23.36 262.238 23.78 263.838 24.06L265.938 24.42C268.058 24.78 269.998 25.28 271.758 25.92C273.518 26.56 274.898 27.48 275.898 28.68C276.938 29.88 277.458 31.48 277.458 33.48C277.458 36.44 276.358 38.74 274.158 40.38C271.958 42.02 268.998 42.84 265.278 42.84ZM309.154 42.84C307.034 42.84 305.134 42.48 303.454 41.76C301.814 41.04 300.494 39.98 299.494 38.58C298.534 37.18 298.054 35.48 298.054 33.48C298.054 31.44 298.534 29.76 299.494 28.44C300.494 27.08 301.834 26.06 303.514 25.38C305.234 24.7 307.174 24.36 309.334 24.36H318.334V22.44C318.334 20.72 317.814 19.34 316.774 18.3C315.734 17.26 314.134 16.74 311.974 16.74C309.854 16.74 308.234 17.24 307.114 18.24C305.994 19.24 305.254 20.54 304.894 22.14L299.134 20.28C299.614 18.68 300.374 17.24 301.414 15.96C302.494 14.64 303.914 13.58 305.674 12.78C307.434 11.98 309.554 11.58 312.034 11.58C315.874 11.58 318.894 12.56 321.094 14.52C323.294 16.48 324.394 19.26 324.394 22.86V35.04C324.394 36.24 324.954 36.84 326.074 36.84H328.594V42H323.974C322.574 42 321.434 41.64 320.554 40.92C319.674 40.2 319.234 39.22 319.234 37.98V37.8H318.334C318.014 38.4 317.534 39.1 316.894 39.9C316.254 40.7 315.314 41.4 314.074 42C312.834 42.56 311.194 42.84 309.154 42.84ZM310.054 37.74C312.534 37.74 314.534 37.04 316.054 35.64C317.574 34.2 318.334 32.24 318.334 29.76V29.16H309.694C308.054 29.16 306.734 29.52 305.734 30.24C304.734 30.92 304.234 31.94 304.234 33.3C304.234 34.66 304.754 35.74 305.794 36.54C306.834 37.34 308.254 37.74 310.054 37.74ZM346.489 42.84C342.729 42.84 339.609 42 337.129 40.32C334.649 38.64 333.129 36.1 332.569 32.7L338.329 31.32C338.649 32.96 339.189 34.26 339.949 35.22C340.709 36.18 341.649 36.86 342.769 37.26C343.929 37.66 345.169 37.86 346.489 37.86C348.449 37.86 349.949 37.48 350.989 36.72C352.069 35.96 352.609 34.98 352.609 33.78C352.609 32.58 352.109 31.7 351.109 31.14C350.109 30.58 348.629 30.12 346.669 29.76L344.629 29.4C342.629 29.04 340.809 28.52 339.169 27.84C337.529 27.16 336.229 26.22 335.269 25.02C334.309 23.82 333.829 22.28 333.829 20.4C333.829 17.6 334.869 15.44 336.949 13.92C339.029 12.36 341.789 11.58 345.229 11.58C348.549 11.58 351.269 12.34 353.389 13.86C355.549 15.34 356.949 17.36 357.589 19.92L351.829 21.54C351.469 19.74 350.709 18.48 349.549 17.76C348.389 17 346.949 16.62 345.229 16.62C343.549 16.62 342.229 16.94 341.269 17.58C340.309 18.18 339.829 19.04 339.829 20.16C339.829 21.36 340.289 22.24 341.209 22.8C342.169 23.36 343.449 23.78 345.049 24.06L347.149 24.42C349.269 24.78 351.209 25.28 352.969 25.92C354.729 26.56 356.109 27.48 357.109 28.68C358.149 29.88 358.669 31.48 358.669 33.48C358.669 36.44 357.569 38.74 355.369 40.38C353.169 42.02 350.209 42.84 346.489 42.84ZM378.012 42.84C374.252 42.84 371.132 42 368.652 40.32C366.172 38.64 364.652 36.1 364.092 32.7L369.852 31.32C370.172 32.96 370.712 34.26 371.472 35.22C372.232 36.18 373.172 36.86 374.292 37.26C375.452 37.66 376.692 37.86 378.012 37.86C379.972 37.86 381.472 37.48 382.512 36.72C383.592 35.96 384.132 34.98 384.132 33.78C384.132 32.58 383.632 31.7 382.632 31.14C381.632 30.58 380.152 30.12 378.192 29.76L376.152 29.4C374.152 29.04 372.332 28.52 370.692 27.84C369.052 27.16 367.752 26.22 366.792 25.02C365.832 23.82 365.352 22.28 365.352 20.4C365.352 17.6 366.392 15.44 368.472 13.92C370.552 12.36 373.312 11.58 376.752 11.58C380.072 11.58 382.792 12.34 384.912 13.86C387.072 15.34 388.472 17.36 389.112 19.92L383.352 21.54C382.992 19.74 382.232 18.48 381.072 17.76C379.912 17 378.472 16.62 376.752 16.62C375.072 16.62 373.752 16.94 372.792 17.58C371.832 18.18 371.352 19.04 371.352 20.16C371.352 21.36 371.812 22.24 372.732 22.8C373.692 23.36 374.972 23.78 376.572 24.06L378.672 24.42C380.792 24.78 382.732 25.28 384.492 25.92C386.252 26.56 387.632 27.48 388.632 28.68C389.672 29.88 390.192 31.48 390.192 33.48C390.192 36.44 389.092 38.74 386.892 40.38C384.692 42.02 381.732 42.84 378.012 42.84ZM411.275 42.84C408.315 42.84 405.675 42.24 403.355 41.04C401.075 39.8 399.275 38.04 397.955 35.76C396.635 33.48 395.975 30.78 395.975 27.66V26.76C395.975 23.64 396.635 20.96 397.955 18.72C399.275 16.44 401.075 14.68 403.355 13.44C405.675 12.2 408.315 11.58 411.275 11.58C414.235 11.58 416.875 12.2 419.195 13.44C421.515 14.68 423.335 16.44 424.655 18.72C425.975 20.96 426.635 23.64 426.635 26.76V27.66C426.635 30.78 425.975 33.48 424.655 35.76C423.335 38.04 421.515 39.8 419.195 41.04C416.875 42.24 414.235 42.84 411.275 42.84ZM411.275 37.32C413.995 37.32 416.195 36.46 417.875 34.74C419.595 32.98 420.455 30.56 420.455 27.48V26.94C420.455 23.86 419.615 21.46 417.935 19.74C416.255 17.98 414.035 17.1 411.275 17.1C408.595 17.1 406.395 17.98 404.675 19.74C402.995 21.46 402.155 23.86 402.155 26.94V27.48C402.155 30.56 402.995 32.98 404.675 34.74C406.395 36.46 408.595 37.32 411.275 37.32ZM448.07 42.84C445.23 42.84 442.65 42.24 440.33 41.04C438.05 39.84 436.23 38.1 434.87 35.82C433.55 33.54 432.89 30.8 432.89 27.6V26.82C432.89 23.62 433.55 20.9 434.87 18.66C436.23 16.38 438.05 14.64 440.33 13.44C442.65 12.2 445.23 11.58 448.07 11.58C450.91 11.58 453.33 12.1 455.33 13.14C457.33 14.18 458.93 15.56 460.13 17.28C461.37 19 462.17 20.9 462.53 22.98L456.53 24.24C456.33 22.92 455.91 21.72 455.27 20.64C454.63 19.56 453.73 18.7 452.57 18.06C451.41 17.42 449.95 17.1 448.19 17.1C446.47 17.1 444.91 17.5 443.51 18.3C442.15 19.06 441.07 20.18 440.27 21.66C439.47 23.1 439.07 24.86 439.07 26.94V27.48C439.07 29.56 439.47 31.34 440.27 32.82C441.07 34.3 442.15 35.42 443.51 36.18C444.91 36.94 446.47 37.32 448.19 37.32C450.79 37.32 452.77 36.66 454.13 35.34C455.49 33.98 456.35 32.26 456.71 30.18L462.71 31.56C462.23 33.6 461.37 35.48 460.13 37.2C458.93 38.92 457.33 40.3 455.33 41.34C453.33 42.34 450.91 42.84 448.07 42.84ZM469.837 42V12.42H476.017V42H469.837ZM472.957 8.4C471.757 8.4 470.737 8.02 469.897 7.26C469.097 6.46 468.697 5.44 468.697 4.2C468.697 2.96 469.097 1.96 469.897 1.2C470.737 0.399998 471.757 -2.86102e-06 472.957 -2.86102e-06C474.197 -2.86102e-06 475.217 0.399998 476.017 1.2C476.817 1.96 477.217 2.96 477.217 4.2C477.217 5.44 476.817 6.46 476.017 7.26C475.217 8.02 474.197 8.4 472.957 8.4ZM494.369 42.84C492.249 42.84 490.349 42.48 488.669 41.76C487.029 41.04 485.709 39.98 484.709 38.58C483.749 37.18 483.269 35.48 483.269 33.48C483.269 31.44 483.749 29.76 484.709 28.44C485.709 27.08 487.049 26.06 488.729 25.38C490.449 24.7 492.389 24.36 494.549 24.36H503.549V22.44C503.549 20.72 503.029 19.34 501.989 18.3C500.949 17.26 499.349 16.74 497.189 16.74C495.069 16.74 493.449 17.24 492.329 18.24C491.209 19.24 490.469 20.54 490.109 22.14L484.349 20.28C484.829 18.68 485.589 17.24 486.629 15.96C487.709 14.64 489.129 13.58 490.889 12.78C492.649 11.98 494.769 11.58 497.249 11.58C501.089 11.58 504.109 12.56 506.309 14.52C508.509 16.48 509.609 19.26 509.609 22.86V35.04C509.609 36.24 510.169 36.84 511.289 36.84H513.809V42H509.189C507.789 42 506.649 41.64 505.769 40.92C504.889 40.2 504.449 39.22 504.449 37.98V37.8H503.549C503.229 38.4 502.749 39.1 502.109 39.9C501.469 40.7 500.529 41.4 499.289 42C498.049 42.56 496.409 42.84 494.369 42.84ZM495.269 37.74C497.749 37.74 499.749 37.04 501.269 35.64C502.789 34.2 503.549 32.24 503.549 29.76V29.16H494.909C493.269 29.16 491.949 29.52 490.949 30.24C489.949 30.92 489.449 31.94 489.449 33.3C489.449 34.66 489.969 35.74 491.009 36.54C492.049 37.34 493.469 37.74 495.269 37.74ZM528.867 42C527.067 42 525.627 41.46 524.547 40.38C523.507 39.3 522.987 37.86 522.987 36.06V17.64H514.827V12.42H522.987V2.64H529.167V12.42H537.987V17.64H529.167V34.98C529.167 36.18 529.727 36.78 530.847 36.78H537.027V42H528.867ZM545.248 42V12.42H551.428V42H545.248ZM548.368 8.4C547.168 8.4 546.148 8.02 545.308 7.26C544.508 6.46 544.108 5.44 544.108 4.2C544.108 2.96 544.508 1.96 545.308 1.2C546.148 0.399998 547.168 -2.86102e-06 548.368 -2.86102e-06C549.608 -2.86102e-06 550.628 0.399998 551.428 1.2C552.228 1.96 552.628 2.96 552.628 4.2C552.628 5.44 552.228 6.46 551.428 7.26C550.628 8.02 549.608 8.4 548.368 8.4ZM574.459 42.84C571.499 42.84 568.859 42.24 566.539 41.04C564.259 39.8 562.459 38.04 561.139 35.76C559.819 33.48 559.159 30.78 559.159 27.66V26.76C559.159 23.64 559.819 20.96 561.139 18.72C562.459 16.44 564.259 14.68 566.539 13.44C568.859 12.2 571.499 11.58 574.459 11.58C577.419 11.58 580.059 12.2 582.379 13.44C584.699 14.68 586.519 16.44 587.839 18.72C589.159 20.96 589.819 23.64 589.819 26.76V27.66C589.819 30.78 589.159 33.48 587.839 35.76C586.519 38.04 584.699 39.8 582.379 41.04C580.059 42.24 577.419 42.84 574.459 42.84ZM574.459 37.32C577.179 37.32 579.379 36.46 581.059 34.74C582.779 32.98 583.639 30.56 583.639 27.48V26.94C583.639 23.86 582.799 21.46 581.119 19.74C579.439 17.98 577.219 17.1 574.459 17.1C571.779 17.1 569.579 17.98 567.859 19.74C566.179 21.46 565.339 23.86 565.339 26.94V27.48C565.339 30.56 566.179 32.98 567.859 34.74C569.579 36.46 571.779 37.32 574.459 37.32ZM597.513 42V12.42H603.573V16.86H604.533C605.093 15.66 606.093 14.54 607.533 13.5C608.973 12.46 611.113 11.94 613.953 11.94C616.193 11.94 618.173 12.44 619.893 13.44C621.653 14.44 623.033 15.86 624.033 17.7C625.033 19.5 625.533 21.68 625.533 24.24V42H619.353V24.72C619.353 22.16 618.713 20.28 617.433 19.08C616.153 17.84 614.393 17.22 612.153 17.22C609.593 17.22 607.533 18.06 605.973 19.74C604.453 21.42 603.693 23.86 603.693 27.06V42H597.513Z" fill="black"/>
</svg>
