<svg width="163" height="32" viewBox="0 0 217 42" fill="none" xmlns="http://www.w3.org/2000/svg">
<path d="M11.64 1.228C13.4587 3.604 15.1307 6.09733 16.656 8.708L13.796 10.16C12.1827 7.28533 10.496 4.77733 8.736 2.636L11.64 1.228ZM31.22 1.668C30.164 4.86533 28.844 7.71067 27.26 10.204H36.324V13.284H21.628V15.352C21.54 17.7867 21.3347 19.8253 21.012 21.468H38.876V24.548H22.86C25.0307 30.5027 30.7213 35.1227 39.932 38.408L38.084 41.356C28.4333 37.4547 22.42 32.1453 20.044 25.428C19.1933 27.98 18.0787 30.18 16.7 32.028C13.6787 35.9293 8.79467 38.9507 2.048 41.092L0.332 38.32C7.07867 36.1493 11.772 33.304 14.412 29.784C15.4973 28.1707 16.3333 26.4253 16.92 24.548H1.124V21.468H17.712C18.1227 19.532 18.3427 17.4933 18.372 15.352V13.284H3.632V10.204H23.74C25.3533 7.74 26.8347 4.616 28.184 0.831999L31.22 1.668ZM46.268 16.848L45.96 17.508L43.496 15.924C45.5493 11.4067 47.06 6.34667 48.028 0.743997L51.02 1.36L50.008 6.024H56.696V9.06H49.172C48.6147 10.9373 47.9253 12.9027 47.104 14.956H56.564V17.772H52.692V23.184H57.224V26.088H52.692V36.208C54.3053 35.328 55.7867 34.3307 57.136 33.216L57.664 35.944C55.4053 37.6453 52.824 39.0387 49.92 40.124L48.644 37.484C49.436 37.1613 49.832 36.7067 49.832 36.12V26.088H44.904V23.184H49.832V17.772H46.268V16.848ZM81.6 19.532H75.484V22.92H82.084V25.428H75.484V28.904H83.184V31.544H75.484V35.856H72.624V31.544H66.728V28.904H72.624V25.428H67.828V22.92H72.624V19.532H68.268V16.98H72.624V13.416H66.772V10.864H72.624V7.124H68.268V4.572H72.624V1.316H75.484V4.572H81.6V10.864H83.668V13.416H81.6V19.532ZM75.484 7.124V10.864H78.916V7.124H75.484ZM75.484 13.416V16.98H78.916V13.416H75.484ZM77.332 37.792C79.6787 37.792 81.996 37.7333 84.284 37.616L83.712 40.652H78.916C72.3747 40.564 67.96 39.772 65.672 38.276C64.616 37.6013 63.692 36.8093 62.9 35.9C61.9907 37.836 60.8173 39.5813 59.38 41.136L57.224 39.024C58.7787 37.3813 60.0253 35.4893 60.964 33.348C59.4093 30.8547 58.192 27.7747 57.312 24.108L59.688 23.228C60.2453 25.7507 61.0667 28.0533 62.152 30.136C63.032 27.144 63.56 23.712 63.736 19.84H58.5V17.64C60.348 14.5307 61.9467 11.2893 63.296 7.916H58.192V5.188H66.156V7.784C64.66 11.48 63.1933 14.6333 61.756 17.244H66.288V18.96C66.2 24.4453 65.4667 29.1387 64.088 33.04C65.2027 34.3893 66.4933 35.416 67.96 36.12C69.8667 37.0587 72.9907 37.616 77.332 37.792ZM116.668 41.224L115.876 38.188L121.068 38.276C122.535 38.276 123.268 37.484 123.268 35.9V5.892H102.236V2.9H126.392V36.824C126.392 39.7573 124.837 41.224 121.728 41.224H116.668ZM103.248 11.084H120.232V14.12H103.248V11.084ZM104.832 18.916H118.472V32.556H104.832V18.916ZM115.48 29.784V21.688H107.912V29.784H115.48ZM93.128 1.492C96.1493 3.75067 98.6573 6.00933 100.652 8.268L98.496 10.468C96.6773 8.32666 94.1547 6.05333 90.928 3.648L93.128 1.492ZM87.936 14.516H97.352V33.788C98.4667 32.732 99.8453 31.368 101.488 29.696L102.324 33.084C99.8893 35.6067 97.308 37.836 94.58 39.772L93.348 36.956C93.9933 36.3693 94.316 35.7387 94.316 35.064V17.552H87.936V14.516ZM150.24 10.644H161.196C162.897 7.62267 164.335 4.45467 165.508 1.14L168.412 2.24C167.063 5.64267 165.713 8.444 164.364 10.644H170.92V13.636H161.9V14.956C161.9 17.0093 161.783 19.092 161.548 21.204H171.668V24.24H162.56C163.616 29.08 166.872 34.008 172.328 39.024L170.128 41.356C165.083 36.34 161.915 31.3827 160.624 26.484C158.923 33.26 155.549 38.276 150.504 41.532L148.612 39.024C153.569 36.032 156.723 31.104 158.072 24.24H149.58V21.204H158.512C158.717 19.268 158.835 17.42 158.864 15.66V13.636H150.24V10.644ZM154.596 1.404C156.356 3.98533 157.72 6.27333 158.688 8.268L156.312 9.896C155.315 7.81333 153.936 5.496 152.176 2.944L154.596 1.404ZM132.024 2.856H149.536V5.804H146.676V29.96C147.351 29.7253 148.333 29.4027 149.624 28.992V32.072C148.509 32.424 147.527 32.7173 146.676 32.952V41.62H143.64V33.788C139.563 34.8147 135.925 35.6213 132.728 36.208L131.936 33.216L134.708 32.776V5.804H132.024V2.856ZM137.744 32.204C140.003 31.7053 141.968 31.2507 143.64 30.84V24.328H137.744V32.204ZM137.744 21.424H143.64V15.132H137.744V21.424ZM137.744 12.272H143.64V5.804H137.744V12.272ZM195.78 2.812H212.676V24.636H195.78V2.812ZM209.596 21.82V18.124H198.86V21.82H209.596ZM198.86 15.528H209.596V11.964H198.86V15.528ZM198.86 9.324H209.596V5.628H198.86V9.324ZM187.024 25.296H183.856V13.504C181.949 17.0533 179.603 20.3093 176.816 23.272L175.628 20.28C179.06 17.2 181.773 13.5627 183.768 9.368H176.596V6.464H183.856V1.58H187.024V6.464H192.876V9.368H187.024V11.436C189.195 12.9907 191.527 14.824 194.02 16.936L192.26 19.576C190.295 17.3467 188.549 15.5427 187.024 14.164V25.296ZM183.636 28.464C182.492 32.7467 180.908 36.4133 178.884 39.464L176.156 37.748C178.18 34.756 179.632 31.4413 180.512 27.804L183.636 28.464ZM190.896 40.476C188.08 40.476 186.672 39.0093 186.672 36.076V27.232H189.884V35.416C189.884 36.736 190.544 37.396 191.864 37.396H201.324C202.263 37.396 202.967 37.1613 203.436 36.692C203.993 36.076 204.36 34.4187 204.536 31.72L207.528 32.732C207.205 36.3987 206.575 38.6427 205.636 39.464C204.815 40.1387 203.568 40.476 201.896 40.476H190.896ZM195.736 26.396C197.907 28.7133 199.549 30.6787 200.664 32.292L198.156 34.052C196.865 32.0867 195.237 30.048 193.272 27.936L195.736 26.396ZM209.464 26.616C212.397 30.3413 214.656 33.612 216.24 36.428L213.556 38.32C211.884 35.2693 209.669 31.9107 206.912 28.244L209.464 26.616Z" fill="black"/>
</svg>

