<svg width="28" height="28" viewBox="0 0 28 28" fill="none" xmlns="http://www.w3.org/2000/svg">
<g clip-path="url(#clip0_35_122)">
<path d="M7.31819 20.6821C5.90751 19.2714 5.90751 16.9781 7.31819 15.5674L10.618 12.2676L9.0506 10.7001L5.75077 14C3.47388 16.2769 3.47388 19.9727 5.75077 22.2495C8.02765 24.5264 11.7235 24.5264 14.0003 22.2495L17.3002 18.9497L15.7328 17.3823L12.4329 20.6821C11.0222 22.0928 8.72886 22.0928 7.31819 20.6821ZM11.5255 18.1248L18.1251 11.5251L16.4752 9.87518L9.87556 16.4748L11.5255 18.1248ZM14.0003 5.75039L10.7005 9.05022L12.2679 10.6176L15.5678 7.31781C16.9784 5.90713 19.2718 5.90713 20.6825 7.31781C22.0932 8.72848 22.0932 11.0219 20.6825 12.4325L17.3827 15.7324L18.9501 17.2998L22.2499 14C24.5268 11.7231 24.5268 8.02727 22.2499 5.75039C19.973 3.4735 16.2772 3.4735 14.0003 5.75039Z" fill="#151515"/>
</g>
<defs>
<clipPath id="clip0_35_122">
<rect width="28" height="28" fill="white"/>
</clipPath>
</defs>
</svg>
