<svg width="28" height="29" viewBox="0 0 28 29" fill="none" xmlns="http://www.w3.org/2000/svg">
<g clip-path="url(#clip0_176_261)">
<path fill-rule="evenodd" clip-rule="evenodd" d="M14.0002 4.33337C9.48516 4.33337 5.8335 7.98504 5.8335 12.5C5.8335 15.53 6.50032 17.4999 9.00032 19.9999C10.0003 20.9999 14.0002 24.6667 14.0002 24.6667C14.0002 24.6667 18 20.9999 19 19.9999C21.5 17.4999 22.1668 15.53 22.1668 12.5C22.1668 7.98504 18.5152 4.33337 14.0002 4.33337ZM14.0002 9.87504C12.3902 9.87504 11.0835 11.1817 11.0835 12.7917C11.0835 14.4017 12.3902 15.7084 14.0002 15.7084C15.6102 15.7084 16.9168 14.4017 16.9168 12.7917C16.9168 11.1817 15.6102 9.87504 14.0002 9.87504Z" fill="#151515"/>
</g>
<defs>
<clipPath id="clip0_176_261">
<rect width="28" height="28" fill="white" transform="translate(0 0.5)"/>
</clipPath>
</defs>
</svg>
