<svg width="148" height="40" viewBox="0 0 148 40" fill="none" xmlns="http://www.w3.org/2000/svg">
<g clip-path="url(#clip0_4_741)">
<rect width="148" height="40" fill="white"/>
<g clip-path="url(#clip1_4_741)">
<rect width="40" height="40" fill="white"/>
<rect width="40" height="40" fill="white"/>
<path fill-rule="evenodd" clip-rule="evenodd" d="M26.8473 33C24.7867 33 22.8832 31.9957 21.6584 30.3908C21.6261 30.3486 21.5943 30.306 21.563 30.263C21.3239 30.3574 21.0803 30.4406 20.8329 30.5125L20.8333 30.5124L20.7361 30.1896L20.8329 30.5125C20.079 30.7325 19.2895 30.8473 18.4844 30.8473L18.4743 30.8473L18.4741 30.5405C18.4741 30.5405 18.474 30.5405 18.474 30.5405L18.4738 30.8473L18.4611 30.8473C18.0503 30.8473 17.6462 30.8174 17.2511 30.7596C17.0153 30.782 16.7773 30.7933 16.5379 30.7933L16.5278 30.7933L16.5152 30.7933C13.4689 30.7933 10.8192 28.9532 9.55902 26.2973C9.40374 26.3077 9.24665 26.313 9.08732 26.313C8.55089 26.313 8.02826 26.2542 7.52575 26.1427C7.46533 26.1444 7.4046 26.1453 7.34353 26.1453C3.70222 26.1453 0.743652 23.0935 0.743652 19.3375C0.743652 17.5769 1.40364 15.8867 2.58707 14.619C2.49604 14.2434 2.45052 13.8443 2.45052 13.4687C2.45052 10.6752 4.63531 8.42157 7.34353 8.42157C7.55799 8.42157 7.7584 8.43605 7.96683 8.465C8.03798 8.45012 8.10966 8.43663 8.18184 8.42457C8.87045 7.33717 10.0328 6.66094 11.3262 6.66094C11.6098 6.66094 11.8886 6.69094 12.158 6.75095C12.4795 6.67309 12.8145 6.63221 13.1578 6.63221C13.2443 6.63221 13.3304 6.63463 13.4161 6.63946C14.0995 5.91762 15.0543 5.48718 16.1054 5.48718C16.419 5.48718 16.7291 5.5272 17.0287 5.60582C17.3539 5.52802 17.6935 5.48718 18.0424 5.48718C18.4871 5.48718 18.926 5.55627 19.343 5.6916C19.7199 5.55938 20.1173 5.48718 20.5205 5.48718C20.8543 5.48718 21.1881 5.53394 21.5096 5.62428C21.8476 5.53514 22.1986 5.48718 22.5548 5.48718C23.1479 5.48718 23.7417 5.61362 24.281 5.85438C24.4819 5.82886 24.6851 5.81583 24.8901 5.81583C25.233 5.81583 25.5693 5.85284 25.895 5.92373C26.2622 5.84742 26.6384 5.80779 27.0208 5.80779C29.0595 5.80779 30.8815 6.95031 31.7977 8.70571C33.9655 9.39838 35.689 11.1021 36.3837 13.2609C38.6043 14.7732 39.9231 17.2487 39.9231 19.9306C39.9231 22.7409 38.4764 25.2994 36.111 26.7936C35.9052 28.4133 35.1424 29.8689 34.0208 30.9622C32.7316 32.219 30.9651 33 29.0211 33C28.6431 33 28.2701 32.97 27.9048 32.912C27.5603 32.9699 27.207 33 26.8473 33Z" fill="url(#paint0_linear_4_741)"/>
<path d="M26.1037 30.7692C23.623 30.7692 21.37 29.3531 20.2548 27.2061C18.9576 28.1197 17.41 28.6222 15.7942 28.6222C12.6081 28.6222 9.78603 26.6808 8.62536 23.78C7.96538 23.9856 7.30539 24.0998 6.59988 24.0998C2.95857 24.0998 0 21.1305 0 17.476C0 15.7629 0.659988 14.1184 1.84342 12.885C1.75238 12.5196 1.70687 12.1313 1.70687 11.7658C1.70687 9.04778 3.89165 6.85508 6.59988 6.85508C6.87298 6.85508 7.12332 6.87792 7.39642 6.9236C8.07917 5.82725 9.26259 5.14203 10.5826 5.14203C11.197 5.14203 11.7888 5.27908 12.3122 5.55316C12.9949 4.59386 14.1101 4 15.3618 4C16.1583 4 16.9321 4.25125 17.5693 4.7309C18.2066 4.27409 18.9804 4 19.7769 4C20.5962 4 21.4155 4.27409 22.0527 4.77658C22.7127 4.47965 23.4182 4.31977 24.1465 4.31977C26.0582 4.31977 27.765 5.43896 28.5843 7.15201C30.7008 7.79155 32.3849 9.48175 33.0222 11.6288C35.1614 13.0677 36.4359 15.466 36.4359 18.0698C36.4359 20.8107 35.0249 23.3003 32.7263 24.7165C32.3849 28.0969 29.5402 30.7692 26.1037 30.7692ZM20.6189 24.785C20.6872 24.785 20.7782 24.785 20.8465 24.8078C21.1651 24.8992 21.4155 25.1276 21.4838 25.4474C22.0527 27.503 23.9416 28.942 26.0809 28.942C28.7209 28.942 30.8601 26.795 30.8601 24.1683V24.1454C30.8601 23.8028 31.0422 23.4831 31.3608 23.3232C33.3408 22.2954 34.5697 20.2854 34.5697 18.047C34.5697 15.9457 33.5001 14.0499 31.7249 12.9764C31.5201 12.8393 31.3608 12.6338 31.3153 12.4054C30.9057 10.6238 29.4719 9.20767 27.6967 8.79653C27.3781 8.72801 27.1278 8.49961 27.0368 8.20268C26.6044 6.96928 25.4437 6.12418 24.1465 6.12418C23.532 6.12418 22.9403 6.3069 22.4396 6.64951C22.0527 6.90076 21.552 6.83224 21.2562 6.48963C20.892 6.05566 20.3458 5.82725 19.7996 5.82725C19.2079 5.82725 18.6617 6.0785 18.2976 6.55815C18.1155 6.76372 17.8652 6.90076 17.5921 6.90076C17.319 6.90076 17.0687 6.78656 16.8866 6.55815C16.5225 6.10134 15.9763 5.82725 15.3846 5.82725C14.5425 5.82725 13.7687 6.39827 13.5411 7.19769C13.4501 7.51746 13.1998 7.74586 12.8811 7.81439C12.5625 7.88291 12.2439 7.79155 12.0163 7.56314C11.6522 7.17485 11.1515 6.96928 10.6281 6.96928C9.80879 6.96928 9.05777 7.49462 8.80743 8.29404C8.73915 8.52245 8.55709 8.70517 8.35226 8.81938C8.12468 8.93358 7.87434 8.93358 7.64676 8.86506C7.32814 8.75085 6.98677 8.70517 6.6454 8.70517C4.96129 8.70517 3.57304 10.0985 3.57304 11.7887C3.57304 12.1541 3.64131 12.5196 3.77786 12.8622C3.91441 13.2276 3.80062 13.6159 3.52752 13.8672C2.48065 14.7808 1.88893 16.1055 1.88893 17.4988C1.88893 20.1483 4.0282 22.2954 6.66816 22.2954C7.41918 22.2954 8.1702 22.1126 8.83019 21.77C9.08053 21.633 9.37638 21.633 9.62672 21.7472C9.87706 21.8614 10.0591 22.0898 10.1274 22.3639C10.7874 24.9905 13.1542 26.8178 15.8625 26.8178C17.4556 26.8178 18.9348 26.2011 20.05 25.0591C20.141 24.8763 20.3686 24.785 20.6189 24.785Z" fill="white"/>
<path d="M26.2929 30.7693C23.4347 30.7693 20.8867 28.8033 20.1113 26.0011C19.9783 25.5266 20.2442 25.0294 20.7316 24.8938C21.1969 24.7583 21.6843 25.0294 21.8173 25.5266C22.3712 27.5604 24.2102 28.984 26.2929 28.984C28.863 28.984 30.9457 26.8599 30.9457 24.2385C30.9457 22.7471 30.281 21.3912 29.1289 20.4873C28.7522 20.1709 28.6636 19.606 28.9738 19.2218C29.284 18.8376 29.8379 18.7473 30.2145 19.0636C31.8098 20.3065 32.7182 22.2047 32.7182 24.2611C32.7182 27.8316 29.8157 30.7693 26.2929 30.7693Z" fill="white"/>
<path d="M15.7853 29.2821C11.4659 29.2821 7.93181 25.65 7.93181 21.2108C7.93181 19.5965 8.39378 18.0298 9.27153 16.7004C9.54871 16.2731 10.1262 16.1544 10.565 16.4392C10.9808 16.7241 11.0963 17.3176 10.8191 17.7686C10.1493 18.7894 9.80279 19.9764 9.80279 21.2108C9.80279 24.6055 12.5053 27.3829 15.8084 27.3829C17.4253 27.3829 18.9267 26.742 20.0586 25.555C20.4281 25.1752 21.0056 25.1752 21.3752 25.555C21.7448 25.9348 21.7448 26.5283 21.3752 26.9081C19.8738 28.4512 17.8873 29.2821 15.7853 29.2821ZM4.8828 16.5342C4.7673 16.5342 4.65181 16.5105 4.51322 16.463C2.66533 15.6559 1.4873 13.828 1.4873 11.7627C1.4873 8.93771 3.70477 6.65877 6.4535 6.65877C6.93857 6.65877 7.42364 6.72999 7.86251 6.87242C8.34758 7.01485 8.62476 7.56085 8.48617 8.05937C8.34758 8.55789 7.81631 8.84276 7.33124 8.70032C7.05406 8.60537 6.75378 8.55789 6.4304 8.55789C4.72111 8.55789 3.31209 10.006 3.31209 11.7627C3.31209 13.0446 4.05125 14.2078 5.20618 14.7063C5.66815 14.9199 5.89913 15.4659 5.69125 15.9407C5.57575 16.3205 5.22927 16.5342 4.8828 16.5342ZM20.2203 10.0534C19.7121 10.0534 19.2963 9.62615 19.2963 9.10389C19.2963 6.27894 21.5138 4 24.2625 4C26.3645 4 28.2586 5.37686 28.9515 7.41842C29.1132 7.91694 28.8591 8.46293 28.374 8.62911C27.889 8.79528 27.3577 8.53415 27.196 8.03563C26.7571 6.75373 25.5791 5.87538 24.2394 5.87538C22.5301 5.87538 21.1211 7.32346 21.1211 9.08015C21.1442 9.64989 20.7284 10.0534 20.2203 10.0534ZM22.1374 18.7657C21.3059 18.7657 20.4743 18.552 19.7352 18.101C17.9104 17.0327 16.9634 14.8962 17.3791 12.7597C17.4715 12.2374 17.9566 11.9051 18.4648 12.0238C18.9729 12.1187 19.2963 12.6173 19.1808 13.1395C18.9267 14.4452 19.5042 15.7983 20.6591 16.463C22.1143 17.3176 23.9622 16.7953 24.7938 15.2998C25.0479 14.8487 25.6022 14.6826 26.0642 14.9437C26.5031 15.2048 26.6648 15.7746 26.4107 16.2493C25.7639 17.4125 24.7245 18.2434 23.4541 18.5995C23.0152 18.7182 22.5763 18.7657 22.1374 18.7657Z" fill="white"/>
</g>
<path d="M61.416 31.72C58.344 31.72 56.664 29.536 56.376 25.168H50.184C49.704 26.272 49.296 27.304 48.96 28.264L48.024 31H42.984L54.324 7.24H62.064L63.576 24.736C63.816 27.256 64.416 28.888 65.376 29.632C64.68 31.024 63.36 31.72 61.416 31.72ZM51.3 22.54H56.268L55.836 13.288V12.316L53.28 17.968L51.3 22.54ZM76.1192 29.02C75.3752 30.82 73.8152 31.72 71.4392 31.72C70.2152 31.72 69.2192 31.3 68.4512 30.46C67.8032 29.716 67.4792 28.972 67.4792 28.228C67.4792 26.284 67.9232 23.416 68.8112 19.624L70.1432 12.64L77.4512 11.92L75.2552 23.296C74.8472 25.072 74.6432 26.272 74.6432 26.896C74.6432 28.264 75.1352 28.972 76.1192 29.02ZM70.7912 7.636C70.7912 6.7 71.1752 5.98 71.9432 5.476C72.7352 4.972 73.6952 4.72 74.8232 4.72C75.9512 4.72 76.8512 4.972 77.5232 5.476C78.2192 5.98 78.5672 6.7 78.5672 7.636C78.5672 8.572 78.1832 9.28 77.4152 9.76C76.6712 10.24 75.7352 10.48 74.6072 10.48C73.4792 10.48 72.5552 10.24 71.8352 9.76C71.1392 9.28 70.7912 8.572 70.7912 7.636ZM90.5262 11.92C91.3902 11.92 92.1582 12.016 92.8302 12.208C92.8542 12.112 92.8902 11.932 92.9382 11.668L93.1182 10.552C93.2142 10.072 93.3342 9.436 93.4782 8.644L94.0542 5.8L101.218 5.08L97.2222 25.96C97.1982 26.104 97.1862 26.296 97.1862 26.536V27.112C97.1862 27.64 97.3182 28.108 97.5822 28.516C97.8462 28.9 98.1942 29.092 98.6262 29.092C98.1462 30.22 97.1742 31.024 95.7102 31.504C95.2062 31.648 94.5942 31.72 93.8742 31.72C93.1782 31.72 92.5062 31.528 91.8582 31.144C91.2102 30.784 90.7902 30.292 90.5982 29.668C90.2142 30.292 89.6382 30.784 88.8702 31.144C88.1022 31.528 87.1542 31.72 86.0262 31.72C84.9222 31.72 83.9022 31.576 82.9662 31.288C82.0542 31 81.3102 30.544 80.7342 29.92C79.6782 28.696 79.1502 26.692 79.1502 23.908C79.1502 20.308 80.2062 17.416 82.3182 15.232C84.4302 13.024 87.1662 11.92 90.5262 11.92ZM90.2742 14.08C89.3862 14.08 88.7022 14.56 88.2222 15.52C87.7422 16.48 87.2502 18.148 86.7462 20.524C86.2662 22.9 86.0262 25.156 86.0262 27.292C86.0262 28.756 86.4582 29.488 87.3222 29.488C88.0902 29.488 88.7382 29.104 89.2662 28.336C89.8182 27.568 90.2022 26.548 90.4182 25.276L92.3622 14.728C91.8582 14.296 91.1622 14.08 90.2742 14.08ZM116.266 24.916C116.866 25.324 117.166 25.984 117.166 26.896C117.166 27.784 116.938 28.516 116.482 29.092C116.026 29.668 115.426 30.148 114.682 30.532C113.146 31.324 111.55 31.72 109.894 31.72C108.238 31.72 106.918 31.54 105.934 31.18C104.974 30.82 104.17 30.304 103.522 29.632C102.25 28.36 101.614 26.56 101.614 24.232C101.614 20.608 102.598 17.692 104.566 15.484C106.678 13.108 109.57 11.92 113.242 11.92C115.522 11.92 117.226 12.4 118.354 13.36C119.194 14.08 119.614 15.028 119.614 16.204C119.614 20.428 115.966 22.54 108.67 22.54C108.574 23.164 108.526 23.74 108.526 24.268C108.526 25.372 108.766 26.14 109.246 26.572C109.75 26.98 110.458 27.184 111.37 27.184C112.282 27.184 113.218 26.98 114.178 26.572C115.162 26.14 115.858 25.588 116.266 24.916ZM108.922 20.992C110.626 20.992 111.97 20.464 112.954 19.408C113.938 18.4 114.43 17.092 114.43 15.484C114.43 14.932 114.322 14.512 114.106 14.224C113.914 13.912 113.614 13.756 113.206 13.756C112.798 13.756 112.414 13.84 112.054 14.008C111.718 14.152 111.37 14.488 111.01 15.016C110.122 16.216 109.426 18.208 108.922 20.992ZM122.394 29.92C121.842 29.296 121.434 28.492 121.17 27.508C120.93 26.524 120.81 25.228 120.81 23.62C120.81 22.012 121.086 20.476 121.638 19.012C122.19 17.548 122.97 16.288 123.978 15.232C126.042 13.024 128.778 11.92 132.186 11.92C133.41 11.92 134.466 12.124 135.354 12.532L141.51 11.92L138.846 25.96C138.774 26.248 138.738 26.656 138.738 27.184C138.738 27.712 138.894 28.144 139.206 28.48C139.542 28.816 139.95 29.008 140.43 29.056C140.19 29.872 139.626 30.52 138.738 31C137.874 31.48 136.95 31.72 135.966 31.72C134.982 31.72 134.154 31.528 133.482 31.144C132.834 30.784 132.414 30.292 132.222 29.668C131.838 30.268 131.238 30.76 130.422 31.144C129.606 31.528 128.646 31.72 127.542 31.72C126.462 31.72 125.478 31.576 124.59 31.288C123.702 31 122.97 30.544 122.394 29.92ZM129.99 15.304C129.726 15.736 129.474 16.324 129.234 17.068C128.994 17.788 128.67 19.132 128.262 21.1C127.878 23.044 127.686 24.712 127.686 26.104C127.686 27.496 127.794 28.396 128.01 28.804C128.226 29.212 128.526 29.416 128.91 29.416C129.678 29.416 130.338 29.056 130.89 28.336C131.466 27.592 131.862 26.572 132.078 25.276L133.986 14.728C133.482 14.296 132.93 14.08 132.33 14.08C131.754 14.08 131.286 14.176 130.926 14.368C130.59 14.56 130.278 14.872 129.99 15.304Z" fill="url(#paint1_linear_4_741)"/>
</g>
<defs>
<linearGradient id="paint0_linear_4_741" x1="6" y1="9" x2="36" y2="30.5" gradientUnits="userSpaceOnUse">
<stop stop-color="#846DEB"/>
<stop offset="1" stop-color="#4F27FF"/>
</linearGradient>
<linearGradient id="paint1_linear_4_741" x1="48.5" y1="8" x2="143" y2="31" gradientUnits="userSpaceOnUse">
<stop stop-color="#2B0AFF"/>
<stop offset="0.913569" stop-color="#151515"/>
</linearGradient>
<clipPath id="clip0_4_741">
<rect width="148" height="40" fill="white"/>
</clipPath>
<clipPath id="clip1_4_741">
<rect width="40" height="40" fill="white"/>
</clipPath>
</defs>
</svg>
