<svg width="179" height="48" viewBox="0 0 179 48" fill="none" xmlns="http://www.w3.org/2000/svg">
<path fill-rule="evenodd" clip-rule="evenodd" d="M30.8473 37.0001C28.7867 37.0001 26.8832 35.9958 25.6584 34.3909C25.6261 34.3487 25.5943 34.3061 25.563 34.2631C25.3239 34.3575 25.0803 34.4407 24.8329 34.5126L24.8333 34.5125L24.7361 34.1897L24.8329 34.5126C24.079 34.7326 23.2895 34.8475 22.4844 34.8475L22.4743 34.8475L22.4741 34.5406C22.4741 34.5406 22.474 34.5406 22.474 34.5406L22.4738 34.8475L22.4611 34.8475C22.0503 34.8475 21.6462 34.8175 21.2511 34.7597C21.0153 34.7821 20.7773 34.7935 20.5379 34.7935L20.5278 34.7935L20.5152 34.7935C17.4689 34.7935 14.8192 32.9533 13.559 30.2974C13.4037 30.3078 13.2466 30.3131 13.0873 30.3131C12.5509 30.3131 12.0283 30.2543 11.5258 30.1428C11.4653 30.1445 11.4046 30.1454 11.3435 30.1454C7.70222 30.1454 4.74365 27.0936 4.74365 23.3376C4.74365 21.577 5.40364 19.8868 6.58707 18.6191C6.49604 18.2435 6.45052 17.8444 6.45052 17.4688C6.45052 14.6753 8.63531 12.4217 11.3435 12.4217C11.558 12.4217 11.7584 12.4362 11.9668 12.4651C12.038 12.4502 12.1097 12.4368 12.1818 12.4247C12.8704 11.3373 14.0328 10.6611 15.3262 10.6611C15.6098 10.6611 15.8886 10.6911 16.158 10.7511C16.4795 10.6732 16.8145 10.6323 17.1578 10.6323C17.2443 10.6323 17.3304 10.6347 17.4161 10.6396C18.0995 9.91774 19.0543 9.4873 20.1054 9.4873C20.419 9.4873 20.7291 9.52733 21.0287 9.60594C21.3539 9.52814 21.6935 9.4873 22.0424 9.4873C22.4871 9.4873 22.926 9.5564 23.343 9.69172C23.7199 9.55951 24.1173 9.4873 24.5205 9.4873C24.8543 9.4873 25.1881 9.53406 25.5096 9.6244C25.8476 9.53526 26.1986 9.4873 26.5548 9.4873C27.1479 9.4873 27.7417 9.61375 28.281 9.8545C28.4819 9.82898 28.6851 9.81596 28.8901 9.81596C29.233 9.81596 29.5693 9.85296 29.895 9.92385C30.2622 9.84755 30.6384 9.80791 31.0208 9.80791C33.0595 9.80791 34.8815 10.9504 35.7977 12.7058C37.9655 13.3985 39.689 15.1022 40.3837 17.261C42.6043 18.7734 43.9231 21.2488 43.9231 23.9307C43.9231 26.7411 42.4764 29.2995 40.111 30.7938C39.9052 32.4134 39.1424 33.8691 38.0208 34.9624C36.7316 36.2191 34.9651 37.0001 33.0211 37.0001C32.6431 37.0001 32.2701 36.9701 31.9048 36.9122C31.5603 36.97 31.207 37.0001 30.8473 37.0001Z" fill="url(#paint0_linear_15_20)"/>
<path d="M30.1037 34.7692C27.623 34.7692 25.37 33.3531 24.2548 31.2061C22.9576 32.1197 21.41 32.6222 19.7942 32.6222C16.6081 32.6222 13.786 30.6808 12.6254 27.78C11.9654 27.9856 11.3054 28.0998 10.5999 28.0998C6.95857 28.0998 4 25.1305 4 21.476C4 19.7629 4.65999 18.1184 5.84342 16.885C5.75238 16.5196 5.70687 16.1313 5.70687 15.7658C5.70687 13.0478 7.89165 10.8551 10.5999 10.8551C10.873 10.8551 11.1233 10.8779 11.3964 10.9236C12.0792 9.82725 13.2626 9.14203 14.5826 9.14203C15.197 9.14203 15.7888 9.27908 16.3122 9.55316C16.9949 8.59386 18.1101 8 19.3618 8C20.1583 8 20.9321 8.25125 21.5693 8.7309C22.2066 8.27409 22.9804 8 23.7769 8C24.5962 8 25.4155 8.27409 26.0527 8.77658C26.7127 8.47965 27.4182 8.31977 28.1465 8.31977C30.0582 8.31977 31.765 9.43896 32.5843 11.152C34.7008 11.7915 36.3849 13.4818 37.0222 15.6288C39.1614 17.0677 40.4359 19.466 40.4359 22.0698C40.4359 24.8107 39.0249 27.3003 36.7263 28.7165C36.3849 32.0969 33.5402 34.7692 30.1037 34.7692ZM24.6189 28.785C24.6872 28.785 24.7782 28.785 24.8465 28.8078C25.1651 28.8992 25.4155 29.1276 25.4838 29.4474C26.0527 31.503 27.9416 32.942 30.0809 32.942C32.7209 32.942 34.8601 30.795 34.8601 28.1683V28.1454C34.8601 27.8028 35.0422 27.4831 35.3608 27.3232C37.3408 26.2954 38.5697 24.2854 38.5697 22.047C38.5697 19.9457 37.5001 18.0499 35.7249 16.9764C35.5201 16.8393 35.3608 16.6338 35.3153 16.4054C34.9057 14.6238 33.4719 13.2077 31.6967 12.7965C31.3781 12.728 31.1278 12.4996 31.0368 12.2027C30.6044 10.9693 29.4437 10.1242 28.1465 10.1242C27.532 10.1242 26.9403 10.3069 26.4396 10.6495C26.0527 10.9008 25.552 10.8322 25.2562 10.4896C24.892 10.0557 24.3458 9.82725 23.7996 9.82725C23.2079 9.82725 22.6617 10.0785 22.2976 10.5582C22.1155 10.7637 21.8652 10.9008 21.5921 10.9008C21.319 10.9008 21.0687 10.7866 20.8866 10.5582C20.5225 10.1013 19.9763 9.82725 19.3846 9.82725C18.5425 9.82725 17.7687 10.3983 17.5411 11.1977C17.4501 11.5175 17.1998 11.7459 16.8811 11.8144C16.5625 11.8829 16.2439 11.7915 16.0163 11.5631C15.6522 11.1748 15.1515 10.9693 14.6281 10.9693C13.8088 10.9693 13.0578 11.4946 12.8074 12.294C12.7392 12.5224 12.5571 12.7052 12.3523 12.8194C12.1247 12.9336 11.8743 12.9336 11.6468 12.8651C11.3281 12.7509 10.9868 12.7052 10.6454 12.7052C8.96129 12.7052 7.57304 14.0985 7.57304 15.7887C7.57304 16.1541 7.64131 16.5196 7.77786 16.8622C7.91441 17.2276 7.80062 17.6159 7.52752 17.8672C6.48065 18.7808 5.88893 20.1055 5.88893 21.4988C5.88893 24.1483 8.0282 26.2954 10.6682 26.2954C11.4192 26.2954 12.1702 26.1126 12.8302 25.77C13.0805 25.633 13.3764 25.633 13.6267 25.7472C13.8771 25.8614 14.0591 26.0898 14.1274 26.3639C14.7874 28.9905 17.1542 30.8178 19.8625 30.8178C21.4556 30.8178 22.9348 30.2011 24.05 29.0591C24.141 28.8763 24.3686 28.785 24.6189 28.785Z" fill="white"/>
<path d="M30.2929 34.7693C27.4347 34.7693 24.8867 32.8033 24.1113 30.0011C23.9783 29.5266 24.2442 29.0294 24.7316 28.8938C25.1969 28.7583 25.6843 29.0294 25.8173 29.5266C26.3712 31.5604 28.2102 32.984 30.2929 32.984C32.863 32.984 34.9457 30.8599 34.9457 28.2385C34.9457 26.7471 34.281 25.3912 33.1289 24.4873C32.7522 24.1709 32.6636 23.606 32.9738 23.2218C33.284 22.8376 33.8379 22.7473 34.2145 23.0636C35.8098 24.3065 36.7182 26.2047 36.7182 28.2611C36.7182 31.8316 33.8157 34.7693 30.2929 34.7693Z" fill="white"/>
<path d="M19.7853 33.2821C15.4659 33.2821 11.9318 29.65 11.9318 25.2108C11.9318 23.5965 12.3938 22.0298 13.2715 20.7004C13.5487 20.2731 14.1262 20.1544 14.565 20.4392C14.9808 20.7241 15.0963 21.3176 14.8191 21.7686C14.1493 22.7894 13.8028 23.9764 13.8028 25.2108C13.8028 28.6055 16.5053 31.3829 19.8084 31.3829C21.4253 31.3829 22.9267 30.742 24.0586 29.555C24.4281 29.1752 25.0056 29.1752 25.3752 29.555C25.7448 29.9348 25.7448 30.5283 25.3752 30.9081C23.8738 32.4512 21.8873 33.2821 19.7853 33.2821ZM8.8828 20.5342C8.7673 20.5342 8.65181 20.5105 8.51322 20.463C6.66533 19.6559 5.4873 17.828 5.4873 15.7627C5.4873 12.9377 7.70477 10.6588 10.4535 10.6588C10.9386 10.6588 11.4236 10.73 11.8625 10.8724C12.3476 11.0149 12.6248 11.5609 12.4862 12.0594C12.3476 12.5579 11.8163 12.8428 11.3312 12.7003C11.0541 12.6054 10.7538 12.5579 10.4304 12.5579C8.72111 12.5579 7.31209 14.006 7.31209 15.7627C7.31209 17.0446 8.05125 18.2078 9.20618 18.7063C9.66815 18.9199 9.89913 19.4659 9.69125 19.9407C9.57575 20.3205 9.22927 20.5342 8.8828 20.5342ZM24.2203 14.0534C23.7121 14.0534 23.2963 13.6261 23.2963 13.1039C23.2963 10.2789 25.5138 8 28.2625 8C30.3645 8 32.2586 9.37686 32.9515 11.4184C33.1132 11.9169 32.8591 12.4629 32.374 12.6291C31.889 12.7953 31.3577 12.5342 31.196 12.0356C30.7571 10.7537 29.5791 9.87538 28.2394 9.87538C26.5301 9.87538 25.1211 11.3235 25.1211 13.0801C25.1442 13.6499 24.7284 14.0534 24.2203 14.0534ZM26.1374 22.7657C25.3059 22.7657 24.4743 22.552 23.7352 22.101C21.9104 21.0327 20.9634 18.8962 21.3791 16.7597C21.4715 16.2374 21.9566 15.9051 22.4648 16.0238C22.9729 16.1187 23.2963 16.6173 23.1808 17.1395C22.9267 18.4452 23.5042 19.7983 24.6591 20.463C26.1143 21.3176 27.9622 20.7953 28.7938 19.2998C29.0479 18.8487 29.6022 18.6826 30.0642 18.9437C30.5031 19.2048 30.6648 19.7746 30.4107 20.2493C29.7639 21.4125 28.7245 22.2434 27.4541 22.5995C27.0152 22.7182 26.5763 22.7657 26.1374 22.7657Z" fill="white"/>
<path d="M65.416 36.72C62.344 36.72 60.664 34.536 60.376 30.168H54.184C53.704 31.272 53.296 32.304 52.96 33.264L52.024 36H46.984L58.324 12.24H66.064L67.576 29.736C67.816 32.256 68.416 33.888 69.376 34.632C68.68 36.024 67.36 36.72 65.416 36.72ZM55.3 27.54H60.268L59.836 18.288V17.316L57.28 22.968L55.3 27.54ZM80.1192 34.02C79.3752 35.82 77.8152 36.72 75.4392 36.72C74.2152 36.72 73.2192 36.3 72.4512 35.46C71.8032 34.716 71.4792 33.972 71.4792 33.228C71.4792 31.284 71.9232 28.416 72.8112 24.624L74.1432 17.64L81.4512 16.92L79.2552 28.296C78.8472 30.072 78.6432 31.272 78.6432 31.896C78.6432 33.264 79.1352 33.972 80.1192 34.02ZM74.7912 12.636C74.7912 11.7 75.1752 10.98 75.9432 10.476C76.7352 9.972 77.6952 9.72 78.8232 9.72C79.9512 9.72 80.8512 9.972 81.5232 10.476C82.2192 10.98 82.5672 11.7 82.5672 12.636C82.5672 13.572 82.1832 14.28 81.4152 14.76C80.6712 15.24 79.7352 15.48 78.6072 15.48C77.4792 15.48 76.5552 15.24 75.8352 14.76C75.1392 14.28 74.7912 13.572 74.7912 12.636ZM94.5262 16.92C95.3902 16.92 96.1582 17.016 96.8302 17.208C96.8542 17.112 96.8902 16.932 96.9382 16.668L97.1182 15.552C97.2142 15.072 97.3342 14.436 97.4782 13.644L98.0542 10.8L105.218 10.08L101.222 30.96C101.198 31.104 101.186 31.296 101.186 31.536V32.112C101.186 32.64 101.318 33.108 101.582 33.516C101.846 33.9 102.194 34.092 102.626 34.092C102.146 35.22 101.174 36.024 99.7102 36.504C99.2062 36.648 98.5942 36.72 97.8742 36.72C97.1782 36.72 96.5062 36.528 95.8582 36.144C95.2102 35.784 94.7902 35.292 94.5982 34.668C94.2142 35.292 93.6382 35.784 92.8702 36.144C92.1022 36.528 91.1542 36.72 90.0262 36.72C88.9222 36.72 87.9022 36.576 86.9662 36.288C86.0542 36 85.3102 35.544 84.7342 34.92C83.6782 33.696 83.1502 31.692 83.1502 28.908C83.1502 25.308 84.2062 22.416 86.3182 20.232C88.4302 18.024 91.1662 16.92 94.5262 16.92ZM94.2742 19.08C93.3862 19.08 92.7022 19.56 92.2222 20.52C91.7422 21.48 91.2502 23.148 90.7462 25.524C90.2662 27.9 90.0262 30.156 90.0262 32.292C90.0262 33.756 90.4582 34.488 91.3222 34.488C92.0902 34.488 92.7382 34.104 93.2662 33.336C93.8182 32.568 94.2022 31.548 94.4182 30.276L96.3622 19.728C95.8582 19.296 95.1622 19.08 94.2742 19.08ZM120.266 29.916C120.866 30.324 121.166 30.984 121.166 31.896C121.166 32.784 120.938 33.516 120.482 34.092C120.026 34.668 119.426 35.148 118.682 35.532C117.146 36.324 115.55 36.72 113.894 36.72C112.238 36.72 110.918 36.54 109.934 36.18C108.974 35.82 108.17 35.304 107.522 34.632C106.25 33.36 105.614 31.56 105.614 29.232C105.614 25.608 106.598 22.692 108.566 20.484C110.678 18.108 113.57 16.92 117.242 16.92C119.522 16.92 121.226 17.4 122.354 18.36C123.194 19.08 123.614 20.028 123.614 21.204C123.614 25.428 119.966 27.54 112.67 27.54C112.574 28.164 112.526 28.74 112.526 29.268C112.526 30.372 112.766 31.14 113.246 31.572C113.75 31.98 114.458 32.184 115.37 32.184C116.282 32.184 117.218 31.98 118.178 31.572C119.162 31.14 119.858 30.588 120.266 29.916ZM112.922 25.992C114.626 25.992 115.97 25.464 116.954 24.408C117.938 23.4 118.43 22.092 118.43 20.484C118.43 19.932 118.322 19.512 118.106 19.224C117.914 18.912 117.614 18.756 117.206 18.756C116.798 18.756 116.414 18.84 116.054 19.008C115.718 19.152 115.37 19.488 115.01 20.016C114.122 21.216 113.426 23.208 112.922 25.992ZM126.394 34.92C125.842 34.296 125.434 33.492 125.17 32.508C124.93 31.524 124.81 30.228 124.81 28.62C124.81 27.012 125.086 25.476 125.638 24.012C126.19 22.548 126.97 21.288 127.978 20.232C130.042 18.024 132.778 16.92 136.186 16.92C137.41 16.92 138.466 17.124 139.354 17.532L145.51 16.92L142.846 30.96C142.774 31.248 142.738 31.656 142.738 32.184C142.738 32.712 142.894 33.144 143.206 33.48C143.542 33.816 143.95 34.008 144.43 34.056C144.19 34.872 143.626 35.52 142.738 36C141.874 36.48 140.95 36.72 139.966 36.72C138.982 36.72 138.154 36.528 137.482 36.144C136.834 35.784 136.414 35.292 136.222 34.668C135.838 35.268 135.238 35.76 134.422 36.144C133.606 36.528 132.646 36.72 131.542 36.72C130.462 36.72 129.478 36.576 128.59 36.288C127.702 36 126.97 35.544 126.394 34.92ZM133.99 20.304C133.726 20.736 133.474 21.324 133.234 22.068C132.994 22.788 132.67 24.132 132.262 26.1C131.878 28.044 131.686 29.712 131.686 31.104C131.686 32.496 131.794 33.396 132.01 33.804C132.226 34.212 132.526 34.416 132.91 34.416C133.678 34.416 134.338 34.056 134.89 33.336C135.466 32.592 135.862 31.572 136.078 30.276L137.986 19.728C137.482 19.296 136.93 19.08 136.33 19.08C135.754 19.08 135.286 19.176 134.926 19.368C134.59 19.56 134.278 19.872 133.99 20.304Z" fill="white"/>
<defs>
<linearGradient id="paint0_linear_15_20" x1="10" y1="13.0001" x2="40" y2="34.5001" gradientUnits="userSpaceOnUse">
<stop stop-color="#846DEB"/>
<stop offset="1" stop-color="#4F27FF"/>
</linearGradient>
</defs>
</svg>
