<svg width="32" height="32" viewBox="-5 -3 32 32" fill="#4318FF" xmlns="http://www.w3.org/2000/svg">
<g clip-path="url(#clip0_139_9)">
<path d="M18.0832 10.1667C18.7735 10.1667 19.3332 9.60702 19.3332 8.91667V4.75C19.3332 4.05964 18.7735 3.5 18.0832 3.5H14.7498C14.0595 3.5 13.4998 4.05964 13.4998 4.75V6H6.49984V4.75C6.49984 4.05964 5.94019 3.5 5.24984 3.5H1.9165C1.22615 3.5 0.666504 4.05964 0.666504 4.75V8.91667C0.666504 9.60702 1.22615 10.1667 1.9165 10.1667H5.24984C5.94019 10.1667 6.49984 9.60702 6.49984 8.91667V7.66667H9.1665V15.5833C9.1665 15.8135 9.35305 16 9.58317 16H13.4998V17.25C13.4998 17.9404 14.0595 18.5 14.7498 18.5H18.0832C18.7735 18.5 19.3332 17.9404 19.3332 17.25V13.0833C19.3332 12.393 18.7735 11.8333 18.0832 11.8333H14.7498C14.0595 11.8333 13.4998 12.393 13.4998 13.0833V14.3333H10.8332V7.66667H13.4998V8.91667C13.4998 9.60702 14.0595 10.1667 14.7498 10.1667H18.0832Z"/>
</g>
<defs>
<clipPath id="clip0_139_9">
<rect width="20" height="20" fill="white"/>
</clipPath>
</defs>
</svg>