<svg width="32" height="32" viewBox="-6 -2 32 32" fill="#4318FF" xmlns="http://www.w3.org/2000/svg">
<path fill-rule="evenodd" clip-rule="evenodd" d="M10.8333 8.28208C12.5033 7.90314 13.75 6.40966 13.75 4.625C13.75 2.55393 12.0711 0.875 10 0.875C7.92893 0.875 6.25 2.55393 6.25 4.625C6.25 6.40966 7.49668 7.90314 9.16667 8.28208V11.6532L6.45645 13.2793C5.77397 12.5679 4.8137 12.125 3.75 12.125C1.67893 12.125 0 13.8039 0 15.875C0 17.9461 1.67893 19.625 3.75 19.625C5.82107 19.625 7.5 17.9461 7.5 15.875C7.5 15.4675 7.43501 15.0752 7.31483 14.7079L10 13.0968L12.6852 14.7079C12.565 15.0752 12.5 15.4675 12.5 15.875C12.5 17.9461 14.1789 19.625 16.25 19.625C18.3211 19.625 20 17.9461 20 15.875C20 13.8039 18.3211 12.125 16.25 12.125C15.1863 12.125 14.226 12.5679 13.5435 13.2793L10.8333 11.6532V8.28208Z" fill="#4318FF"/>
</svg>
