<svg width="488" height="139" viewBox="0 0 488 139" fill="none" xmlns="http://www.w3.org/2000/svg">
<path d="M0.320001 108V0.199993H24.96L53.604 99.838H55.606L84.25 0.199993H108.89V108H96.416V8.66999H94.26L65.77 108H43.44L14.95 8.66999H12.794V108H0.320001ZM165.752 110.156C158.155 110.156 151.43 108.565 145.578 105.382C139.829 102.199 135.311 97.7333 132.026 91.984C128.843 86.132 127.252 79.2533 127.252 71.348V69.346C127.252 61.5433 128.843 54.716 132.026 48.864C135.311 43.012 139.829 38.4947 145.578 35.312C151.43 32.1293 158.155 30.538 165.752 30.538C173.349 30.538 180.023 32.1293 185.772 35.312C191.624 38.4947 196.141 43.012 199.324 48.864C202.609 54.716 204.252 61.5433 204.252 69.346V71.348C204.252 79.2533 202.609 86.132 199.324 91.984C196.141 97.7333 191.624 102.199 185.772 105.382C180.023 108.565 173.349 110.156 165.752 110.156ZM165.752 99.222C173.76 99.222 180.125 96.7067 184.848 91.676C189.673 86.5427 192.086 79.664 192.086 71.04V69.654C192.086 61.03 189.673 54.2027 184.848 49.172C180.125 44.0387 173.76 41.472 165.752 41.472C157.847 41.472 151.481 44.0387 146.656 49.172C141.831 54.2027 139.418 61.03 139.418 69.654V71.04C139.418 79.664 141.831 86.5427 146.656 91.676C151.481 96.7067 157.847 99.222 165.752 99.222ZM254.943 110.156C248.475 110.156 242.521 108.616 237.079 105.536C231.638 102.456 227.326 97.99 224.143 92.138C220.961 86.286 219.369 79.356 219.369 71.348V69.346C219.369 61.338 220.961 54.4593 224.143 48.71C227.326 42.858 231.587 38.392 236.925 35.312C242.367 32.1293 248.373 30.538 254.943 30.538C260.179 30.538 264.594 31.2567 268.187 32.694C271.883 34.0287 274.861 35.774 277.119 37.93C279.378 39.9833 281.123 42.1907 282.355 44.552H284.511V0.199993H296.677V108H284.819V95.526H282.663C280.61 99.3247 277.427 102.713 273.115 105.69C268.803 108.667 262.746 110.156 254.943 110.156ZM258.177 99.376C265.98 99.376 272.294 96.912 277.119 91.984C282.047 86.9533 284.511 79.972 284.511 71.04V69.654C284.511 60.722 282.047 53.792 277.119 48.864C272.294 43.8333 265.98 41.318 258.177 41.318C250.477 41.318 244.112 43.8333 239.081 48.864C234.153 53.792 231.689 60.722 231.689 69.654V71.04C231.689 79.972 234.153 86.9533 239.081 91.984C244.112 96.912 250.477 99.376 258.177 99.376ZM319.093 108V32.694H331.259V108H319.093ZM325.253 20.99C322.583 20.99 320.325 20.1173 318.477 18.372C316.731 16.6267 315.859 14.4193 315.859 11.75C315.859 8.978 316.731 6.71933 318.477 4.974C320.325 3.22866 322.583 2.35599 325.253 2.35599C327.922 2.35599 330.129 3.22866 331.875 4.974C333.62 6.71933 334.493 8.978 334.493 11.75C334.493 14.4193 333.62 16.6267 331.875 18.372C330.129 20.1173 327.922 20.99 325.253 20.99ZM368.545 108V43.32H345.445V32.694H368.545V13.444C368.545 9.33733 369.674 6.10333 371.933 3.74199C374.294 1.38066 377.631 0.199993 381.943 0.199993H400.885V10.672H385.331C382.251 10.672 380.711 12.212 380.711 15.292V32.694H404.427V43.32H380.711V108H368.545ZM427.894 138.8V128.02H471.014C473.991 128.02 475.48 126.48 475.48 123.4V95.988H473.324C472.297 98.144 470.706 100.3 468.55 102.456C466.496 104.509 463.776 106.203 460.388 107.538C457 108.77 452.739 109.386 447.606 109.386C442.164 109.386 437.134 108.205 432.514 105.844C427.996 103.483 424.403 99.992 421.734 95.372C419.167 90.752 417.884 85.1053 417.884 78.432V32.694H430.05V77.508C430.05 84.9 431.898 90.29 435.594 93.678C439.392 97.066 444.474 98.76 450.84 98.76C458.026 98.76 463.93 96.3987 468.55 91.676C473.17 86.9533 475.48 79.9207 475.48 70.578V32.694H487.646V125.556C487.646 129.663 486.465 132.897 484.104 135.258C481.845 137.619 478.508 138.8 474.094 138.8H427.894Z" fill="black"/>
</svg>

