<svg width="34" height="24" viewBox="0 0 34 24" fill="none" xmlns="http://www.w3.org/2000/svg">
<path fill-rule="evenodd" clip-rule="evenodd" d="M21 0.999927C23.1333 8.4666 29.8889 11.6666 33 12.3333C29.8889 12.9999 23.1333 16.1999 21 23.6666C21.6071 21.0359 22.767 15.5674 22.9695 12.9999L1 12.9999L1 11.6666L22.9695 11.6666C22.767 9.0992 21.6071 3.63063 21 0.999927Z" fill="white"/>
<path d="M33 12.3333L33.1397 12.9852V11.6815L33 12.3333ZM21 1L21.641 0.816853L20.3504 1.14991L21 1ZM21 23.6667L20.3504 23.5168L21.641 23.8498L21 23.6667ZM22.9695 13L23.6341 13.0524L23.6908 12.3334H22.9695V13ZM1 13H0.333333V13.6667H1V13ZM1 11.6667V11H0.333333V11.6667H1ZM22.9695 11.6667V12.3333H23.6908L23.6341 11.6143L22.9695 11.6667ZM33.1397 11.6815C30.1685 11.0448 23.6824 7.96163 21.641 0.816853L20.359 1.18315C22.5843 8.97172 29.6093 12.2886 32.8603 12.9852L33.1397 11.6815ZM21.641 23.8498C23.6824 16.7051 30.1685 13.6219 33.1397 12.9852L32.8603 11.6815C29.6093 12.3781 22.5843 15.695 20.359 23.4836L21.641 23.8498ZM22.3049 12.9476C22.107 15.4567 20.9599 20.8756 20.3504 23.5168L21.6496 23.8166C22.2543 21.1963 23.427 15.6781 23.6341 13.0524L22.3049 12.9476ZM22.9695 12.3334L1 12.3334V13.6667L22.9695 13.6667V12.3334ZM1.66667 13L1.66667 11.6667H0.333333L0.333333 13H1.66667ZM1 12.3333L22.9695 12.3333V11L1 11L1 12.3333ZM20.3504 1.14991C20.9599 3.79106 22.107 9.20997 22.3049 11.7191L23.6341 11.6143C23.427 8.98857 22.2543 3.47036 21.6496 0.850094L20.3504 1.14991Z" fill="white"/>
</svg>
