<svg width="649" height="74" viewBox="0 0 649 74" fill="none" xmlns="http://www.w3.org/2000/svg">
<path d="M22.04 59.12C17.9867 59.12 14.36 58.4 11.16 56.96C7.96 55.52 5.42667 53.36 3.56 50.48C1.74667 47.5467 0.84 43.8933 0.84 39.52V37.84H7.48V39.52C7.48 44.16 8.84 47.6267 11.56 49.92C14.28 52.16 17.7733 53.28 22.04 53.28C26.4133 53.28 29.7467 52.2933 32.04 50.32C34.3333 48.3467 35.48 45.8667 35.48 42.88C35.48 40.8 34.9467 39.1467 33.88 37.92C32.8667 36.6933 31.4267 35.7067 29.56 34.96C27.6933 34.16 25.5067 33.4667 23 32.88L18.84 31.84C15.5867 30.9867 12.7067 29.9467 10.2 28.72C7.69333 27.4933 5.72 25.8933 4.28 23.92C2.89333 21.8933 2.2 19.3067 2.2 16.16C2.2 13.0133 2.97333 10.2933 4.52 8C6.12 5.70666 8.33333 3.94666 11.16 2.72C14.04 1.49333 17.3467 0.879996 21.08 0.879996C24.8667 0.879996 28.2533 1.54666 31.24 2.88C34.28 4.16 36.6533 6.08 38.36 8.64C40.12 11.1467 41 14.32 41 18.16V21.52H34.36V18.16C34.36 15.44 33.7733 13.2533 32.6 11.6C31.48 9.94667 29.9067 8.72 27.88 7.92C25.9067 7.12 23.64 6.72 21.08 6.72C17.4 6.72 14.44 7.54666 12.2 9.2C9.96 10.8 8.84 13.0933 8.84 16.08C8.84 18.0533 9.32 19.6533 10.28 20.88C11.24 22.1067 12.6 23.12 14.36 23.92C16.12 24.6667 18.2267 25.3333 20.68 25.92L24.84 26.96C28.0933 27.6533 31 28.6133 33.56 29.84C36.1733 31.0133 38.2533 32.64 39.8 34.72C41.3467 36.7467 42.12 39.4133 42.12 42.72C42.12 46.0267 41.2933 48.9067 39.64 51.36C37.9867 53.8133 35.64 55.7333 32.6 57.12C29.6133 58.4533 26.0933 59.12 22.04 59.12ZM70.6225 59.12C66.6758 59.12 63.2092 58.2933 60.2225 56.64C57.2358 54.9333 54.9158 52.56 53.2625 49.52C51.6092 46.48 50.7825 42.96 50.7825 38.96V38C50.7825 33.9467 51.6092 30.4 53.2625 27.36C54.9158 24.32 57.2092 21.9733 60.1425 20.32C63.0758 18.6133 66.4358 17.76 70.2225 17.76C73.9025 17.76 77.1558 18.56 79.9825 20.16C82.8092 21.7067 85.0225 23.9467 86.6225 26.88C88.2225 29.8133 89.0225 33.2533 89.0225 37.2V40.08H57.1025C57.2625 44.2933 58.6225 47.6 61.1825 50C63.7425 52.3467 66.9425 53.52 70.7825 53.52C74.1425 53.52 76.7292 52.7467 78.5425 51.2C80.3558 49.6533 81.7425 47.8133 82.7025 45.68L88.1425 48.32C87.3425 49.9733 86.2225 51.6267 84.7825 53.28C83.3958 54.9333 81.5558 56.32 79.2625 57.44C77.0225 58.56 74.1425 59.12 70.6225 59.12ZM57.1825 34.88H82.6225C82.4092 31.2533 81.1558 28.4267 78.8625 26.4C76.6225 24.3733 73.7425 23.36 70.2225 23.36C66.6492 23.36 63.7158 24.3733 61.4225 26.4C59.1292 28.4267 57.7158 31.2533 57.1825 34.88ZM100.046 58V18.88H106.206V23.68H107.326C108.02 21.9733 109.086 20.72 110.526 19.92C111.966 19.12 113.86 18.72 116.206 18.72H120.846V24.48H115.806C112.98 24.48 110.686 25.28 108.926 26.88C107.22 28.4267 106.366 30.8533 106.366 34.16V58H100.046ZM140.123 58L126.123 18.88H132.843L144.603 53.28H145.723L157.483 18.88H164.203L150.203 58H140.123ZM173.328 58V18.88H179.648V58H173.328ZM176.528 12.8C175.141 12.8 173.968 12.3467 173.008 11.44C172.101 10.5333 171.648 9.38666 171.648 8C171.648 6.56 172.101 5.38667 173.008 4.48C173.968 3.57333 175.141 3.12 176.528 3.12C177.914 3.12 179.061 3.57333 179.968 4.48C180.874 5.38667 181.328 6.56 181.328 8C181.328 9.38666 180.874 10.5333 179.968 11.44C179.061 12.3467 177.914 12.8 176.528 12.8ZM210.937 59.12C207.15 59.12 203.737 58.32 200.697 56.72C197.71 55.0667 195.337 52.72 193.577 49.68C191.87 46.64 191.017 43.04 191.017 38.88V38C191.017 33.7867 191.87 30.1867 193.577 27.2C195.337 24.16 197.71 21.84 200.697 20.24C203.737 18.5867 207.15 17.76 210.937 17.76C214.67 17.76 217.844 18.4533 220.457 19.84C223.124 21.2267 225.204 23.0667 226.697 25.36C228.244 27.6533 229.23 30.1067 229.657 32.72L223.497 34C223.23 32.08 222.59 30.32 221.577 28.72C220.617 27.12 219.257 25.84 217.497 24.88C215.737 23.92 213.577 23.44 211.017 23.44C208.404 23.44 206.057 24.0267 203.977 25.2C201.95 26.3733 200.324 28.0533 199.097 30.24C197.924 32.4267 197.337 35.04 197.337 38.08V38.8C197.337 41.84 197.924 44.4533 199.097 46.64C200.324 48.8267 201.95 50.5067 203.977 51.68C206.057 52.8533 208.404 53.44 211.017 53.44C214.91 53.44 217.87 52.4267 219.897 50.4C221.977 48.3733 223.257 45.8667 223.737 42.88L229.977 44.24C229.39 46.8 228.324 49.2267 226.777 51.52C225.23 53.8133 223.124 55.6533 220.457 57.04C217.844 58.4267 214.67 59.12 210.937 59.12ZM258.669 59.12C254.723 59.12 251.256 58.2933 248.269 56.64C245.283 54.9333 242.963 52.56 241.309 49.52C239.656 46.48 238.829 42.96 238.829 38.96V38C238.829 33.9467 239.656 30.4 241.309 27.36C242.963 24.32 245.256 21.9733 248.189 20.32C251.123 18.6133 254.483 17.76 258.269 17.76C261.949 17.76 265.203 18.56 268.029 20.16C270.856 21.7067 273.069 23.9467 274.669 26.88C276.269 29.8133 277.069 33.2533 277.069 37.2V40.08H245.149C245.309 44.2933 246.669 47.6 249.229 50C251.789 52.3467 254.989 53.52 258.829 53.52C262.189 53.52 264.776 52.7467 266.589 51.2C268.403 49.6533 269.789 47.8133 270.749 45.68L276.189 48.32C275.389 49.9733 274.269 51.6267 272.829 53.28C271.443 54.9333 269.603 56.32 267.309 57.44C265.069 58.56 262.189 59.12 258.669 59.12ZM245.229 34.88H270.669C270.456 31.2533 269.203 28.4267 266.909 26.4C264.669 24.3733 261.789 23.36 258.269 23.36C254.696 23.36 251.763 24.3733 249.469 26.4C247.176 28.4267 245.763 31.2533 245.229 34.88ZM308.4 58V2H329.84C333.2 2 336.187 2.66666 338.8 4C341.467 5.28 343.573 7.12 345.12 9.52C346.667 11.92 347.44 14.8267 347.44 18.24V19.28C347.44 22.64 346.64 25.5467 345.04 28C343.493 30.4 341.387 32.24 338.72 33.52C336.053 34.8 333.093 35.44 329.84 35.44H315.12V58H308.4ZM315.12 29.36H329.12C332.693 29.36 335.52 28.48 337.6 26.72C339.68 24.9067 340.72 22.3733 340.72 19.12V18.32C340.72 15.0667 339.68 12.56 337.6 10.8C335.573 8.98667 332.747 8.08 329.12 8.08H315.12V29.36ZM356.687 58V18.88H362.847V23.68H363.967C364.66 21.9733 365.727 20.72 367.167 19.92C368.607 19.12 370.5 18.72 372.847 18.72H377.487V24.48H372.447C369.62 24.48 367.327 25.28 365.567 26.88C363.86 28.4267 363.007 30.8533 363.007 34.16V58H356.687ZM403.517 59.12C399.57 59.12 396.077 58.2933 393.037 56.64C390.05 54.9867 387.704 52.6667 385.997 49.68C384.344 46.64 383.517 43.0667 383.517 38.96V37.92C383.517 33.8667 384.344 30.32 385.997 27.28C387.704 24.24 390.05 21.8933 393.037 20.24C396.077 18.5867 399.57 17.76 403.517 17.76C407.464 17.76 410.93 18.5867 413.917 20.24C416.957 21.8933 419.304 24.24 420.957 27.28C422.664 30.32 423.517 33.8667 423.517 37.92V38.96C423.517 43.0667 422.664 46.64 420.957 49.68C419.304 52.6667 416.957 54.9867 413.917 56.64C410.93 58.2933 407.464 59.12 403.517 59.12ZM403.517 53.44C407.677 53.44 410.984 52.1333 413.437 49.52C415.944 46.8533 417.197 43.28 417.197 38.8V38.08C417.197 33.6 415.944 30.0533 413.437 27.44C410.984 24.7733 407.677 23.44 403.517 23.44C399.41 23.44 396.104 24.7733 393.597 27.44C391.09 30.0533 389.837 33.6 389.837 38.08V38.8C389.837 43.28 391.09 46.8533 393.597 49.52C396.104 52.1333 399.41 53.44 403.517 53.44ZM450.65 59.12C445.797 59.12 441.69 58 438.33 55.76C435.023 53.52 433.023 49.9733 432.33 45.12L438.33 43.76C438.757 46.32 439.557 48.3467 440.73 49.84C441.903 51.28 443.343 52.32 445.05 52.96C446.81 53.5467 448.677 53.84 450.65 53.84C453.583 53.84 455.903 53.2533 457.61 52.08C459.317 50.9067 460.17 49.3333 460.17 47.36C460.17 45.3333 459.343 43.92 457.69 43.12C456.09 42.2667 453.877 41.5733 451.05 41.04L447.77 40.48C445.263 40.0533 442.97 39.3867 440.89 38.48C438.81 37.5733 437.157 36.3467 435.93 34.8C434.703 33.2533 434.09 31.3067 434.09 28.96C434.09 25.44 435.45 22.6933 438.17 20.72C440.89 18.7467 444.49 17.76 448.97 17.76C453.397 17.76 456.97 18.7733 459.69 20.8C462.463 22.7733 464.25 25.5733 465.05 29.2L459.13 30.72C458.65 27.8933 457.503 25.92 455.69 24.8C453.877 23.6267 451.637 23.04 448.97 23.04C446.303 23.04 444.197 23.5467 442.65 24.56C441.103 25.52 440.33 26.96 440.33 28.88C440.33 30.7467 441.05 32.1333 442.49 33.04C443.983 33.8933 445.957 34.5333 448.41 34.96L451.69 35.52C454.463 36 456.943 36.6667 459.13 37.52C461.37 38.32 463.13 39.4933 464.41 41.04C465.743 42.5867 466.41 44.6133 466.41 47.12C466.41 50.96 464.97 53.92 462.09 56C459.263 58.08 455.45 59.12 450.65 59.12ZM477.078 74V18.88H483.238V25.36H484.358C485.371 23.3867 486.998 21.6267 489.238 20.08C491.531 18.5333 494.704 17.76 498.758 17.76C502.118 17.76 505.184 18.5867 507.958 20.24C510.784 21.84 513.024 24.1333 514.678 27.12C516.384 30.1067 517.238 33.7067 517.238 37.92V38.96C517.238 43.12 516.411 46.72 514.758 49.76C513.104 52.8 510.864 55.12 508.038 56.72C505.264 58.32 502.171 59.12 498.758 59.12C496.038 59.12 493.718 58.7467 491.798 58C489.931 57.3067 488.411 56.4 487.238 55.28C486.064 54.16 485.158 53.0133 484.518 51.84H483.398V74H477.078ZM497.078 53.52C501.131 53.52 504.411 52.24 506.918 49.68C509.478 47.0667 510.758 43.44 510.758 38.8V38.08C510.758 33.44 509.478 29.84 506.918 27.28C504.411 24.6667 501.131 23.36 497.078 23.36C493.078 23.36 489.771 24.6667 487.158 27.28C484.598 29.84 483.318 33.44 483.318 38.08V38.8C483.318 43.44 484.598 47.0667 487.158 49.68C489.771 52.24 493.078 53.52 497.078 53.52ZM546.482 59.12C542.535 59.12 539.069 58.2933 536.082 56.64C533.095 54.9333 530.775 52.56 529.122 49.52C527.469 46.48 526.642 42.96 526.642 38.96V38C526.642 33.9467 527.469 30.4 529.122 27.36C530.775 24.32 533.069 21.9733 536.002 20.32C538.935 18.6133 542.295 17.76 546.082 17.76C549.762 17.76 553.015 18.56 555.842 20.16C558.669 21.7067 560.882 23.9467 562.482 26.88C564.082 29.8133 564.882 33.2533 564.882 37.2V40.08H532.962C533.122 44.2933 534.482 47.6 537.042 50C539.602 52.3467 542.802 53.52 546.642 53.52C550.002 53.52 552.589 52.7467 554.402 51.2C556.215 49.6533 557.602 47.8133 558.562 45.68L564.002 48.32C563.202 49.9733 562.082 51.6267 560.642 53.28C559.255 54.9333 557.415 56.32 555.122 57.44C552.882 58.56 550.002 59.12 546.482 59.12ZM533.042 34.88H558.482C558.269 31.2533 557.015 28.4267 554.722 26.4C552.482 24.3733 549.602 23.36 546.082 23.36C542.509 23.36 539.575 24.3733 537.282 26.4C534.989 28.4267 533.575 31.2533 533.042 34.88ZM593.906 59.12C590.119 59.12 586.706 58.32 583.666 56.72C580.679 55.0667 578.306 52.72 576.546 49.68C574.839 46.64 573.986 43.04 573.986 38.88V38C573.986 33.7867 574.839 30.1867 576.546 27.2C578.306 24.16 580.679 21.84 583.666 20.24C586.706 18.5867 590.119 17.76 593.906 17.76C597.639 17.76 600.812 18.4533 603.426 19.84C606.092 21.2267 608.172 23.0667 609.666 25.36C611.212 27.6533 612.199 30.1067 612.626 32.72L606.466 34C606.199 32.08 605.559 30.32 604.546 28.72C603.586 27.12 602.226 25.84 600.466 24.88C598.706 23.92 596.546 23.44 593.986 23.44C591.372 23.44 589.026 24.0267 586.946 25.2C584.919 26.3733 583.292 28.0533 582.066 30.24C580.892 32.4267 580.306 35.04 580.306 38.08V38.8C580.306 41.84 580.892 44.4533 582.066 46.64C583.292 48.8267 584.919 50.5067 586.946 51.68C589.026 52.8533 591.372 53.44 593.986 53.44C597.879 53.44 600.839 52.4267 602.866 50.4C604.946 48.3733 606.226 45.8667 606.706 42.88L612.946 44.24C612.359 46.8 611.292 49.2267 609.746 51.52C608.199 53.8133 606.092 55.6533 603.426 57.04C600.812 58.4267 597.639 59.12 593.906 59.12ZM636.478 58C634.238 58 632.504 57.3867 631.278 56.16C630.104 54.9333 629.518 53.2533 629.518 51.12V24.4H617.758V18.88H629.518V4.96H635.838V18.88H648.638V24.4H635.838V50.16C635.838 51.76 636.611 52.56 638.158 52.56H646.878V58H636.478Z" fill="white"/>
</svg>
