<svg width="172" height="41" viewBox="0 0 172 41" fill="none" xmlns="http://www.w3.org/2000/svg">
<path d="M2.3 40.004L1.64 36.924C3.28267 37.0413 4.48533 37.1 5.248 37.1C6.27467 37.1 6.788 36.6307 6.788 35.692V24.692C4.99867 25.396 3.29733 25.9973 1.684 26.496L0.936 23.328C2.872 22.8587 4.82267 22.2427 6.788 21.48V11.536H1.464V8.5H6.788V0.184H10.044V8.5H14.488V11.536H10.044V20.116C11.7453 19.2947 13.0067 18.6493 13.828 18.18V21.392C13.0067 21.832 11.7453 22.4627 10.044 23.284V36.484C10.044 38.8307 8.812 40.004 6.348 40.004H2.3ZM17.92 1.592H37.104V16.86H17.92V1.592ZM34.024 14.264V10.48H21V14.264H34.024ZM21 8.016H34.024V4.188H21V8.016ZM14.84 19.94H40.008V22.756H29.008V27.728H38.204V30.588H29.008V36.264C30.768 36.528 32.8507 36.66 35.256 36.66C37.368 36.66 39.3333 36.5867 41.152 36.44L40.272 39.52L35.476 39.476C29.6973 39.4467 25.7373 38.8893 23.596 37.804C21.8947 36.8947 20.384 35.2227 19.064 32.788C18.008 35.5453 16.5413 38.0533 14.664 40.312L12.332 38.288C15.676 34.24 17.524 29.6933 17.876 24.648L20.692 24.956C20.604 26.5107 20.384 28.036 20.032 29.532C21.44 32.4653 23.068 34.3573 24.916 35.208L25.972 35.604V22.756H14.84V19.94ZM67.42 10.128C69.3267 12.8853 71.028 15.4667 72.524 17.872C73.668 14.6747 74.592 11.2573 75.296 7.62L78.068 8.104C77.1587 12.7973 75.9413 17.0653 74.416 20.908C76.4987 24.3693 78.2587 27.5813 79.696 30.544L77.232 32.26C76.2347 30.0893 74.812 27.376 72.964 24.12C71.2333 27.4933 69.2533 30.4267 67.024 32.92L65.088 30.5C67.464 27.8013 69.488 24.6627 71.16 21.084C69.312 18.004 67.288 14.836 65.088 11.58L67.42 10.128ZM75.824 40.048L74.988 37.012L78.464 37.144C79.8133 37.144 80.488 36.396 80.488 34.9V4.804H64.208V40.444H61.216V1.856H83.48V35.56C83.48 38.552 82.1453 40.048 79.476 40.048H75.824ZM59.28 34.592C55.2907 36.2347 50.6707 37.5693 45.42 38.596L45.024 35.56C50.4507 34.592 55.2027 33.272 59.28 31.6V34.592ZM55.276 1.372C53.1347 7.092 51.008 11.6093 48.896 14.924C50.8027 14.748 52.6653 14.484 54.484 14.132L56.992 8.896L59.852 9.952C55.9213 17.7253 52.724 23.1813 50.26 26.32C53.076 25.7333 55.98 24.868 58.972 23.724V26.452C54.7187 28.0947 50.5827 29.2093 46.564 29.796L45.684 26.98C46.2707 26.7453 46.7547 26.4373 47.136 26.056C48.7493 24.2667 50.7147 21.2307 53.032 16.948C50.656 17.3587 48.3093 17.7107 45.992 18.004L45.2 15.144C45.6693 14.968 46.1093 14.5867 46.52 14C48.7787 9.98133 50.7147 5.39067 52.328 0.227999L55.276 1.372ZM103.368 34.548C99.3787 36.1613 94.6707 37.5107 89.244 38.596L88.848 35.516C94.4213 34.4893 99.2613 33.1547 103.368 31.512V34.548ZM98.88 1.196C96.768 6.916 94.656 11.5067 92.544 14.968C94.5973 14.6747 96.4453 14.352 98.088 14L100.552 8.852L103.456 9.908C99.76 17.3293 96.6213 22.712 94.04 26.056C96.856 25.4107 99.7307 24.5307 102.664 23.416V26.276C98.3227 27.8893 94.216 28.9747 90.344 29.532L89.508 26.672C90.0653 26.3787 90.5347 26.0707 90.916 25.748C92.4707 24.0173 94.3773 21.0253 96.636 16.772C95.1107 17.0947 92.7933 17.5493 89.684 18.136L88.892 15.232C89.42 14.968 89.8747 14.5573 90.256 14C92.456 9.98133 94.348 5.332 95.932 0.0519986L98.88 1.196ZM117.8 0.315998C120.059 5.12667 123.931 9.38 129.416 13.076L127.7 15.76C122.596 12.2987 118.827 8.08933 116.392 3.132C113.283 8.676 109.425 12.944 104.82 15.936L103.104 13.252C108.208 9.93733 112.168 5.62533 114.984 0.315998H117.8ZM122.904 28.432C124.957 31.8933 126.761 35.56 128.316 39.432L125.456 40.708C124.723 38.8307 124.209 37.5547 123.916 36.88C118.255 38.112 112.417 38.948 106.404 39.388L105.568 36.968C108.061 34.0933 110.217 30.4267 112.036 25.968H104.336V22.932H128.536V25.968H115.292C113.62 30.104 111.669 33.5947 109.44 36.44C113.928 36.088 118.372 35.3987 122.772 34.372C121.892 32.524 121.012 30.852 120.132 29.356L122.904 28.432ZM108.252 14.308H124.356V17.256H108.252V14.308ZM137.864 8.588C137.072 10.348 136.148 11.8 135.092 12.944L132.54 11.096C134.74 8.72 136.148 5.44933 136.764 1.284L139.756 1.768C139.521 3.264 139.243 4.55466 138.92 5.64H144.024V0.184H147.192V5.64H155.42V8.588H147.192V14.264H156.696V17.212H147.192V21.832H155.772V33.448C155.772 36.0587 154.452 37.364 151.812 37.364H149.48L148.688 34.372L150.844 34.504C152.105 34.504 152.736 33.932 152.736 32.788V24.78H147.192V40.444H144.024V24.78H138.436V37.672H135.356V21.832H144.024V17.212H133.376V14.264H144.024V8.588H137.864ZM159.292 4.144H162.372V31.336H159.292V4.144ZM160.876 40.004L160.172 36.968C162.519 37.1147 164.543 37.188 166.244 37.188C167.593 37.188 168.268 36.484 168.268 35.076V0.184H171.392V35.868C171.392 38.6253 170.043 40.004 167.344 40.004H160.876Z" fill="white"/>
</svg>
