<svg width="460" height="141" viewBox="0 0 460 141" fill="none" xmlns="http://www.w3.org/2000/svg">
<path d="M41.202 112.156C33.3993 112.156 26.418 110.77 20.258 107.998C14.098 105.226 9.22133 101.068 5.628 95.524C2.13733 89.8773 0.392 82.8447 0.392 74.426V71.192H13.174V74.426C13.174 83.358 15.792 90.0313 21.028 94.446C26.264 98.758 32.9887 100.914 41.202 100.914C49.6207 100.914 56.0373 99.0147 60.452 95.216C64.8667 91.4173 67.074 86.6433 67.074 80.894C67.074 76.89 66.0473 73.7073 63.994 71.346C62.0433 68.9847 59.2713 67.0853 55.678 65.648C52.0847 64.108 47.8753 62.7733 43.05 61.644L35.042 59.642C28.7793 57.9993 23.2353 55.9973 18.41 53.636C13.5847 51.2747 9.786 48.1947 7.014 44.396C4.34467 40.4947 3.01 35.5153 3.01 29.458C3.01 23.4007 4.49867 18.1647 7.476 13.75C10.556 9.33533 14.8167 5.94733 20.258 3.58599C25.802 1.22466 32.1673 0.0439929 39.354 0.0439929C46.6433 0.0439929 53.1627 1.32733 58.912 3.894C64.764 6.358 69.3327 10.054 72.618 14.982C76.006 19.8073 77.7 25.916 77.7 33.308V39.776H64.918V33.308C64.918 28.072 63.7887 23.8627 61.53 20.68C59.374 17.4973 56.3453 15.136 52.444 13.596C48.6453 12.056 44.282 11.286 39.354 11.286C32.27 11.286 26.572 12.8773 22.26 16.06C17.948 19.14 15.792 23.5547 15.792 29.304C15.792 33.1027 16.716 36.1827 18.564 38.544C20.412 40.9053 23.03 42.856 26.418 44.396C29.806 45.8333 33.8613 47.1167 38.584 48.246L46.592 50.248C52.8547 51.5827 58.45 53.4307 63.378 55.792C68.4087 58.0507 72.4127 61.182 75.39 65.186C78.3673 69.0873 79.856 74.2207 79.856 80.586C79.856 86.9513 78.2647 92.4953 75.082 97.218C71.8993 101.941 67.382 105.637 61.53 108.306C55.7807 110.873 49.0047 112.156 41.202 112.156ZM97.1473 110V34.694H109.313V110H97.1473ZM103.307 22.99C100.638 22.99 98.3793 22.1173 96.5313 20.372C94.786 18.6267 93.9133 16.4193 93.9133 13.75C93.9133 10.978 94.786 8.71933 96.5313 6.974C98.3793 5.22866 100.638 4.35599 103.307 4.35599C105.977 4.35599 108.184 5.22866 109.929 6.974C111.675 8.71933 112.547 10.978 112.547 13.75C112.547 16.4193 111.675 18.6267 109.929 20.372C108.184 22.1173 105.977 22.99 103.307 22.99ZM128.119 72.732V70.576C128.119 62.6707 129.711 55.8947 132.893 50.248C136.076 44.6013 140.388 40.238 145.829 37.158C151.271 34.078 157.225 32.538 163.693 32.538C171.599 32.538 177.656 34.078 181.865 37.158C186.177 40.1353 189.36 43.472 191.413 47.168H193.569V34.694H205.119V127.556C205.119 131.663 203.99 134.897 201.731 137.258C199.473 139.619 196.187 140.8 191.875 140.8H140.747V130.02H188.641C191.721 130.02 193.261 128.48 193.261 125.4V96.756H191.105C189.873 99.0147 188.128 101.222 185.869 103.378C183.611 105.534 180.685 107.331 177.091 108.768C173.498 110.103 169.032 110.77 163.693 110.77C157.225 110.77 151.271 109.23 145.829 106.15C140.388 103.07 136.076 98.7067 132.893 93.06C129.711 87.3107 128.119 80.5347 128.119 72.732ZM166.927 99.99C174.73 99.99 181.044 97.526 185.869 92.598C190.797 87.67 193.261 80.894 193.261 72.27V71.038C193.261 62.3113 190.797 55.5353 185.869 50.71C181.044 45.782 174.73 43.318 166.927 43.318C159.227 43.318 152.862 45.782 147.831 50.71C142.903 55.5353 140.439 62.3113 140.439 71.038V72.27C140.439 80.894 142.903 87.67 147.831 92.598C152.862 97.526 159.227 99.99 166.927 99.99ZM227.542 110V34.694H239.4V47.476H241.556C243.199 43.8827 245.971 40.6487 249.872 37.774C253.876 34.7967 259.728 33.308 267.428 33.308C273.075 33.308 278.105 34.4887 282.52 36.85C287.037 39.2113 290.631 42.702 293.3 47.322C295.969 51.942 297.304 57.64 297.304 64.416V110H285.138V65.34C285.138 57.8453 283.239 52.404 279.44 49.016C275.744 45.628 270.713 43.934 264.348 43.934C257.059 43.934 251.104 46.2953 246.484 51.018C241.967 55.7407 239.708 62.7733 239.708 72.116V110H227.542ZM355.38 110V34.694H367.546V110H355.38ZM361.54 22.99C358.871 22.99 356.612 22.1173 354.764 20.372C353.019 18.6267 352.146 16.4193 352.146 13.75C352.146 10.978 353.019 8.71933 354.764 6.974C356.612 5.22866 358.871 4.35599 361.54 4.35599C364.209 4.35599 366.417 5.22866 368.162 6.974C369.907 8.71933 370.78 10.978 370.78 13.75C370.78 16.4193 369.907 18.6267 368.162 20.372C366.417 22.1173 364.209 22.99 361.54 22.99ZM390.048 110V34.694H401.906V47.476H404.062C405.705 43.8827 408.477 40.6487 412.378 37.774C416.382 34.7967 422.234 33.308 429.934 33.308C435.581 33.308 440.611 34.4887 445.026 36.85C449.543 39.2113 453.137 42.702 455.806 47.322C458.475 51.942 459.81 57.64 459.81 64.416V110H447.644V65.34C447.644 57.8453 445.745 52.404 441.946 49.016C438.25 45.628 433.219 43.934 426.854 43.934C419.565 43.934 413.61 46.2953 408.99 51.018C404.473 55.7407 402.214 62.7733 402.214 72.116V110H390.048Z" fill="black"/>
</svg>
