<svg width="375" height="91" viewBox="0 0 375 91" fill="none" xmlns="http://www.w3.org/2000/svg">
<path d="M81.304 10.208V85.376H74.584V79.52H54.904V85.376H48.184V10.208H81.304ZM54.904 72.8H74.584V16.928H54.904V72.8ZM23.128 1.856C22.04 8.256 20.984 13.984 19.96 19.04H39.928V23.072C38.968 38.816 35.288 52.384 28.888 63.776C34.84 68.32 39.608 72.256 43.192 75.584L38.488 81.152C34.84 77.568 30.424 73.728 25.24 69.632C19.992 77.184 13.368 83.712 5.368 89.216L0.76 83.552C8.504 78.56 14.904 72.512 19.96 65.408C13.88 60.736 8.408 56.672 3.544 53.216C6.424 44.96 9.048 35.808 11.416 25.76H0.184V19.04H12.856C14.264 11.872 15.352 5.952 16.12 1.27999L23.128 1.856ZM23.512 59.744C29.016 49.952 32.312 38.624 33.4 25.76H18.52C16.28 35.68 13.848 44.16 11.224 51.2C15.448 54.016 19.544 56.864 23.512 59.744ZM115.288 23.36C118.36 28.16 121.368 33.568 124.312 39.584L118.36 42.56C115.736 36.736 112.696 31.296 109.24 26.24L115.288 23.36ZM97.144 50.336V43.712H135.448V19.616H100.888V12.992H135.448V1.952H142.552V12.992H177.88V19.616H142.552V43.712H152.152C155.8 37.376 159 30.304 161.752 22.496L168.472 24.896C165.72 31.808 162.552 38.08 158.968 43.712H180.664V50.336H148.6C155.384 61.216 166.968 70.944 183.352 79.52L178.648 85.472C161.688 74.976 149.784 63.264 142.936 50.336H142.552V89.408H135.448V50.336H134.872C128.728 63.904 116.536 75.648 98.296 85.568L94.456 79.424C111.8 70.848 123.384 61.152 129.208 50.336H97.144ZM217.336 3.776C215.096 11.136 212.152 18.304 208.504 25.28V89.792H201.88V36.128C199 40.224 195.928 44.16 192.664 47.936L190.456 40.832C199.928 28.992 206.808 15.68 211.096 0.895994L217.336 3.776ZM223.864 37.952L222.232 50.816H231.832C232.28 47.232 232.6 42.944 232.792 37.952H223.864ZM239.416 37.952C239.224 42.88 238.904 47.168 238.456 50.816H249.784V37.952H239.416ZM256.408 37.952V50.816H276.568C276.568 63.232 275.928 71.104 274.648 74.432C273.24 77.952 270.168 79.776 265.432 79.904C264.216 79.904 262.648 79.84 260.728 79.712L259 73.376C261.56 73.632 263.32 73.76 264.28 73.76C266.968 73.76 268.6 72.416 269.176 69.728C269.752 67.424 270.04 63.168 270.04 56.96H256.408V89.696H249.784V56.96H237.592C236.568 62.336 235.352 66.848 233.944 70.496C230.616 78.816 225.08 85.344 217.336 90.08L213.592 84.128C220.76 79.52 225.784 73.376 228.664 65.696C229.56 62.88 230.296 59.968 230.872 56.96H215.32L218.104 31.904H232.888V19.136H218.2V12.896H232.888V1.952H239.512V12.896H249.784V1.952H256.408V12.896H273.304V37.952H256.408ZM239.512 19.136V31.904H249.784V19.136H239.512ZM256.408 19.136V31.904H267.064V19.136H256.408ZM302.2 49.088C298.296 53.184 293.944 57.248 289.144 61.28L287.032 53.984C300.024 43.104 308.696 32.384 313.048 21.824H289.336V15.104H304.504C302.84 10.752 300.92 6.656 298.744 2.816L305.464 0.895994C307.896 6.016 309.688 10.4 310.84 14.048L308.056 15.104H320.056V21.056C317.816 27.648 314.136 34.272 309.016 40.928C313.944 43.936 318.552 47.552 322.84 51.776L319.096 57.536C315.832 53.888 312.472 50.688 309.016 47.936V89.216H302.2V49.088ZM367.192 5.408V79.808H374.872V86.528H317.848V79.808H327.064V5.408H367.192ZM333.88 79.808H360.472V61.184H333.88V79.808ZM333.88 54.656H360.472V36.224H333.88V54.656ZM333.88 29.696H360.472V12.032H333.88V29.696Z" fill="black"/>
</svg>
