<svg width="786" height="82" viewBox="0 0 786 82" fill="none" xmlns="http://www.w3.org/2000/svg">
<path d="M16.128 63V23.064H1.728V18.2H35.904V23.064H21.504V63H16.128ZM42.3745 63V31.704H47.4305V63H42.3745ZM44.9345 26.84C43.8252 26.84 42.8865 26.4773 42.1185 25.752C41.3932 25.0267 41.0305 24.1093 41.0305 23C41.0305 21.848 41.3932 20.9093 42.1185 20.184C42.8865 19.4587 43.8252 19.096 44.9345 19.096C46.0438 19.096 46.9612 19.4587 47.6865 20.184C48.4118 20.9093 48.7745 21.848 48.7745 23C48.7745 24.1093 48.4118 25.0267 47.6865 25.752C46.9612 26.4773 46.0438 26.84 44.9345 26.84ZM58.062 75.8V31.704H62.99V36.888H63.886C64.6967 35.3093 65.998 33.9013 67.79 32.664C69.6247 31.4267 72.1633 30.808 75.406 30.808C78.094 30.808 80.5473 31.4693 82.766 32.792C85.0273 34.072 86.8193 35.9067 88.142 38.296C89.5073 40.6853 90.19 43.5653 90.19 46.936V47.768C90.19 51.096 89.5287 53.976 88.206 56.408C86.8833 58.84 85.0913 60.696 82.83 61.976C80.6113 63.256 78.1367 63.896 75.406 63.896C73.23 63.896 71.374 63.5973 69.838 63C68.3447 62.4453 67.1287 61.72 66.19 60.824C65.2513 59.928 64.526 59.0107 64.014 58.072H63.118V75.8H58.062ZM74.062 59.416C77.3047 59.416 79.9287 58.392 81.934 56.344C83.982 54.2533 85.006 51.352 85.006 47.64V47.064C85.006 43.352 83.982 40.472 81.934 38.424C79.9287 36.3333 77.3047 35.288 74.062 35.288C70.862 35.288 68.2167 36.3333 66.126 38.424C64.078 40.472 63.054 43.352 63.054 47.064V47.64C63.054 51.352 64.078 54.2533 66.126 56.344C68.2167 58.392 70.862 59.416 74.062 59.416ZM111.858 63.896C107.975 63.896 104.69 63 102.002 61.208C99.3562 59.416 97.7562 56.5787 97.2015 52.696L102.002 51.608C102.343 53.656 102.983 55.2773 103.922 56.472C104.86 57.624 106.012 58.456 107.378 58.968C108.786 59.4373 110.279 59.672 111.858 59.672C114.204 59.672 116.06 59.2027 117.426 58.264C118.791 57.3253 119.474 56.0667 119.474 54.488C119.474 52.8667 118.812 51.736 117.49 51.096C116.21 50.4133 114.439 49.8587 112.178 49.432L109.554 48.984C107.548 48.6427 105.714 48.1093 104.05 47.384C102.386 46.6587 101.063 45.6773 100.082 44.44C99.1002 43.2027 98.6095 41.6453 98.6095 39.768C98.6095 36.952 99.6975 34.7547 101.874 33.176C104.05 31.5973 106.93 30.808 110.514 30.808C114.055 30.808 116.914 31.6187 119.09 33.24C121.308 34.8187 122.738 37.0587 123.378 39.96L118.642 41.176C118.258 38.9147 117.34 37.336 115.89 36.44C114.439 35.5013 112.647 35.032 110.514 35.032C108.38 35.032 106.695 35.4373 105.458 36.248C104.22 37.016 103.602 38.168 103.602 39.704C103.602 41.1973 104.178 42.3067 105.33 43.032C106.524 43.7147 108.103 44.2267 110.066 44.568L112.69 45.016C114.908 45.4 116.892 45.9333 118.642 46.616C120.434 47.256 121.842 48.1947 122.866 49.432C123.932 50.6693 124.466 52.2907 124.466 54.296C124.466 57.368 123.314 59.736 121.01 61.4C118.748 63.064 115.698 63.896 111.858 63.896ZM144.135 63V21.656H143.176L134.472 37.592H128.84L139.528 18.2H149.32V63H144.135Z" fill="black"/>
<path d="M461.4 25.256V34.712H458.088V28.376H438.936V34.904H435.672V25.256H446.712C446.168 23.56 445.464 21.8 444.6 19.976L448.104 19.4C448.808 21.064 449.496 23.016 450.168 25.256H461.4ZM447.96 31.688C447.416 33.96 446.728 36.44 445.896 39.128H462.936V42.44H457.176C456.408 47.24 454.744 51.24 452.184 54.44C456.312 56.712 459.944 58.936 463.08 61.112L460.728 63.848C457.944 61.832 454.344 59.512 449.928 56.888C446.568 59.864 441.16 62.232 433.704 63.992L432.312 60.728C438.616 59.288 443.4 57.368 446.664 54.968C443.88 53.368 440.904 51.736 437.736 50.072C438.984 47.768 440.152 45.224 441.24 42.44H434.52V39.128H442.392C443.16 36.728 443.896 34.152 444.6 31.4L447.96 31.688ZM444.744 42.44C443.72 45.128 442.744 47.304 441.816 48.968L449.112 52.76C451.48 50.072 453.064 46.632 453.864 42.44H444.744ZM420.552 63.368L419.832 60.008C421.496 60.136 422.696 60.2 423.432 60.2C424.616 60.2 425.208 59.576 425.208 58.328V46.76C423.128 47.528 421.224 48.184 419.496 48.728L418.632 45.272C420.808 44.76 423 44.104 425.208 43.304V32.312H419.592V29H425.208V19.928H428.76V29H433.272V32.312H428.76V41.912C430.264 41.24 431.752 40.52 433.224 39.752V43.256C432.232 43.736 430.744 44.424 428.76 45.32V59.192C428.76 61.976 427.384 63.368 424.632 63.368H420.552ZM504.936 25.16H496.632L495.384 39.416H504.216L504.936 25.16ZM492.024 39.416L493.272 25.16H487.176V21.896H508.488L506.76 59H511.08V62.36H484.488V59H490.296L491.736 42.776H485.928V39.416H492.024ZM493.608 59H503.304L504.072 42.776H495.096L493.608 59ZM476.712 20.552C476.424 21.64 475.96 23.208 475.32 25.256H484.152V28.472H474.168C472.856 31.768 471.368 34.728 469.704 37.352L466.872 35.576C469.848 30.872 472.008 25.64 473.352 19.88L476.712 20.552ZM471.912 34.904H483.336V38.024H478.344V43.928H484.968V47.096H478.344V58.424C480.36 57.592 482.36 56.536 484.344 55.256L484.968 58.328C482.184 59.992 478.856 61.4 474.984 62.552L473.496 59.576C474.456 59.192 474.936 58.664 474.936 57.992V47.096H468.36V43.928H474.936V38.024H471.912V34.904ZM541.704 26.168H532.44V22.856H557.4C557.4 39.624 557.176 50.072 556.728 54.2C556.248 59.896 553.912 62.744 549.72 62.744L543.528 62.552L542.664 59.384C546.056 59.512 548.232 59.576 549.192 59.576C551.592 59.576 552.984 57.32 553.368 52.808C553.656 49.864 553.848 40.984 553.944 26.168H545.16V30.776C544.968 45.912 539.992 56.984 530.232 63.992L527.352 61.496C536.792 55.096 541.576 44.856 541.704 30.776V26.168ZM534.6 30.584L535.176 33.944L524.28 36.104V51.224C527.064 50.072 529.848 48.68 532.632 47.048L533.544 50.168C529.832 52.504 525.272 54.6 519.864 56.456L518.856 53.096C520.136 52.616 520.776 51.8 520.776 50.648V36.776L515.016 37.928L514.488 34.568L520.776 33.32V20.456H524.28V32.648L534.6 30.584ZM604.056 33.032V46.088H607.08V49.256H594.984C597.512 54.088 601.624 57.912 607.32 60.728L605.736 63.992C599.368 60.44 594.84 55.768 592.152 49.976C590.136 55.544 585.576 60.2 578.472 63.944L576.216 61.064C582.744 57.992 586.968 54.056 588.888 49.256H577.704V46.088H581.112V33.032H592.056C593.528 30.984 594.904 28.76 596.184 26.36H587.832C585.816 29.144 583.208 31.624 580.008 33.8L577.992 31.112C582.792 27.944 586.056 24.072 587.784 19.496L591.144 19.928C590.664 21.24 590.168 22.392 589.656 23.384H599.832V25.88C598.456 28.632 597.032 31.016 595.56 33.032H604.056ZM584.184 46.088H589.848C590.424 43.304 590.76 39.96 590.856 36.056H584.184V46.088ZM600.984 46.088V36.056H594.024C593.928 40.056 593.64 43.4 593.16 46.088H600.984ZM564.456 63.272L563.736 59.96C565.112 60.12 566.312 60.2 567.336 60.2C568.616 60.2 569.256 59.48 569.256 58.04V46.568C567.56 47.24 565.64 47.928 563.496 48.632L562.632 45.176C565.032 44.568 567.24 43.88 569.256 43.112V31.928H563.544V28.616H569.256V19.832H572.712V28.616H577.608V31.928H572.712V41.72C574.376 40.984 576.072 40.12 577.8 39.128V42.632C575.56 43.784 573.864 44.616 572.712 45.128V58.952C572.712 61.832 571.32 63.272 568.536 63.272H564.456ZM621.912 20.072H625.32V63.656H621.912V46.952C619 50.056 615.72 52.952 612.072 55.64L611.016 52.04C615.016 49.384 618.648 46.328 621.912 42.872V20.072ZM614.904 24.824C616.728 28.632 618.312 32.744 619.656 37.16L616.632 38.552C615.16 33.848 613.496 29.624 611.64 25.88L614.904 24.824ZM647.304 20.744C649.8 23.528 651.784 26.056 653.256 28.328L650.568 30.248C649.224 28.008 647.24 25.4 644.616 22.424L647.304 20.744ZM641.976 19.928C641.976 23.448 641.928 27.704 641.832 32.696H653.544V36.008H642.216C644.296 46.824 648.632 55.144 655.224 60.968L652.872 63.56C646.824 57.864 642.744 50.632 640.632 41.864C638.616 50.536 634.856 57.816 629.352 63.704L627.048 61.112C633.48 53.912 637.176 45.544 638.136 36.008H628.488V32.696H638.328C638.488 26.52 638.568 22.264 638.568 19.928H641.976ZM682.728 19.688C682.568 21.192 682.264 22.904 681.816 24.824H700.344V28.136H684.984C687.32 33.448 693.272 37.592 702.84 40.568L701.016 43.544C690.392 39.8 683.88 34.664 681.48 28.136H680.76C679.704 30.952 678.28 33.368 676.488 35.384C676.264 35.608 676.104 35.784 676.008 35.912C677.992 37.288 680.328 39.208 683.016 41.672L680.616 44.072C678.312 41.768 676.008 39.704 673.704 37.88C670.6 40.184 666.12 42.12 660.264 43.688L658.92 40.52C665.704 38.792 670.632 36.328 673.704 33.128C674.984 31.784 676.072 30.12 676.968 28.136H661.224V24.824H678.168C678.712 23.032 679.08 21.208 679.272 19.352L682.728 19.688ZM667.272 48.44C666.12 53.4 664.504 57.72 662.424 61.4L659.448 59.528C661.496 55.944 662.968 52.008 663.864 47.72L667.272 48.44ZM682.056 45.992C683.784 48.552 685.256 51.24 686.472 54.056L683.304 55.448C681.896 52.088 680.472 49.256 679.032 46.952L682.056 45.992ZM696.408 47C698.712 50.552 700.728 54.392 702.456 58.52L699.288 59.912C697.432 55.432 695.368 51.48 693.096 48.056L696.408 47ZM675.72 62.792C672.488 62.792 670.872 61.192 670.872 57.992V47.576H674.424V57.272C674.424 58.712 675.208 59.432 676.776 59.432H687C688.024 59.432 688.744 59.144 689.16 58.568C689.736 57.896 690.12 55.912 690.312 52.616L693.576 53.672C693.256 57.928 692.6 60.552 691.608 61.544C690.712 62.376 689.384 62.792 687.624 62.792H675.72Z" fill="black"/>
<path d="M223.416 24.68H235.992V19.784H239.496V24.68H252.696V27.992H239.496V32.552H250.728V46.136H239.304C238.92 50.456 238.088 53.8 236.808 56.168C241.608 58.792 247.16 60.28 253.464 60.632L252.6 63.944C245.848 63.496 239.944 61.8 234.888 58.856C232.296 61.48 228.216 63.208 222.648 64.04L221.16 60.872C226.088 60.328 229.656 59 231.864 56.888C229.016 54.872 226.488 52.44 224.28 49.592L226.92 47.768C228.936 50.296 231.24 52.488 233.832 54.344C234.856 52.2 235.512 49.464 235.8 46.136H225.048V32.552H235.992V27.992H223.416V24.68ZM247.464 43.016V35.624H239.496V42.44L239.448 43.016H247.464ZM235.944 43.016L235.992 42.44V35.624H228.312V43.016H235.944ZM214.632 37.112C213 39.416 211.336 41.48 209.64 43.304L208.488 39.656C213.48 33.8 217.08 27.08 219.288 19.496L222.552 20.984C221.336 24.76 219.848 28.296 218.088 31.592V63.896H214.632V37.112ZM265.224 36.536V44.936H277.416V36.536H265.224ZM265.032 48.104C264.488 54.28 262.696 59.368 259.656 63.368L257.016 61.016C260.088 56.728 261.672 51.304 261.768 44.744V21.704H297.528V57.656C297.528 61.016 295.848 62.696 292.488 62.696H286.968L286.056 59.288C288.616 59.416 290.392 59.48 291.384 59.48C293.144 59.48 294.024 58.472 294.024 56.456V48.104H280.968V62.168H277.416V48.104H265.032ZM294.024 44.936V36.536H280.968V44.936H294.024ZM294.024 33.32V25.064H280.968V33.32H294.024ZM277.416 25.064H265.224V33.32H277.416V25.064Z" fill="black"/>
<rect x="323" y="19" width="74" height="44" rx="22" fill="black" fill-opacity="0.2"/>
<circle cx="345" cy="41" r="17" fill="white"/>
<g clip-path="url(#clip0_247_49)">
<path d="M353.083 41.1667C353.774 41.1667 354.333 40.607 354.333 39.9167V35.75C354.333 35.0596 353.774 34.5 353.083 34.5H349.75C349.059 34.5 348.5 35.0596 348.5 35.75V37H341.5V35.75C341.5 35.0596 340.94 34.5 340.25 34.5H336.917C336.226 34.5 335.667 35.0596 335.667 35.75V39.9167C335.667 40.607 336.226 41.1667 336.917 41.1667H340.25C340.94 41.1667 341.5 40.607 341.5 39.9167V38.6667H344.167V46.5833C344.167 46.8135 344.353 47 344.583 47H348.5V48.25C348.5 48.9404 349.059 49.5 349.75 49.5H353.083C353.774 49.5 354.333 48.9404 354.333 48.25V44.0833C354.333 43.393 353.774 42.8333 353.083 42.8333H349.75C349.059 42.8333 348.5 43.393 348.5 44.0833V45.3333H345.833V38.6667H348.5V39.9167C348.5 40.607 349.059 41.1667 349.75 41.1667H353.083Z" fill="#4318FF"/>
</g>
<defs>
<clipPath id="clip0_247_49">
<rect width="20" height="20" fill="white" transform="translate(335 31)"/>
</clipPath>
</defs>
</svg>
