<svg width="786" height="151" viewBox="0 0 786 151" fill="none" xmlns="http://www.w3.org/2000/svg">
<path d="M16.128 63V23.064H1.728V18.2H35.904V23.064H21.504V63H16.128ZM42.3745 63V31.704H47.4305V63H42.3745ZM44.9345 26.84C43.8252 26.84 42.8865 26.4773 42.1185 25.752C41.3932 25.0267 41.0305 24.1093 41.0305 23C41.0305 21.848 41.3932 20.9093 42.1185 20.184C42.8865 19.4587 43.8252 19.096 44.9345 19.096C46.0438 19.096 46.9612 19.4587 47.6865 20.184C48.4118 20.9093 48.7745 21.848 48.7745 23C48.7745 24.1093 48.4118 25.0267 47.6865 25.752C46.9612 26.4773 46.0438 26.84 44.9345 26.84ZM58.062 75.8V31.704H62.99V36.888H63.886C64.6967 35.3093 65.998 33.9013 67.79 32.664C69.6247 31.4267 72.1633 30.808 75.406 30.808C78.094 30.808 80.5473 31.4693 82.766 32.792C85.0273 34.072 86.8193 35.9067 88.142 38.296C89.5073 40.6853 90.19 43.5653 90.19 46.936V47.768C90.19 51.096 89.5287 53.976 88.206 56.408C86.8833 58.84 85.0913 60.696 82.83 61.976C80.6113 63.256 78.1367 63.896 75.406 63.896C73.23 63.896 71.374 63.5973 69.838 63C68.3447 62.4453 67.1287 61.72 66.19 60.824C65.2513 59.928 64.526 59.0107 64.014 58.072H63.118V75.8H58.062ZM74.062 59.416C77.3047 59.416 79.9287 58.392 81.934 56.344C83.982 54.2533 85.006 51.352 85.006 47.64V47.064C85.006 43.352 83.982 40.472 81.934 38.424C79.9287 36.3333 77.3047 35.288 74.062 35.288C70.862 35.288 68.2167 36.3333 66.126 38.424C64.078 40.472 63.054 43.352 63.054 47.064V47.64C63.054 51.352 64.078 54.2533 66.126 56.344C68.2167 58.392 70.862 59.416 74.062 59.416ZM111.858 63.896C107.975 63.896 104.69 63 102.002 61.208C99.3562 59.416 97.7562 56.5787 97.2015 52.696L102.002 51.608C102.343 53.656 102.983 55.2773 103.922 56.472C104.86 57.624 106.012 58.456 107.378 58.968C108.786 59.4373 110.279 59.672 111.858 59.672C114.204 59.672 116.06 59.2027 117.426 58.264C118.791 57.3253 119.474 56.0667 119.474 54.488C119.474 52.8667 118.812 51.736 117.49 51.096C116.21 50.4133 114.439 49.8587 112.178 49.432L109.554 48.984C107.548 48.6427 105.714 48.1093 104.05 47.384C102.386 46.6587 101.063 45.6773 100.082 44.44C99.1002 43.2027 98.6095 41.6453 98.6095 39.768C98.6095 36.952 99.6975 34.7547 101.874 33.176C104.05 31.5973 106.93 30.808 110.514 30.808C114.055 30.808 116.914 31.6187 119.09 33.24C121.308 34.8187 122.738 37.0587 123.378 39.96L118.642 41.176C118.258 38.9147 117.34 37.336 115.89 36.44C114.439 35.5013 112.647 35.032 110.514 35.032C108.38 35.032 106.695 35.4373 105.458 36.248C104.22 37.016 103.602 38.168 103.602 39.704C103.602 41.1973 104.178 42.3067 105.33 43.032C106.524 43.7147 108.103 44.2267 110.066 44.568L112.69 45.016C114.908 45.4 116.892 45.9333 118.642 46.616C120.434 47.256 121.842 48.1947 122.866 49.432C123.932 50.6693 124.466 52.2907 124.466 54.296C124.466 57.368 123.314 59.736 121.01 61.4C118.748 63.064 115.698 63.896 111.858 63.896ZM131.08 63V58.328C131.08 55.128 131.634 52.568 132.744 50.648C133.896 48.728 135.474 47.192 137.48 46.04C139.528 44.8453 141.96 43.8213 144.776 42.968L148.296 41.88C150.216 41.2827 151.901 40.5573 153.352 39.704C154.802 38.808 155.933 37.6987 156.744 36.376C157.554 35.0107 157.96 33.3467 157.96 31.384V31.128C157.96 28.312 156.978 26.0933 155.016 24.472C153.053 22.808 150.536 21.976 147.464 21.976C144.221 21.976 141.576 22.8507 139.528 24.6C137.48 26.3067 136.456 28.9093 136.456 32.408V33.304H131.336V32.472C131.336 29.2293 132.04 26.4773 133.448 24.216C134.856 21.9547 136.776 20.248 139.208 19.096C141.64 17.9013 144.392 17.304 147.464 17.304C150.536 17.304 153.245 17.88 155.592 19.032C157.981 20.184 159.837 21.784 161.16 23.832C162.482 25.88 163.144 28.2693 163.144 31V31.576C163.144 34.4773 162.568 36.888 161.416 38.808C160.264 40.6853 158.664 42.2213 156.616 43.416C154.61 44.6107 152.242 45.6347 149.512 46.488L146.056 47.576C143.88 48.2587 142.066 48.984 140.616 49.752C139.208 50.4773 138.141 51.416 137.416 52.568C136.69 53.72 136.328 55.2773 136.328 57.24V58.328H162.76V63H131.08Z" fill="black"/>
<path d="M233.448 42.296C236.04 42.904 238.6 43.8 241.128 44.984L240.024 47.72C237.592 46.472 235 45.448 232.248 44.648L233.448 42.296ZM233.4 49.352C236.024 50.024 238.552 51.064 240.984 52.472L239.88 55.208C237.416 53.704 234.856 52.536 232.2 51.704L233.4 49.352ZM218.088 42.248C220.84 42.856 223.496 43.768 226.056 44.984L224.952 47.72C222.52 46.472 219.816 45.432 216.84 44.6L218.088 42.248ZM217.992 49.304C220.52 49.944 223.096 50.968 225.72 52.376L224.616 55.112C222.152 53.64 219.528 52.488 216.744 51.656L217.992 49.304ZM215.16 31.304V35.288H244.152V31.304H232.392V28.52H244.152V24.44H232.008V21.512H247.464V38.264H211.848V22.184C217.48 21.96 222.312 21.288 226.344 20.168L227.976 22.856C224.776 23.688 220.504 24.344 215.16 24.824V28.52H227.208V31.304H215.16ZM248.664 63.512C247.64 63.512 246.696 63.08 245.832 62.216C244.712 61.032 243.912 59.464 243.432 57.512C242.76 54.92 242.424 49.256 242.424 40.52H245.736C245.736 49.352 246.072 54.92 246.744 57.224C247.288 59.048 247.864 60.008 248.472 60.104C249.304 60.008 250.008 57.672 250.584 53.096L253.272 54.968C252.44 60.664 250.904 63.512 248.664 63.512ZM210.984 60.728C211.688 60.44 212.04 59.896 212.04 59.096V40.616H215.448V59.768C217.816 59.288 220.04 58.664 222.12 57.896L222.696 60.92C219.656 61.88 216.008 62.76 211.752 63.56L210.984 60.728ZM226.392 60.776C227.192 60.488 227.592 59.976 227.592 59.24V40.616H231V59.768C234.2 59.16 237.256 58.36 240.168 57.368L240.792 60.392C236.6 61.704 232.04 62.776 227.112 63.608L226.392 60.776ZM264.168 19.928H267.576V29H273.144V32.312H267.576V36.008C269.848 38.344 272.2 41.016 274.632 44.024L272.664 46.952C270.68 43.912 268.984 41.496 267.576 39.704V63.752H264.168V39.704C262.632 44.312 260.664 48.488 258.264 52.232L256.776 48.488C260.168 43.848 262.6 38.456 264.072 32.312H258.312V29H264.168V19.928ZM281.496 42.344C279.992 48.936 277.768 54.728 274.824 59.72L271.848 57.8C274.824 52.936 276.984 47.544 278.328 41.624L281.496 42.344ZM295.704 41.384C297.72 46.792 299.448 52.584 300.888 58.76L297.768 60.152C296.2 53.528 294.472 47.608 292.584 42.392L295.704 41.384ZM280.056 63.272L279.384 60.056C281.432 60.184 282.888 60.248 283.752 60.248C285.064 60.248 285.72 59.544 285.72 58.136V37.64H274.008V34.328H300.936V37.64H289.176V59C289.176 61.848 287.768 63.272 284.952 63.272H280.056ZM276.552 22.664H298.44V25.928H276.552V22.664ZM340.728 21.224V38.984H348.216V42.008H337.56C339.544 43.64 341.912 45.896 344.664 48.776L342.408 51.032C341.256 49.752 340.392 48.824 339.816 48.248C330.664 48.952 321.16 49.512 311.304 49.928L310.632 47.096C310.888 47 311.096 46.904 311.256 46.808C312.856 46.168 314.856 44.568 317.256 42.008H305.784V38.984H313.464V21.224H340.728ZM317.016 38.984H337.176V35.816H317.016V38.984ZM317.016 33.272H337.176V29.96H317.016V33.272ZM317.016 27.416H337.176V24.056H317.016V27.416ZM335.112 42.008H321.144C319.352 43.992 317.656 45.592 316.056 46.808C323.096 46.52 330.136 46.136 337.176 45.656C335.832 44.44 334.808 43.544 334.104 42.968L335.112 42.008ZM313.08 52.664C311.96 56.408 310.296 59.688 308.088 62.504L305.112 60.632C307.224 58.04 308.76 55.16 309.72 51.992L313.08 52.664ZM321.96 63.128C318.632 63.128 316.968 61.672 316.968 58.76V52.424H320.472V58.04C320.472 59.352 321.304 60.008 322.968 60.008H332.952C334.008 60.008 334.728 59.816 335.112 59.432C335.688 58.952 336.072 57.512 336.264 55.112L339.528 56.216C339.176 59.48 338.52 61.48 337.56 62.216C336.664 62.824 335.336 63.128 333.576 63.128H321.96ZM327.576 50.408C329.688 52.552 331.32 54.424 332.472 56.024L329.736 57.944C328.552 56.12 326.968 54.168 324.984 52.088L327.576 50.408ZM342.504 51.656C345.288 54.728 347.464 57.464 349.032 59.864L346.152 61.88C344.616 59.352 342.472 56.52 339.72 53.384L342.504 51.656ZM366.36 47.624H380.808V44.024C383.208 42.584 385.528 41.144 387.768 39.704H369.144V36.488H393V39.032C390.728 40.792 387.8 42.888 384.216 45.32V47.624H396.888V50.984H384.216V58.952C384.216 61.832 382.792 63.272 379.944 63.272H373.56L372.6 60.008C375.992 60.136 377.992 60.2 378.6 60.2C380.072 60.2 380.808 59.464 380.808 57.992V50.984H366.36V47.624ZM394.488 26.12C393.336 29.48 391.896 32.456 390.168 35.048L387.144 33.992C388.744 31.752 390.152 28.84 391.368 25.256L394.488 26.12ZM380.52 26.504C381.672 28.904 382.616 31.256 383.352 33.56L380.52 34.616C379.624 31.992 378.632 29.56 377.544 27.32L380.52 26.504ZM370.584 27.08C371.704 29.224 372.712 31.64 373.608 34.328L370.632 35.048C369.928 32.776 368.952 30.424 367.704 27.992L370.584 27.08ZM394.824 22.568C387.848 24.424 378.744 25.352 367.512 25.352L366.504 22.472C377.128 22.472 386.04 21.592 393.24 19.832L394.824 22.568ZM356.424 20.6C359.784 23.032 362.584 25.416 364.824 27.752L362.472 30.104C360.488 27.928 357.672 25.512 354.024 22.856L356.424 20.6ZM355.704 31.832C358.968 34.424 361.592 36.904 363.576 39.272L361.224 41.624C359.24 39.192 356.616 36.696 353.352 34.136L355.704 31.832ZM363.912 46.232C361.864 52.344 359.608 58.04 357.144 63.32L353.976 61.928C356.696 56.36 359 50.728 360.888 45.032L363.912 46.232ZM408.744 38.072H421.416V27.272H421.128C417.384 31.88 411.304 35.704 402.888 38.744L401.064 35.672C408.68 33.464 414.392 30.664 418.2 27.272H403.368V24.104H421.416V19.688H424.776V24.104H442.824V27.272H428.088C431.704 30.792 437.288 33.56 444.84 35.576L443.352 38.696C434.68 35.752 428.584 31.944 425.064 27.272H424.776V38.072H437.4V55.4H408.744V38.072ZM434.04 52.328V48.296H412.104V52.328H434.04ZM412.104 45.32H434.04V41.144H412.104V45.32ZM402.408 59.192H443.64V62.408H402.408V59.192ZM452.856 28.616H468.072L469.56 25.112C464.856 25.4 459.768 25.544 454.296 25.544L453.288 22.664C466.92 22.664 478.216 21.752 487.176 19.928L488.76 22.664C484.312 23.656 479.016 24.392 472.872 24.872C472.52 25.928 472.056 27.176 471.48 28.616H489.336V31.592H470.088C469.704 32.36 469.096 33.448 468.264 34.856H492.12V37.928H466.152C465.192 39.208 464.312 40.312 463.512 41.24H487.32V63.848H484.008V61.784H462.312V63.848H459V45.848C456.376 48.216 453.672 50.344 450.888 52.232L449.016 49.256C454.296 45.672 458.616 41.896 461.976 37.928H450.264V34.856H464.376C465.176 33.704 465.88 32.616 466.488 31.592H452.856V28.616ZM462.312 49.976V53H484.008V49.976H462.312ZM484.008 47.288V44.072H462.312V47.288H484.008ZM462.312 55.688V58.952H484.008V55.688H462.312ZM517.08 30.248H529.032C530.888 26.952 532.456 23.496 533.736 19.88L536.904 21.08C535.432 24.792 533.96 27.848 532.488 30.248H539.64V33.512H529.8V34.952C529.8 37.192 529.672 39.464 529.416 41.768H540.456V45.08H530.52C531.672 50.36 535.224 55.736 541.176 61.208L538.776 63.752C533.272 58.28 529.816 52.872 528.408 47.528C526.552 54.92 522.872 60.392 517.368 63.944L515.304 61.208C520.712 57.944 524.152 52.568 525.624 45.08H516.36V41.768H526.104C526.328 39.656 526.456 37.64 526.488 35.72V33.512H517.08V30.248ZM521.832 20.168C523.752 22.984 525.24 25.48 526.296 27.656L523.704 29.432C522.616 27.16 521.112 24.632 519.192 21.848L521.832 20.168ZM497.208 21.752H516.312V24.968H513.192V51.32C513.928 51.064 515 50.712 516.408 50.264V53.624C515.192 54.008 514.12 54.328 513.192 54.584V64.04H509.88V55.496C505.432 56.616 501.464 57.496 497.976 58.136L497.112 54.872L500.136 54.392V24.968H497.208V21.752ZM503.448 53.768C505.912 53.224 508.056 52.728 509.88 52.28V45.176H503.448V53.768ZM503.448 42.008H509.88V35.144H503.448V42.008ZM503.448 32.024H509.88V24.968H503.448V32.024ZM566.76 21.704H585.192V45.512H566.76V21.704ZM581.832 42.44V38.408H570.12V42.44H581.832ZM570.12 35.576H581.832V31.688H570.12V35.576ZM570.12 28.808H581.832V24.776H570.12V28.808ZM557.208 46.232H553.752V33.368C551.672 37.24 549.112 40.792 546.072 44.024L544.776 40.76C548.52 37.4 551.48 33.432 553.656 28.856H545.832V25.688H553.752V20.36H557.208V25.688H563.592V28.856H557.208V31.112C559.576 32.808 562.12 34.808 564.84 37.112L562.92 39.992C560.776 37.56 558.872 35.592 557.208 34.088V46.232ZM553.512 49.688C552.264 54.36 550.536 58.36 548.328 61.688L545.352 59.816C547.56 56.552 549.144 52.936 550.104 48.968L553.512 49.688ZM561.432 62.792C558.36 62.792 556.824 61.192 556.824 57.992V48.344H560.328V57.272C560.328 58.712 561.048 59.432 562.488 59.432H572.808C573.832 59.432 574.6 59.176 575.112 58.664C575.72 57.992 576.12 56.184 576.312 53.24L579.576 54.344C579.224 58.344 578.536 60.792 577.512 61.688C576.616 62.424 575.256 62.792 573.432 62.792H561.432ZM566.712 47.432C569.08 49.96 570.872 52.104 572.088 53.864L569.352 55.784C567.944 53.64 566.168 51.416 564.024 49.112L566.712 47.432ZM581.688 47.672C584.888 51.736 587.352 55.304 589.08 58.376L586.152 60.44C584.328 57.112 581.912 53.448 578.904 49.448L581.688 47.672ZM610.776 57.464C605.944 59.224 600.392 60.68 594.12 61.832L593.688 58.472C600.088 57.448 605.784 56.024 610.776 54.2V57.464ZM605.112 20.888C602.68 27.064 600.2 32.056 597.672 35.864C599.848 35.576 602.12 35.24 604.488 34.856L607.32 29.528L610.344 30.632C605.992 38.696 602.344 44.472 599.4 47.96C603.048 47.224 606.648 46.264 610.2 45.08V48.152C605.016 49.912 600.024 51.112 595.224 51.752L594.312 48.632C594.952 48.344 595.48 48.008 595.896 47.624C597.752 45.736 600.008 42.552 602.664 38.072C600.616 38.392 597.864 38.792 594.408 39.272L593.544 36.104C594.088 35.848 594.568 35.416 594.984 34.808C597.672 30.36 599.976 25.304 601.896 19.64L605.112 20.888ZM610.2 25.736H621.672V19.928H625.176V25.736H636.6V29.096H625.176V36.2H635.208V39.56H611.784V36.2H621.672V29.096H610.2V25.736ZM633.816 44.36V63.656H630.456V61.352H616.728V63.656H613.32V44.36H633.816ZM616.728 58.088H630.456V47.624H616.728V58.088ZM646.872 21.704H678.888V40.28H664.776V44.648H683.88V47.912H667.848C671.272 52.264 676.968 56.12 684.936 59.48L682.584 62.504C674.232 58.12 668.376 53.256 665.016 47.912H664.776V63.752H661.224V47.912H661.032C657.384 53.832 651.4 58.68 643.08 62.456L641.112 59.288C648.952 56.312 654.616 52.52 658.104 47.912H642.12V44.648H661.224V40.28H646.872V21.704ZM675.48 37.256V32.6H664.776V37.256H675.48ZM661.224 37.256V32.6H650.328V37.256H661.224ZM650.328 29.576H661.224V24.776H650.328V29.576ZM664.776 24.776V29.576H675.48V24.776H664.776ZM695.736 53.336C698.04 53.336 699.192 54.888 699.192 57.992C699.192 62.12 697.384 65.176 693.768 67.16L692.472 65.096C694.968 63.464 696.312 61.4 696.504 58.904C696.248 58.968 695.992 59 695.736 59C694.936 59 694.232 58.744 693.624 58.232C693.08 57.72 692.808 57.048 692.808 56.216C692.808 55.256 693.08 54.552 693.624 54.104C694.168 53.592 694.872 53.336 695.736 53.336ZM761.448 42.296C764.04 42.904 766.6 43.8 769.128 44.984L768.024 47.72C765.592 46.472 763 45.448 760.248 44.648L761.448 42.296ZM761.4 49.352C764.024 50.024 766.552 51.064 768.984 52.472L767.88 55.208C765.416 53.704 762.856 52.536 760.2 51.704L761.4 49.352ZM746.088 42.248C748.84 42.856 751.496 43.768 754.056 44.984L752.952 47.72C750.52 46.472 747.816 45.432 744.84 44.6L746.088 42.248ZM745.992 49.304C748.52 49.944 751.096 50.968 753.72 52.376L752.616 55.112C750.152 53.64 747.528 52.488 744.744 51.656L745.992 49.304ZM743.16 31.304V35.288H772.152V31.304H760.392V28.52H772.152V24.44H760.008V21.512H775.464V38.264H739.848V22.184C745.48 21.96 750.312 21.288 754.344 20.168L755.976 22.856C752.776 23.688 748.504 24.344 743.16 24.824V28.52H755.208V31.304H743.16ZM776.664 63.512C775.64 63.512 774.696 63.08 773.832 62.216C772.712 61.032 771.912 59.464 771.432 57.512C770.76 54.92 770.424 49.256 770.424 40.52H773.736C773.736 49.352 774.072 54.92 774.744 57.224C775.288 59.048 775.864 60.008 776.472 60.104C777.304 60.008 778.008 57.672 778.584 53.096L781.272 54.968C780.44 60.664 778.904 63.512 776.664 63.512ZM738.984 60.728C739.688 60.44 740.04 59.896 740.04 59.096V40.616H743.448V59.768C745.816 59.288 748.04 58.664 750.12 57.896L750.696 60.92C747.656 61.88 744.008 62.76 739.752 63.56L738.984 60.728ZM754.392 60.776C755.192 60.488 755.592 59.976 755.592 59.24V40.616H759V59.768C762.2 59.16 765.256 58.36 768.168 57.368L768.792 60.392C764.6 61.704 760.04 62.776 755.112 63.608L754.392 60.776ZM216.168 86.928H219.576V96H225.144V99.312H219.576V103.008C221.848 105.344 224.2 108.016 226.632 111.024L224.664 113.952C222.68 110.912 220.984 108.496 219.576 106.704V130.752H216.168V106.704C214.632 111.312 212.664 115.488 210.264 119.232L208.776 115.488C212.168 110.848 214.6 105.456 216.072 99.312H210.312V96H216.168V86.928ZM233.496 109.344C231.992 115.936 229.768 121.728 226.824 126.72L223.848 124.8C226.824 119.936 228.984 114.544 230.328 108.624L233.496 109.344ZM247.704 108.384C249.72 113.792 251.448 119.584 252.888 125.76L249.768 127.152C248.2 120.528 246.472 114.608 244.584 109.392L247.704 108.384ZM232.056 130.272L231.384 127.056C233.432 127.184 234.888 127.248 235.752 127.248C237.064 127.248 237.72 126.544 237.72 125.136V104.64H226.008V101.328H252.936V104.64H241.176V126C241.176 128.848 239.768 130.272 236.952 130.272H232.056ZM228.552 89.664H250.44V92.928H228.552V89.664ZM258.6 130.368L257.88 127.104C259.256 127.264 260.456 127.344 261.48 127.344C262.824 127.344 263.496 126.544 263.496 124.944V113.904C260.936 114.8 259.016 115.44 257.736 115.824L256.872 112.368C259.272 111.824 261.48 111.184 263.496 110.448V99.312H257.64V96H263.496V86.928H266.856V96H271.512V99.312H266.856V109.152C268.712 108.32 270.424 107.504 271.992 106.704V110.208C270.552 110.944 268.84 111.728 266.856 112.56V125.808C266.856 128.848 265.448 130.368 262.632 130.368H258.6ZM279.096 95.568C277.4 98.864 275.448 101.84 273.24 104.496L270.984 101.856C274.408 98.016 277.208 92.944 279.384 86.64L282.552 87.312C282.104 88.624 281.464 90.272 280.632 92.256H299.688V95.568H279.096ZM297.912 101.04C297.912 109.296 297.704 114.384 297.288 116.304C296.904 118.064 295.192 118.944 292.152 118.944H290.904L289.992 115.92L292.728 115.968C293.688 115.968 294.264 115.52 294.456 114.624C294.616 113.824 294.728 110.72 294.792 105.312L288.504 107.424V122.256H285.432V108.432L280.104 110.208V124.368C280.104 126.032 280.776 126.864 282.12 126.864H292.536C294.136 126.864 295.336 126.56 296.136 125.952C296.84 125.248 297.304 123.04 297.528 119.328L300.552 120.336C300.168 124.848 299.496 127.584 298.536 128.544C297.544 129.504 295.72 129.984 293.064 129.984H281.352C278.44 129.984 276.984 128.256 276.984 124.8V111.264L273.288 112.512V109.44L276.984 108.192V101.376H280.104V107.136L285.432 105.312V98.016H288.504V104.256L297.912 101.04ZM322.968 91.584H332.664V86.88H335.928V91.584H345.96V112.128H336.12C336.216 114.272 336.456 116.208 336.84 117.936L336.984 118.656C339.768 117.056 342.056 115.392 343.848 113.664L346.488 115.584C344.056 117.92 341.208 120 337.944 121.824C338.296 122.912 338.776 123.904 339.384 124.8C340.536 126.304 341.544 127.056 342.408 127.056C343.784 127.056 344.952 124.64 345.912 119.808L348.744 121.584C347.368 127.536 345.384 130.512 342.792 130.512C341 130.448 339.288 129.456 337.656 127.536C336.696 126.384 335.864 124.96 335.16 123.264C330.648 125.344 325.592 126.992 319.992 128.208L318.552 125.088C324.6 123.808 329.768 122.16 334.056 120.144C333.96 119.952 333.912 119.76 333.912 119.568C333.368 117.52 333 115.04 332.808 112.128H322.968V91.584ZM342.744 109.056V103.44H335.928V107.52C335.928 108.224 335.944 108.736 335.976 109.056H342.744ZM332.664 109.056V103.44H326.232V109.056H332.664ZM326.232 100.464H332.664V94.752H326.232V100.464ZM335.928 94.752V100.464H342.744V94.752H335.928ZM306.84 130.272L306.12 127.008C307.848 127.136 309.08 127.2 309.816 127.2C311.224 127.2 311.928 126.528 311.928 125.184V113.568C310.04 114.336 308.008 115.072 305.832 115.776L304.968 112.368C307.336 111.792 309.656 111.072 311.928 110.208V98.928H305.736V95.616H311.928V86.832H315.24V95.616H320.472V98.928H315.24V108.864C317.32 107.936 319.192 107.008 320.856 106.08V109.44C319.032 110.4 317.16 111.312 315.24 112.176V126.048C315.24 128.864 313.816 130.272 310.968 130.272H306.84ZM353.736 90.048C359.592 89.504 364.744 88.528 369.192 87.12L370.392 90.384C368.664 90.896 366.616 91.392 364.248 91.872V99.936H370.584V103.248H364.248V105.84C366.328 107.504 368.632 109.584 371.16 112.08L369.24 114.96C367.512 112.624 365.848 110.576 364.248 108.816V130.608H360.888V108.816C359.128 113.456 356.84 117.568 354.024 121.152L352.536 117.408C356.312 113.184 358.984 108.464 360.552 103.248H353.592V99.936H360.888V92.496C358.328 92.848 356.168 93.12 354.408 93.312L353.736 90.048ZM390.12 106.368C389.352 107.552 388.456 108.688 387.432 109.776H396.888V112.704C393.912 121.12 385.176 127.104 370.68 130.656L368.904 127.44C374.184 126.32 378.696 124.816 382.44 122.928L378.264 118.752L380.76 117.024C382.264 118.304 383.768 119.744 385.272 121.344C388.984 118.976 391.608 116.16 393.144 112.896H383.64C380.504 115.008 376.552 116.688 371.784 117.936L369.672 114.816C378.024 112.832 383.784 109.568 386.952 105.024L390.12 106.368ZM384.936 87.312C384.392 88.24 383.688 89.312 382.824 90.528H393.624V93.36C390.84 100.752 383.752 106.032 372.36 109.2L370.632 106.608C374.184 105.68 377.432 104.464 380.376 102.96C379.16 101.264 378.024 99.936 376.968 98.976L379.368 97.2C380.744 98.544 381.88 99.984 382.776 101.52C386.072 99.312 388.552 96.656 390.216 93.552H380.28C378.04 95.824 375.528 97.744 372.744 99.312L370.44 96.528C374.856 94.128 378.552 90.816 381.528 86.592L384.936 87.312ZM403.32 90.144H420.696V93.456H403.32V90.144ZM401.448 103.104H422.52V106.464H411.432C409.544 113.696 407.864 118.912 406.392 122.112C410.136 121.344 413.912 120.256 417.72 118.848C416.408 116.096 415.176 113.712 414.024 111.696L416.952 110.256C419.288 114.416 421.448 118.896 423.432 123.696L420.456 125.232C420.04 124.112 419.56 122.944 419.016 121.728C413.96 123.552 408.424 124.992 402.408 126.048L401.592 122.784L402.36 122.496C403.8 120.512 405.72 115.168 408.12 106.464H401.448V103.104ZM429.672 86.928H433.176V95.664H443.688C443.688 111.312 443.464 121.072 443.016 124.944C442.536 128.528 440.36 130.32 436.488 130.32C435.656 130.32 434.184 130.272 432.072 130.176L431.304 127.104C433.736 127.232 435.32 127.296 436.056 127.296C438.104 127.296 439.304 126.064 439.656 123.6C439.976 121.04 440.184 112.832 440.28 98.976H433.176V99.84C433.08 114.016 429.72 124.4 423.096 130.992L420.36 128.592C426.472 122.64 429.576 113.056 429.672 99.84V98.976H423.72V95.664H429.672V86.928ZM454.2 89.472H487.368V92.832H454.2V89.472ZM450.504 103.584H491.544V106.944H478.296V124.848C478.296 126.224 479 126.912 480.408 126.912H485.736C486.792 126.912 487.512 126.544 487.896 125.808C488.44 125.008 488.808 122.416 489 118.032L492.168 119.04C491.816 124.288 491.176 127.456 490.248 128.544C489.416 129.536 488.136 130.032 486.408 130.032H479.448C476.44 130.032 474.936 128.544 474.936 125.568V106.944H466.296V107.664C466.168 113.904 464.888 118.928 462.456 122.736C460.056 126.256 456.2 128.992 450.888 130.944L449.016 128.016C454.2 126.096 457.816 123.568 459.864 120.432C461.816 117.104 462.84 112.848 462.936 107.664V106.944H450.504V103.584ZM500.424 90.048H517.368V86.688H520.824V90.048H537.576V92.88H520.824V96.144H535.56V98.88H520.824V102.144H539.688V105.072H517.944C515.096 107.312 512.248 109.088 509.4 110.4C515.096 110.208 519.352 110.048 522.168 109.92C524.344 108.736 526.344 107.584 528.168 106.464L530.856 108.192C524.04 112.128 517.048 115.232 509.88 117.504C515.64 117.312 522.648 116.88 530.904 116.208C529.688 114.928 528.52 113.776 527.4 112.752L529.752 111.264C533.496 114.72 536.312 117.696 538.2 120.192L535.752 121.872C534.984 120.848 534.072 119.728 533.016 118.512C527.608 118.896 523.592 119.168 520.968 119.328V127.008C520.968 129.568 519.704 130.848 517.176 130.848H512.616L511.944 127.776C513.864 127.904 515.24 127.968 516.072 127.968C517.096 127.968 517.608 127.392 517.608 126.24V119.52C512.328 119.776 508.504 119.904 506.136 119.904L502.104 120.048L501.432 117.168L503.304 117.36C508.008 116.144 512.76 114.432 517.56 112.224C511.192 112.448 506.92 112.608 504.744 112.704L504.12 110.16C504.92 110.032 505.576 109.856 506.088 109.632C508.328 108.864 510.936 107.344 513.912 105.072H498.36V102.144H517.368V98.88H502.44V96.144H517.368V92.88H500.424V90.048ZM513.192 123.408C509.48 126.064 504.824 128.288 499.224 130.08L497.832 127.2C503.336 125.632 507.8 123.632 511.224 121.2L513.192 123.408ZM526.344 121.056C531.432 122.912 536.024 125.088 540.12 127.584L538.392 130.224C533.848 127.344 529.272 125.104 524.664 123.504L526.344 121.056ZM559.128 87.984C557.88 91.76 556.328 95.28 554.472 98.544V130.896H551.016V103.824C549.384 106 547.656 108.048 545.832 109.968L544.728 106.272C549.848 100.48 553.576 93.888 555.912 86.496L559.128 87.984ZM558.888 94.512H571.8C571.16 92.144 570.376 89.808 569.448 87.504L573.096 86.88C573.864 89.088 574.584 91.632 575.256 94.512H587.784V97.824H558.888V94.512ZM558.072 125.136H574.584C577.016 118.8 579.144 110.736 580.968 100.944L584.28 101.808C582.616 110.48 580.568 118.256 578.136 125.136H589.032V128.544H558.072V125.136ZM564.792 101.472C566.648 107.648 568.328 114.736 569.832 122.736L566.616 123.6C565.336 116.432 563.672 109.376 561.624 102.432L564.792 101.472ZM594.408 100.368H613.08L613.368 97.584H597.624V88.608H632.376V97.584H616.824L616.536 100.368H635.64V103.008H616.152L615.624 105.744H629.544V126.912H636.504V129.696H593.544V126.912H600.504V105.744H612.168L612.696 103.008H594.408V100.368ZM603.864 126.912H626.136V123.744H603.864V126.912ZM603.864 121.584H626.136V118.56H603.864V121.584ZM603.864 116.352H626.136V113.328H603.864V116.352ZM603.864 111.168H626.136V108.144H603.864V111.168ZM629.112 95.136V91.152H621.96V95.136H629.112ZM618.792 95.136V91.152H611.208V95.136H618.792ZM608.088 95.136V91.152H600.936V95.136H608.088Z" fill="black"/>
</svg>
