<svg width="786" height="151" viewBox="0 0 786 151" fill="none" xmlns="http://www.w3.org/2000/svg">
<path d="M16.128 63V23.064H1.728V18.2H35.904V23.064H21.504V63H16.128ZM42.3745 63V31.704H47.4305V63H42.3745ZM44.9345 26.84C43.8252 26.84 42.8865 26.4773 42.1185 25.752C41.3932 25.0267 41.0305 24.1093 41.0305 23C41.0305 21.848 41.3932 20.9093 42.1185 20.184C42.8865 19.4587 43.8252 19.096 44.9345 19.096C46.0438 19.096 46.9612 19.4587 47.6865 20.184C48.4118 20.9093 48.7745 21.848 48.7745 23C48.7745 24.1093 48.4118 25.0267 47.6865 25.752C46.9612 26.4773 46.0438 26.84 44.9345 26.84ZM58.062 75.8V31.704H62.99V36.888H63.886C64.6967 35.3093 65.998 33.9013 67.79 32.664C69.6247 31.4267 72.1633 30.808 75.406 30.808C78.094 30.808 80.5473 31.4693 82.766 32.792C85.0273 34.072 86.8193 35.9067 88.142 38.296C89.5073 40.6853 90.19 43.5653 90.19 46.936V47.768C90.19 51.096 89.5287 53.976 88.206 56.408C86.8833 58.84 85.0913 60.696 82.83 61.976C80.6113 63.256 78.1367 63.896 75.406 63.896C73.23 63.896 71.374 63.5973 69.838 63C68.3447 62.4453 67.1287 61.72 66.19 60.824C65.2513 59.928 64.526 59.0107 64.014 58.072H63.118V75.8H58.062ZM74.062 59.416C77.3047 59.416 79.9287 58.392 81.934 56.344C83.982 54.2533 85.006 51.352 85.006 47.64V47.064C85.006 43.352 83.982 40.472 81.934 38.424C79.9287 36.3333 77.3047 35.288 74.062 35.288C70.862 35.288 68.2167 36.3333 66.126 38.424C64.078 40.472 63.054 43.352 63.054 47.064V47.64C63.054 51.352 64.078 54.2533 66.126 56.344C68.2167 58.392 70.862 59.416 74.062 59.416ZM111.858 63.896C107.975 63.896 104.69 63 102.002 61.208C99.3562 59.416 97.7562 56.5787 97.2015 52.696L102.002 51.608C102.343 53.656 102.983 55.2773 103.922 56.472C104.86 57.624 106.012 58.456 107.378 58.968C108.786 59.4373 110.279 59.672 111.858 59.672C114.204 59.672 116.06 59.2027 117.426 58.264C118.791 57.3253 119.474 56.0667 119.474 54.488C119.474 52.8667 118.812 51.736 117.49 51.096C116.21 50.4133 114.439 49.8587 112.178 49.432L109.554 48.984C107.548 48.6427 105.714 48.1093 104.05 47.384C102.386 46.6587 101.063 45.6773 100.082 44.44C99.1002 43.2027 98.6095 41.6453 98.6095 39.768C98.6095 36.952 99.6975 34.7547 101.874 33.176C104.05 31.5973 106.93 30.808 110.514 30.808C114.055 30.808 116.914 31.6187 119.09 33.24C121.308 34.8187 122.738 37.0587 123.378 39.96L118.642 41.176C118.258 38.9147 117.34 37.336 115.89 36.44C114.439 35.5013 112.647 35.032 110.514 35.032C108.38 35.032 106.695 35.4373 105.458 36.248C104.22 37.016 103.602 38.168 103.602 39.704C103.602 41.1973 104.178 42.3067 105.33 43.032C106.524 43.7147 108.103 44.2267 110.066 44.568L112.69 45.016C114.908 45.4 116.892 45.9333 118.642 46.616C120.434 47.256 121.842 48.1947 122.866 49.432C123.932 50.6693 124.466 52.2907 124.466 54.296C124.466 57.368 123.314 59.736 121.01 61.4C118.748 63.064 115.698 63.896 111.858 63.896ZM147.08 63.896C143.922 63.896 141.085 63.2987 138.568 62.104C136.093 60.9093 134.13 59.1813 132.68 56.92C131.272 54.6587 130.568 51.928 130.568 48.728V47.512H135.752V48.664C135.752 51.9493 136.797 54.5307 138.888 56.408C140.978 58.2853 143.709 59.224 147.08 59.224C150.493 59.224 153.138 58.3493 155.016 56.6C156.936 54.808 157.896 52.568 157.896 49.88V49.368C157.896 47.4053 157.426 45.8267 156.488 44.632C155.549 43.3947 154.269 42.4987 152.648 41.944C151.069 41.3467 149.32 41.048 147.4 41.048H140.104V34.584L157.192 23.64V22.872H131.656V18.2H162.696V25.432L145.992 36.184V36.952H149.192C151.709 36.952 154.013 37.4213 156.104 38.36C158.237 39.256 159.922 40.6213 161.16 42.456C162.44 44.248 163.08 46.5093 163.08 49.24V49.944C163.08 52.76 162.418 55.2133 161.096 57.304C159.773 59.3947 157.917 61.016 155.528 62.168C153.138 63.32 150.322 63.896 147.08 63.896Z" fill="black"/>
<path d="M228.504 19.88H231.912V24.536H250.536V27.8H231.912V33.896H247.224V49.304H215.448V33.896H228.504V19.88ZM243.768 46.088V37.16H218.904V46.088H243.768ZM218.28 52.808C216.424 57.032 214.328 60.648 211.992 63.656L209.16 61.592C211.56 58.776 213.624 55.384 215.352 51.416L218.28 52.808ZM225.816 52.808C226.776 55.944 227.64 59.384 228.408 63.128L224.952 63.896C224.28 59.864 223.496 56.392 222.6 53.48L225.816 52.808ZM235.848 52.328C237.256 55.528 238.504 59.096 239.592 63.032L236.184 63.8C235.224 59.704 234.024 56.104 232.584 53L235.848 52.328ZM245.688 51.368C248.632 55.24 250.968 58.744 252.696 61.88L249.816 63.896C248.184 60.728 245.88 57.144 242.904 53.144L245.688 51.368ZM261.528 26.888H277.224V20.12H280.776V26.888H296.28V30.2H280.776V38.168H300.216V41.528H280.776V58.472H292.104V45.704H295.416V63.896H292.104V61.688H265.944V63.896H262.632V45.704H265.944V58.472H277.224V41.528H257.832V38.168H277.224V30.2H261.528V26.888ZM329.448 42.296C332.04 42.904 334.6 43.8 337.128 44.984L336.024 47.72C333.592 46.472 331 45.448 328.248 44.648L329.448 42.296ZM329.4 49.352C332.024 50.024 334.552 51.064 336.984 52.472L335.88 55.208C333.416 53.704 330.856 52.536 328.2 51.704L329.4 49.352ZM314.088 42.248C316.84 42.856 319.496 43.768 322.056 44.984L320.952 47.72C318.52 46.472 315.816 45.432 312.84 44.6L314.088 42.248ZM313.992 49.304C316.52 49.944 319.096 50.968 321.72 52.376L320.616 55.112C318.152 53.64 315.528 52.488 312.744 51.656L313.992 49.304ZM311.16 31.304V35.288H340.152V31.304H328.392V28.52H340.152V24.44H328.008V21.512H343.464V38.264H307.848V22.184C313.48 21.96 318.312 21.288 322.344 20.168L323.976 22.856C320.776 23.688 316.504 24.344 311.16 24.824V28.52H323.208V31.304H311.16ZM344.664 63.512C343.64 63.512 342.696 63.08 341.832 62.216C340.712 61.032 339.912 59.464 339.432 57.512C338.76 54.92 338.424 49.256 338.424 40.52H341.736C341.736 49.352 342.072 54.92 342.744 57.224C343.288 59.048 343.864 60.008 344.472 60.104C345.304 60.008 346.008 57.672 346.584 53.096L349.272 54.968C348.44 60.664 346.904 63.512 344.664 63.512ZM306.984 60.728C307.688 60.44 308.04 59.896 308.04 59.096V40.616H311.448V59.768C313.816 59.288 316.04 58.664 318.12 57.896L318.696 60.92C315.656 61.88 312.008 62.76 307.752 63.56L306.984 60.728ZM322.392 60.776C323.192 60.488 323.592 59.976 323.592 59.24V40.616H327V59.768C330.2 59.16 333.256 58.36 336.168 57.368L336.792 60.392C332.6 61.704 328.04 62.776 323.112 63.608L322.392 60.776ZM360.168 19.928H363.576V29H369.144V32.312H363.576V36.008C365.848 38.344 368.2 41.016 370.632 44.024L368.664 46.952C366.68 43.912 364.984 41.496 363.576 39.704V63.752H360.168V39.704C358.632 44.312 356.664 48.488 354.264 52.232L352.776 48.488C356.168 43.848 358.6 38.456 360.072 32.312H354.312V29H360.168V19.928ZM377.496 42.344C375.992 48.936 373.768 54.728 370.824 59.72L367.848 57.8C370.824 52.936 372.984 47.544 374.328 41.624L377.496 42.344ZM391.704 41.384C393.72 46.792 395.448 52.584 396.888 58.76L393.768 60.152C392.2 53.528 390.472 47.608 388.584 42.392L391.704 41.384ZM376.056 63.272L375.384 60.056C377.432 60.184 378.888 60.248 379.752 60.248C381.064 60.248 381.72 59.544 381.72 58.136V37.64H370.008V34.328H396.936V37.64H385.176V59C385.176 61.848 383.768 63.272 380.952 63.272H376.056ZM372.552 22.664H394.44V25.928H372.552V22.664ZM402.456 26.744H417C417.48 24.696 417.928 22.312 418.344 19.592L421.8 20.024C421.32 22.936 420.904 25.176 420.552 26.744H444.36V30.104H419.736C418.744 33.848 417.48 37.512 415.944 41.096H440.52V44.408H428.808V59.048H444.408V62.408H409.416V59.048H425.304V44.408H414.36C411.288 50.232 407.496 54.952 402.984 58.568L401.208 55.4C408.216 49.448 413.208 41.016 416.184 30.104H402.456V26.744ZM451.656 37.016L451.32 37.736L448.632 36.008C450.872 31.08 452.52 25.56 453.576 19.448L456.84 20.12L455.736 25.208H463.032V28.52H454.824C454.216 30.568 453.464 32.712 452.568 34.952H462.888V38.024H458.664V43.928H463.608V47.096H458.664V58.136C460.424 57.176 462.04 56.088 463.512 54.872L464.088 57.848C461.624 59.704 458.808 61.224 455.64 62.408L454.248 59.528C455.112 59.176 455.544 58.68 455.544 58.04V47.096H450.168V43.928H455.544V38.024H451.656V37.016ZM490.2 39.944H483.528V43.64H490.728V46.376H483.528V50.168H491.928V53.048H483.528V57.752H480.408V53.048H473.976V50.168H480.408V46.376H475.176V43.64H480.408V39.944H475.656V37.16H480.408V33.272H474.024V30.488H480.408V26.408H475.656V23.624H480.408V20.072H483.528V23.624H490.2V30.488H492.456V33.272H490.2V39.944ZM483.528 26.408V30.488H487.272V26.408H483.528ZM483.528 33.272V37.16H487.272V33.272H483.528ZM485.544 59.864C488.104 59.864 490.632 59.8 493.128 59.672L492.504 62.984H487.272C480.136 62.888 475.32 62.024 472.824 60.392C471.672 59.656 470.664 58.792 469.8 57.8C468.808 59.912 467.528 61.816 465.96 63.512L463.608 61.208C465.304 59.416 466.664 57.352 467.688 55.016C465.992 52.296 464.664 48.936 463.704 44.936L466.296 43.976C466.904 46.728 467.8 49.24 468.984 51.512C469.944 48.248 470.52 44.504 470.712 40.28H465V37.88C467.016 34.488 468.76 30.952 470.232 27.272H464.664V24.296H473.352V27.128C471.72 31.16 470.12 34.6 468.552 37.448H473.496V39.32C473.4 45.304 472.6 50.424 471.096 54.68C472.312 56.152 473.72 57.272 475.32 58.04C477.4 59.064 480.808 59.672 485.544 59.864ZM511.416 24.68H523.992V19.784H527.496V24.68H540.696V27.992H527.496V32.552H538.728V46.136H527.304C526.92 50.456 526.088 53.8 524.808 56.168C529.608 58.792 535.16 60.28 541.464 60.632L540.6 63.944C533.848 63.496 527.944 61.8 522.888 58.856C520.296 61.48 516.216 63.208 510.648 64.04L509.16 60.872C514.088 60.328 517.656 59 519.864 56.888C517.016 54.872 514.488 52.44 512.28 49.592L514.92 47.768C516.936 50.296 519.24 52.488 521.832 54.344C522.856 52.2 523.512 49.464 523.8 46.136H513.048V32.552H523.992V27.992H511.416V24.68ZM535.464 43.016V35.624H527.496V42.44L527.448 43.016H535.464ZM523.944 43.016L523.992 42.44V35.624H516.312V43.016H523.944ZM502.632 37.112C501 39.416 499.336 41.48 497.64 43.304L496.488 39.656C501.48 33.8 505.08 27.08 507.288 19.496L510.552 20.984C509.336 24.76 507.848 28.296 506.088 31.592V63.896H502.632V37.112ZM553.224 36.536V44.936H565.416V36.536H553.224ZM553.032 48.104C552.488 54.28 550.696 59.368 547.656 63.368L545.016 61.016C548.088 56.728 549.672 51.304 549.768 44.744V21.704H585.528V57.656C585.528 61.016 583.848 62.696 580.488 62.696H574.968L574.056 59.288C576.616 59.416 578.392 59.48 579.384 59.48C581.144 59.48 582.024 58.472 582.024 56.456V48.104H568.968V62.168H565.416V48.104H553.032ZM582.024 44.936V36.536H568.968V44.936H582.024ZM582.024 33.32V25.064H568.968V33.32H582.024ZM565.416 25.064H553.224V33.32H565.416V25.064ZM594.456 21.704H635.592V24.92H616.728V29.096H631.608V48.104H616.152C615.576 51.336 614.632 53.88 613.32 55.736C620.072 58.584 628.04 60.152 637.224 60.44L636.36 63.752C626.792 63.368 618.392 61.528 611.16 58.232C607.832 61.08 602.328 62.936 594.648 63.8L593.16 60.632C599.88 60.088 604.76 58.728 607.8 56.552C604.984 54.984 602.408 53.208 600.072 51.224L602.712 49.4C604.952 51.256 607.432 52.888 610.152 54.296C611.336 52.6 612.168 50.536 612.648 48.104H598.584V29.096H613.272V24.92H594.456V21.704ZM628.2 45.08V39.992H616.728V41.672L616.584 45.08H628.2ZM613.128 45.08C613.224 43.96 613.272 42.824 613.272 41.672V39.992H601.992V45.08H613.128ZM601.992 37.112H613.272V32.072H601.992V37.112ZM616.728 32.072V37.112H628.2V32.072H616.728ZM665.88 21.272C665.016 22.232 664.104 23.144 663.144 24.008H676.92V26.744C671.736 35.96 662.12 41.128 648.072 42.248L646.584 39.128C650.936 38.84 654.808 38.2 658.2 37.208C656.696 35.384 655.128 33.72 653.496 32.216L656.52 30.776C658.344 32.504 659.976 34.264 661.416 36.056C666.408 34.04 670.264 31.048 672.984 27.08H658.968C655.224 29.288 650.792 30.968 645.672 32.12L643.656 28.952C652.232 27.32 658.616 24.216 662.808 19.64L665.88 21.272ZM660.984 49.64C662.936 51.656 664.68 53.672 666.216 55.688C671.496 53.416 675.688 50.136 678.792 45.848H664.584C660.296 47.896 655.288 49.416 649.56 50.408L647.496 47.336C657.928 46.28 665.656 43.096 670.68 37.784L673.656 39.416C672.344 40.728 671.112 41.816 669.96 42.68H683.112V45.416C676.296 56.744 663.592 62.616 645 63.032L643.608 59.72C651.16 59.656 657.624 58.728 663 56.936C661.272 54.664 659.576 52.712 657.912 51.08L660.984 49.64ZM696.408 27.8H689.496V24.44H706.824V27.8H699.912V50.792C702.248 50.088 704.76 49.192 707.448 48.104V51.56C701.912 53.768 696.088 55.576 689.976 56.984L689.112 53.48C691.736 52.968 694.168 52.424 696.408 51.848V27.8ZM715.656 19.928H719.208V28.856H731.4C731.4 44.248 731.16 53.8 730.68 57.512C730.104 61.416 727.384 63.368 722.52 63.368L718.152 63.176L717.336 59.96C719.128 60.056 720.68 60.104 721.992 60.104C725.128 60.104 726.936 58.76 727.416 56.072C727.704 53.48 727.896 45.512 727.992 32.168H719.208V32.648C719.016 46.952 715.192 57.4 707.736 63.992L704.904 61.544C711.976 55.528 715.56 45.896 715.656 32.648V32.168H708.456V28.856H715.656V19.928ZM743.496 47.336V51.8H754.776V47.336H743.496ZM754.776 44.456V39.848H743.496V44.456H754.776ZM743.496 54.728V63.896H740.184V36.824H758.136V59.336C758.136 62.152 756.792 63.56 754.104 63.56H750.12L749.256 60.296L752.952 60.44C754.168 60.44 754.776 59.832 754.776 58.616V54.728H743.496ZM766.92 40.616C763.944 40.616 762.456 39.016 762.456 35.816V19.784H765.864V26.168C771.048 25.368 775.368 24.52 778.824 23.624L779.928 26.648C775.704 27.704 771.016 28.6 765.864 29.336V35.096C765.864 36.696 766.536 37.496 767.88 37.496H774.168C775.128 37.496 775.8 37.256 776.184 36.776C776.632 36.168 776.952 34.392 777.144 31.448L780.36 32.456C780.04 36.264 779.432 38.616 778.536 39.512C777.736 40.248 776.504 40.616 774.84 40.616H766.92ZM765.96 58.232C765.96 59.384 766.584 59.96 767.832 59.96H774.12C775.08 59.96 775.752 59.72 776.136 59.24C776.616 58.632 776.952 56.824 777.144 53.816L780.312 54.824C779.992 58.696 779.384 61.08 778.488 61.976C777.688 62.712 776.44 63.08 774.744 63.08H766.872C763.992 63.08 762.552 61.704 762.552 58.952V42.584H765.96V48.488C770.792 48.008 775.08 47.192 778.824 46.04L779.928 49.112C775.768 50.328 771.112 51.176 765.96 51.656V58.232ZM754.536 23.192C757.512 27.224 759.752 30.6 761.256 33.32L758.424 35.336C757.912 34.28 757.336 33.224 756.696 32.168C751.736 32.968 745.608 33.56 738.312 33.944L737.352 31.064C737.928 30.904 738.456 30.6 738.936 30.152C741.976 27.016 744.44 23.56 746.328 19.784L749.592 20.792C747.352 25.112 744.92 28.472 742.296 30.872C746.552 30.616 750.824 30.216 755.112 29.672C754.024 28.008 752.936 26.408 751.848 24.872L754.536 23.192Z" fill="black"/>
</svg>
