<svg width="298" height="108" viewBox="0 0 298 108" fill="none" xmlns="http://www.w3.org/2000/svg">
<path d="M15.254 108L0.162 32.694H12.482L24.956 99.838H27.112L43.59 32.694H63.764L80.242 99.838H82.398L94.872 32.694H107.192L92.1 108H71.31L54.678 40.856H52.676L36.044 108H15.254ZM125.022 108V32.694H137.188V108H125.022ZM131.182 20.99C128.513 20.99 126.254 20.1173 124.406 18.372C122.661 16.6267 121.788 14.4193 121.788 11.75C121.788 8.978 122.661 6.71933 124.406 4.974C126.254 3.22866 128.513 2.35599 131.182 2.35599C133.852 2.35599 136.059 3.22866 137.804 4.974C139.55 6.71933 140.422 8.978 140.422 11.75C140.422 14.4193 139.55 16.6267 137.804 18.372C136.059 20.1173 133.852 20.99 131.182 20.99ZM187.41 108C183.098 108 179.762 106.819 177.4 104.458C175.142 102.097 174.012 98.8627 174.012 94.756V43.32H151.374V32.694H174.012V5.89799H186.178V32.694H210.818V43.32H186.178V92.908C186.178 95.988 187.667 97.528 190.644 97.528H207.43V108H187.41ZM227.444 108V0.199993H239.61V44.706H241.766C242.793 42.4473 244.333 40.3427 246.386 38.392C248.542 36.3387 251.263 34.6447 254.548 33.31C257.936 31.9753 262.197 31.308 267.33 31.308C272.977 31.308 278.008 32.54 282.422 35.004C286.94 37.3653 290.533 40.856 293.202 45.476C295.872 49.9933 297.206 55.64 297.206 62.416V108H285.04V63.34C285.04 55.8453 283.141 50.404 279.342 47.016C275.646 43.628 270.616 41.934 264.25 41.934C256.961 41.934 251.006 44.2953 246.386 49.018C241.869 53.7407 239.61 60.7733 239.61 70.116V108H227.444Z" fill="black"/>
</svg>
