<svg width="768" height="111" viewBox="0 0 768 111" fill="none" xmlns="http://www.w3.org/2000/svg">
<path d="M0.238 108V96.45H15.33V11.75H0.238V0.199993H54.292C60.5547 0.199993 66.0987 1.32933 70.924 3.58799C75.852 5.84666 79.6507 9.02933 82.32 13.136C85.092 17.14 86.478 21.8627 86.478 27.304V28.536C86.478 33.5667 85.5027 37.7247 83.552 41.01C81.6013 44.1927 79.2913 46.708 76.622 48.556C73.9527 50.3013 71.3347 51.5847 68.768 52.406V54.562C71.3347 55.178 74.004 56.41 76.776 58.258C79.548 60.0033 81.858 62.5187 83.706 65.804C85.6567 69.0893 86.632 73.2473 86.632 78.278V79.818C86.632 85.67 85.1947 90.752 82.32 95.064C79.548 99.2733 75.698 102.507 70.77 104.766C65.9447 106.922 60.4007 108 54.138 108H0.238ZM28.266 96.296H52.752C59.528 96.296 64.7127 94.7047 68.306 91.522C71.8993 88.3393 73.696 84.0273 73.696 78.586V77.2C73.696 71.7587 71.8993 67.4467 68.306 64.264C64.7127 61.0813 59.528 59.49 52.752 59.49H28.266V96.296ZM28.266 47.786H53.214C59.374 47.786 64.302 46.246 67.998 43.166C71.694 39.9833 73.542 35.8253 73.542 30.692V29.152C73.542 23.916 71.694 19.758 67.998 16.678C64.4047 13.4953 59.4767 11.904 53.214 11.904H28.266V47.786ZM104.516 108V32.694H116.374V41.934H118.53C119.865 38.6487 121.918 36.236 124.69 34.696C127.462 33.156 131.107 32.386 135.624 32.386H144.556V43.474H134.854C129.413 43.474 124.998 45.014 121.61 48.094C118.325 51.0713 116.682 55.7427 116.682 62.108V108H104.516ZM279.655 108V32.694H291.513V45.476H293.669C295.312 41.8827 298.084 38.6487 301.985 35.774C305.989 32.7967 311.841 31.308 319.541 31.308C325.188 31.308 330.219 32.4887 334.633 34.85C339.151 37.2113 342.744 40.702 345.413 45.322C348.083 49.942 349.417 55.64 349.417 62.416V108H337.251V63.34C337.251 55.8453 335.352 50.404 331.553 47.016C327.857 43.628 322.827 41.934 316.461 41.934C309.172 41.934 303.217 44.2953 298.597 49.018C294.08 53.7407 291.821 60.7733 291.821 70.116V108H279.655ZM401.359 110.156C392.016 110.156 384.111 108 377.643 103.688C371.277 99.376 367.427 92.5487 366.093 83.206L377.643 80.588C378.464 85.516 380.004 89.4173 382.263 92.292C384.521 95.064 387.293 97.066 390.579 98.298C393.967 99.4273 397.56 99.992 401.359 99.992C407.005 99.992 411.471 98.8627 414.757 96.604C418.042 94.3453 419.685 91.3167 419.685 87.518C419.685 83.6167 418.093 80.896 414.911 79.356C411.831 77.7133 407.57 76.3787 402.129 75.352L395.815 74.274C390.989 73.4527 386.575 72.1693 382.571 70.424C378.567 68.6787 375.384 66.3173 373.023 63.34C370.661 60.3627 369.481 56.6153 369.481 52.098C369.481 45.322 372.099 40.0347 377.335 36.236C382.571 32.4373 389.501 30.538 398.125 30.538C406.646 30.538 413.525 32.4887 418.761 36.39C424.099 40.1887 427.539 45.5787 429.079 52.56L417.683 55.486C416.759 50.0447 414.551 46.246 411.061 44.09C407.57 41.8313 403.258 40.702 398.125 40.702C392.991 40.702 388.936 41.6773 385.959 43.628C382.981 45.476 381.493 48.248 381.493 51.944C381.493 55.5373 382.879 58.2067 385.651 59.952C388.525 61.5947 392.324 62.8267 397.047 63.648L403.361 64.726C408.699 65.65 413.473 66.9333 417.683 68.576C421.995 70.116 425.383 72.3747 427.847 75.352C430.413 78.3293 431.697 82.2307 431.697 87.056C431.697 94.448 428.925 100.146 423.381 104.15C417.939 108.154 410.599 110.156 401.359 110.156ZM475.217 108C470.905 108 467.569 106.819 465.207 104.458C462.949 102.097 461.819 98.8627 461.819 94.756V43.32H439.181V32.694H461.819V5.89799H473.985V32.694H498.625V43.32H473.985V92.908C473.985 95.988 475.474 97.528 478.451 97.528H495.237V108H475.217ZM547.348 110.156C539.751 110.156 533.026 108.565 527.174 105.382C521.425 102.199 516.908 97.7333 513.622 91.984C510.44 86.132 508.848 79.2533 508.848 71.348V69.346C508.848 61.5433 510.44 54.716 513.622 48.864C516.908 43.012 521.425 38.4947 527.174 35.312C533.026 32.1293 539.751 30.538 547.348 30.538C554.946 30.538 561.619 32.1293 567.368 35.312C573.22 38.4947 577.738 43.012 580.92 48.864C584.206 54.716 585.848 61.5433 585.848 69.346V71.348C585.848 79.2533 584.206 86.132 580.92 91.984C577.738 97.7333 573.22 102.199 567.368 105.382C561.619 108.565 554.946 110.156 547.348 110.156ZM547.348 99.222C555.356 99.222 561.722 96.7067 566.444 91.676C571.27 86.5427 573.682 79.664 573.682 71.04V69.654C573.682 61.03 571.27 54.2027 566.444 49.172C561.722 44.0387 555.356 41.472 547.348 41.472C539.443 41.472 533.078 44.0387 528.252 49.172C523.427 54.2027 521.014 61.03 521.014 69.654V71.04C521.014 79.664 523.427 86.5427 528.252 91.676C533.078 96.7067 539.443 99.222 547.348 99.222ZM604.662 108V32.694H616.52V41.934H618.676C620.01 38.6487 622.064 36.236 624.836 34.696C627.608 33.156 631.252 32.386 635.77 32.386H644.702V43.474H635C629.558 43.474 625.144 45.014 621.756 48.094C618.47 51.0713 616.828 55.7427 616.828 62.108V108H604.662ZM659.632 108V32.694H671.49V42.088H673.646C675.084 39.4187 677.445 36.9547 680.73 34.696C684.016 32.4373 688.636 31.308 694.59 31.308C700.442 31.308 705.165 32.5913 708.758 35.158C712.454 37.7247 715.124 40.856 716.766 44.552H718.922C720.668 40.856 723.286 37.7247 726.776 35.158C730.37 32.5913 735.349 31.308 741.714 31.308C746.745 31.308 751.16 32.3347 754.958 34.388C758.757 36.4413 761.734 39.4187 763.89 43.32C766.149 47.1187 767.278 51.6873 767.278 57.026V108H755.112V58.104C755.112 53.0733 753.624 49.1207 750.646 46.246C747.772 43.2687 743.716 41.78 738.48 41.78C732.936 41.78 728.368 43.5767 724.774 47.17C721.284 50.7633 719.538 55.948 719.538 62.724V108H707.372V58.104C707.372 53.0733 705.884 49.1207 702.906 46.246C700.032 43.2687 695.976 41.78 690.74 41.78C685.196 41.78 680.628 43.5767 677.034 47.17C673.544 50.7633 671.798 55.948 671.798 62.724V108H659.632Z" fill="black"/>
<path d="M182.587 110.156C177.351 110.156 172.577 109.232 168.265 107.384C163.953 105.536 160.565 102.867 158.101 99.376C155.637 95.8853 154.405 91.6247 154.405 86.594C154.405 81.4607 155.637 77.2513 158.101 73.966C160.565 70.578 163.953 68.0627 168.265 66.42C172.577 64.6747 177.403 63.802 182.741 63.802H208.151V58.258C208.151 52.9193 206.56 48.71 203.377 45.63C200.297 42.55 195.677 41.01 189.517 41.01C183.46 41.01 178.737 42.4987 175.349 45.476C171.961 48.3507 169.651 52.252 168.419 57.18L157.023 53.484C158.255 49.2747 160.206 45.476 162.875 42.088C165.545 38.5973 169.087 35.8253 173.501 33.772C178.019 31.616 183.409 30.538 189.671 30.538C199.322 30.538 206.817 33.0533 212.155 38.084C217.494 43.012 220.163 49.9933 220.163 59.028V93.062C220.163 96.142 221.601 97.682 224.475 97.682H231.405V108H220.779C217.391 108 214.671 107.076 212.617 105.228C210.564 103.277 209.537 100.711 209.537 97.528V96.758H207.689C206.56 98.7087 205.02 100.762 203.069 102.918C201.221 104.971 198.655 106.665 195.369 108C192.084 109.437 187.823 110.156 182.587 110.156ZM183.973 99.684C191.16 99.684 196.961 97.5793 201.375 93.37C205.893 89.058 208.151 83.052 208.151 75.352V73.658H183.203C178.378 73.658 174.374 74.736 171.191 76.892C168.111 78.9453 166.571 82.0767 166.571 86.286C166.571 90.4953 168.163 93.7807 171.345 96.142C174.631 98.5033 178.84 99.684 183.973 99.684ZM244.987 108V32.694H257.153V108H244.987ZM251.147 20.99C248.478 20.99 246.219 20.1173 244.371 18.372C242.626 16.6267 241.753 14.4193 241.753 11.75C241.753 8.978 242.626 6.71933 244.371 4.974C246.219 3.22866 248.478 2.35599 251.147 2.35599C253.817 2.35599 256.024 3.22866 257.769 4.974C259.515 6.71933 260.387 8.978 260.387 11.75C260.387 14.4193 259.515 16.6267 257.769 18.372C256.024 20.1173 253.817 20.99 251.147 20.99Z" fill="#4318FF"/>
</svg>

