<svg width="438" height="121" viewBox="0 0 438 121" fill="none" xmlns="http://www.w3.org/2000/svg">
<path d="M81.96 120.2C68.3067 120.2 60.84 110.493 59.56 91.08H32.04C29.9067 95.9867 28.0933 100.573 26.6 104.84L22.44 117H0.0399997L50.44 11.4H84.84L91.56 89.16C92.6267 100.36 95.2933 107.613 99.56 110.92C96.4667 117.107 90.6 120.2 81.96 120.2ZM37 79.4H59.08L57.16 38.28V33.96L45.8 59.08L37 79.4ZM147.307 108.2C144.001 116.2 137.068 120.2 126.508 120.2C121.068 120.2 116.641 118.333 113.228 114.6C110.348 111.293 108.908 107.987 108.908 104.68C108.908 96.04 110.881 83.2933 114.828 66.44L120.748 35.4L153.227 32.2L143.468 82.76C141.654 90.6533 140.748 95.9867 140.748 98.76C140.748 104.84 142.934 107.987 147.307 108.2ZM123.628 13.16C123.628 8.99999 125.334 5.79999 128.748 3.55999C132.268 1.32 136.534 0.199997 141.548 0.199997C146.561 0.199997 150.561 1.32 153.548 3.55999C156.641 5.79999 158.188 8.99999 158.188 13.16C158.188 17.32 156.481 20.4667 153.068 22.6C149.761 24.7333 145.601 25.8 140.588 25.8C135.574 25.8 131.468 24.7333 128.268 22.6C125.174 20.4667 123.628 17.32 123.628 13.16ZM211.339 32.2C215.179 32.2 218.592 32.6267 221.579 33.48C221.685 33.0533 221.845 32.2533 222.059 31.08L222.859 26.12C223.285 23.9867 223.819 21.16 224.459 17.64L227.019 4.99999L258.859 1.8L241.099 94.6C240.992 95.24 240.939 96.0933 240.939 97.16V99.72C240.939 102.067 241.525 104.147 242.699 105.96C243.872 107.667 245.419 108.52 247.339 108.52C245.205 113.533 240.885 117.107 234.379 119.24C232.139 119.88 229.419 120.2 226.219 120.2C223.125 120.2 220.139 119.347 217.259 117.64C214.379 116.04 212.512 113.853 211.659 111.08C209.952 113.853 207.392 116.04 203.979 117.64C200.565 119.347 196.352 120.2 191.339 120.2C186.432 120.2 181.899 119.56 177.739 118.28C173.685 117 170.379 114.973 167.819 112.2C163.125 106.76 160.779 97.8533 160.779 85.48C160.779 69.48 165.472 56.6267 174.859 46.92C184.245 37.1067 196.405 32.2 211.339 32.2ZM210.219 41.8C206.272 41.8 203.232 43.9333 201.099 48.2C198.965 52.4667 196.779 59.88 194.539 70.44C192.405 81 191.339 91.0267 191.339 100.52C191.339 107.027 193.259 110.28 197.099 110.28C200.512 110.28 203.392 108.573 205.739 105.16C208.192 101.747 209.899 97.2133 210.859 91.56L219.499 44.68C217.259 42.76 214.165 41.8 210.219 41.8ZM325.739 89.96C328.405 91.7733 329.739 94.7067 329.739 98.76C329.739 102.707 328.725 105.96 326.699 108.52C324.672 111.08 322.005 113.213 318.699 114.92C311.872 118.44 304.779 120.2 297.419 120.2C290.059 120.2 284.192 119.4 279.819 117.8C275.552 116.2 271.979 113.907 269.099 110.92C263.445 105.267 260.619 97.2667 260.619 86.92C260.619 70.8133 264.992 57.8533 273.739 48.04C283.125 37.48 295.979 32.2 312.299 32.2C322.432 32.2 330.005 34.3333 335.019 38.6C338.752 41.8 340.619 46.0133 340.619 51.24C340.619 70.0133 324.405 79.4 291.979 79.4C291.552 82.1733 291.339 84.7333 291.339 87.08C291.339 91.9867 292.405 95.4 294.539 97.32C296.779 99.1333 299.925 100.04 303.979 100.04C308.032 100.04 312.192 99.1333 316.459 97.32C320.832 95.4 323.925 92.9467 325.739 89.96ZM293.099 72.52C300.672 72.52 306.645 70.1733 311.019 65.48C315.392 61 317.579 55.1867 317.579 48.04C317.579 45.5867 317.099 43.72 316.139 42.44C315.285 41.0533 313.952 40.36 312.139 40.36C310.325 40.36 308.619 40.7333 307.019 41.48C305.525 42.12 303.979 43.6133 302.379 45.96C298.432 51.2933 295.339 60.1467 293.099 72.52ZM352.975 112.2C350.522 109.427 348.708 105.853 347.535 101.48C346.468 97.1067 345.935 91.3467 345.935 84.2C345.935 77.0533 347.162 70.2267 349.615 63.72C352.068 57.2133 355.535 51.6133 360.015 46.92C369.188 37.1067 381.348 32.2 396.495 32.2C401.935 32.2 406.628 33.1067 410.575 34.92L437.935 32.2L426.095 94.6C425.775 95.88 425.615 97.6933 425.615 100.04C425.615 102.387 426.308 104.307 427.695 105.8C429.188 107.293 431.002 108.147 433.135 108.36C432.068 111.987 429.562 114.867 425.615 117C421.775 119.133 417.668 120.2 413.295 120.2C408.922 120.2 405.242 119.347 402.255 117.64C399.375 116.04 397.508 113.853 396.655 111.08C394.948 113.747 392.282 115.933 388.655 117.64C385.028 119.347 380.762 120.2 375.855 120.2C371.055 120.2 366.682 119.56 362.735 118.28C358.788 117 355.535 114.973 352.975 112.2ZM386.735 47.24C385.562 49.16 384.442 51.7733 383.375 55.08C382.308 58.28 380.868 64.2533 379.055 73C377.348 81.64 376.495 89.0533 376.495 95.24C376.495 101.427 376.975 105.427 377.935 107.24C378.895 109.053 380.228 109.96 381.935 109.96C385.348 109.96 388.282 108.36 390.735 105.16C393.295 101.853 395.055 97.32 396.015 91.56L404.495 44.68C402.255 42.76 399.802 41.8 397.135 41.8C394.575 41.8 392.495 42.2267 390.895 43.08C389.402 43.9333 388.015 45.32 386.735 47.24Z" fill="url(#paint0_linear_68_167)"/>
<defs>
<linearGradient id="paint0_linear_68_167" x1="24.5357" y1="21" x2="438.641" y2="132.843" gradientUnits="userSpaceOnUse">
<stop offset="0.124695" stop-color="#2B0AFF"/>
<stop offset="0.920049" stop-color="#151515"/>
</linearGradient>
</defs>
</svg>

