<svg width="42" height="42" viewBox="0 0 42 42" fill="none" xmlns="http://www.w3.org/2000/svg">
<g clip-path="url(#clip0_143_146)">
<g clip-path="url(#clip1_143_146)">
<path fill-rule="evenodd" clip-rule="evenodd" d="M30.0446 25.6463C30.5319 26.1336 30.5333 26.9233 30.0477 27.4123C29.5596 27.9038 28.7652 27.9052 28.2754 27.4154L21.8394 20.9794L28.2831 14.5497C28.7698 14.0641 29.5578 14.0645 30.0439 14.5506C30.5304 15.0371 30.5304 15.8259 30.0439 16.3124L25.3773 20.979L30.0446 25.6463ZM19.7946 25.6789C20.2819 26.1662 20.2833 26.9559 19.7977 27.4449C19.3096 27.9364 18.5152 27.9378 18.0254 27.4481L11.5894 21.012L18.0331 14.5823C18.5198 14.0967 19.3078 14.0971 19.7939 14.5832C20.2804 15.0697 20.2804 15.8585 19.7939 16.345L15.1273 21.0116L19.7946 25.6789Z" fill="white"/>
</g>
</g>
<defs>
<clipPath id="clip0_143_146">
<rect width="42" height="42" fill="white"/>
</clipPath>
<clipPath id="clip1_143_146">
<rect width="42" height="42" fill="white" transform="matrix(0 -1 1 0 0 42)"/>
</clipPath>
</defs>
</svg>
